<svg xmlns="http://www.w3.org/2000/svg" xmlns:xlink="http://www.w3.org/1999/xlink" width="1920" zoomAndPan="magnify" viewBox="0 0 1440 809.999993" height="1080" preserveAspectRatio="xMidYMid meet" version="1.0"><defs><clipPath id="3722897b86"><path d="M 525 243 L 915.273438 243 L 915.273438 567 L 525 567 Z M 525 243 " clip-rule="nonzero"/></clipPath></defs><g clip-path="url(#3722897b86)"><path fill="#030303" d="M 527.917969 435.914062 C 531.964844 464.273438 540.363281 480.632812 558.554688 502.660156 C 564.363281 509.699219 570.53125 516.863281 577.871094 522.355469 C 590.382812 531.730469 604.34375 533.386719 619.417969 531.128906 C 633.757812 528.984375 646.820312 521.835938 655.441406 510.070312 C 658.003906 506.566406 660.238281 502.472656 661.761719 498.394531 C 663.289062 494.191406 664.546875 489.890625 665.082031 485.433594 C 665.371094 483.007812 665.390625 480.515625 665.761719 478.105469 C 666.1875 475.40625 667.535156 472.886719 668.160156 470.226562 C 669.707031 463.640625 668.289062 453.304688 665.472656 447.21875 C 663.507812 442.960938 660.09375 439.871094 655.703125 438.277344 C 651.492188 436.757812 646.75 436.230469 642.277344 436.1875 C 639.777344 429.429688 638.085938 423.503906 641.234375 416.566406 C 643.960938 410.550781 649.726562 406.085938 655.828125 403.859375 C 661.28125 401.875 668.152344 401.214844 673.792969 402.691406 C 676.101562 403.296875 678.308594 404.320312 680.609375 404.890625 C 685.589844 411.503906 688.855469 418.886719 691 426.855469 C 693.484375 436.058594 694.585938 445.605469 695.664062 455.054688 C 697.277344 469.855469 698.488281 484.683594 699.3125 499.546875 C 699.929688 509.589844 700.460938 519.609375 700.542969 529.671875 C 700.589844 535.105469 700.679688 540.640625 699.910156 546.03125 C 699.230469 550.851562 697.675781 554.734375 695.574219 559.074219 C 698.199219 562.535156 702.054688 565.632812 706.464844 566.230469 C 711.949219 566.964844 716.875 564.464844 722.246094 564.21875 C 726.835938 564.011719 731.335938 565.730469 735.925781 565.070312 C 736.203125 565.035156 736.484375 564.980469 736.757812 564.925781 C 737.039062 564.871094 737.308594 564.800781 737.582031 564.726562 C 737.851562 564.652344 738.125 564.5625 738.386719 564.472656 C 738.648438 564.382812 738.910156 564.273438 739.175781 564.164062 C 739.4375 564.054688 739.691406 563.9375 739.945312 563.800781 C 740.195312 563.675781 740.441406 563.539062 740.6875 563.394531 C 740.929688 563.25 741.164062 563.097656 741.402344 562.941406 C 741.636719 562.789062 741.863281 562.617188 742.082031 562.433594 C 743.765625 561.113281 744.96875 559.398438 746.171875 557.660156 C 743.230469 552.179688 742.109375 546.113281 741.5625 539.972656 C 740.875 532.234375 741.21875 524.355469 741.464844 516.601562 C 741.925781 502.914062 742.730469 489.246094 743.863281 475.605469 C 745.3125 458.015625 746.453125 436.230469 751.503906 419.472656 C 753.425781 413.097656 756.09375 407.046875 760.222656 401.765625 C 762.722656 401.070312 765.113281 399.992188 767.648438 399.449219 C 775.171875 397.816406 784.683594 398.722656 791.449219 402.582031 C 796.355469 405.378906 799.859375 409.664062 801.296875 415.152344 C 803.070312 421.867188 801.296875 427.15625 799.703125 433.621094 C 793.203125 432.445312 786.476562 432.960938 780.882812 436.828125 C 777.0625 439.464844 775.832031 442.535156 774.601562 446.867188 C 774.074219 448.703125 773.511719 450.523438 773.179688 452.410156 C 772.238281 457.742188 772.019531 463.605469 773.414062 468.886719 C 773.921875 470.824219 774.878906 472.734375 775.207031 474.699219 C 775.6875 477.570312 775.550781 480.640625 775.894531 483.550781 C 776.773438 490.933594 779.949219 498.984375 784.269531 505.027344 C 787.09375 508.984375 790.597656 512.851562 794.507812 515.769531 C 802.128906 521.449219 812.996094 524.960938 822.320312 526.449219 C 836.1875 528.65625 852.113281 525.558594 863.484375 517.226562 C 870.546875 512.046875 876.457031 505.089844 881.960938 498.339844 C 899.117188 477.308594 908.335938 460.796875 912.382812 433.769531 C 914.390625 420.371094 915.277344 406.339844 915.277344 392.800781 C 915.269531 358.480469 909.992188 336.207031 893.160156 306.167969 C 890.4375 301.277344 887.566406 296.476562 884.550781 291.757812 C 881.535156 287.039062 878.386719 282.417969 875.101562 277.890625 C 870.101562 271.132812 864.417969 264.722656 857.78125 259.53125 C 848.710938 252.4375 834.160156 246.089844 822.734375 244.386719 C 816.035156 243.378906 808.785156 242.964844 802.023438 243.417969 C 786.515625 244.296875 781.859375 244.964844 771.367188 256.714844 C 754.828125 275.226562 754.175781 292.566406 755.5625 316.015625 C 755.996094 323.324219 757.824219 330.398438 763.480469 335.433594 C 768.496094 339.902344 775.132812 342.402344 781.871094 341.9375 C 784.640625 341.75 787.183594 341.125 789.765625 340.089844 C 790.6875 339.71875 794.117188 337.761719 794.832031 337.980469 L 794.734375 338.667969 L 794.960938 338.949219 L 795.792969 338.707031 C 796.890625 341.875 796.492188 349.484375 794.960938 352.554688 C 790.570312 361.359375 773.820312 368.40625 764.6875 371.257812 C 758.449219 373.207031 746.308594 376.882812 740.371094 373.613281 C 738.558594 372.617188 737.101562 371.097656 735.652344 369.648438 C 732.890625 353.261719 732.375 336.40625 731.976562 319.820312 C 731.824219 313.507812 731.335938 306.660156 731.859375 300.390625 C 732.511719 299.867188 733.054688 299.640625 733.273438 298.804688 C 732.972656 297.835938 732.464844 297.347656 731.570312 296.902344 C 726.925781 294.613281 714.269531 295.335938 709.523438 297.183594 C 708.601562 297.546875 707.929688 297.9375 707.414062 298.789062 C 707.378906 299.457031 707.386719 299.511719 707.722656 300.089844 C 708.039062 300.253906 708.601562 300.417969 708.699219 300.769531 C 709.046875 301.957031 708.59375 308.632812 708.582031 310.527344 C 708.449219 325.136719 708.539062 339.691406 707.570312 354.285156 C 707.199219 359.882812 706.871094 365.707031 705.867188 371.230469 C 703.035156 374.3125 701.113281 377.410156 696.441406 377.574219 C 692.914062 377.699219 689.210938 376.902344 685.742188 376.25 C 674.769531 374.195312 659.894531 370.597656 651.648438 362.800781 C 647.972656 359.332031 644.125 354.167969 644.097656 348.90625 C 644.078125 345.734375 645.109375 342.507812 645.464844 339.347656 C 651.304688 343.957031 655.757812 346.277344 663.5 345.398438 C 669.691406 344.691406 675.476562 341.929688 679.339844 336.949219 C 685.832031 328.585938 685.316406 318.652344 685.261719 308.679688 C 685.226562 303.144531 685.191406 297.699219 684.457031 292.203125 C 682.484375 277.3125 673.148438 261.667969 661.191406 252.539062 C 651.917969 245.464844 632.320312 246.277344 621.101562 247.863281 C 613.695312 248.90625 606.871094 250.945312 599.988281 253.878906 C 584.816406 260.355469 575.085938 268.832031 565.207031 281.992188 C 558.308594 291.195312 552.332031 300.871094 546.8125 310.941406 C 529.113281 343.226562 524.53125 368.144531 525.671875 404.753906 C 526.007812 415.136719 526.449219 425.605469 527.917969 435.914062 Z M 665.617188 468.214844 C 665.171875 467.707031 664.121094 461.222656 663.804688 460.035156 C 663 456.992188 661.960938 453.695312 660.402344 450.949219 C 658.890625 448.269531 656.71875 446.203125 654.554688 444.058594 C 657.089844 444.699219 659.542969 446.394531 661.351562 448.261719 C 665.804688 452.863281 665.6875 462.199219 665.617188 468.214844 Z M 643.417969 437.652344 C 647.375 437.707031 652.789062 438.269531 656.28125 440.316406 C 657.832031 441.222656 659.277344 442.664062 660.519531 443.949219 L 660.464844 444.09375 L 659.460938 443.378906 C 653.613281 440.042969 645.320312 439.203125 638.710938 438.777344 C 639.777344 438.324219 640.773438 437.988281 641.898438 437.707031 C 642.394531 437.664062 642.910156 437.644531 643.417969 437.652344 Z M 648.957031 443.304688 C 646.515625 443.941406 643.933594 444.3125 641.460938 444.820312 C 639.605469 445.28125 637.734375 445.667969 635.867188 446.078125 C 637.859375 444.394531 639.460938 442.769531 641.96875 441.894531 C 644.613281 441.675781 646.558594 442.328125 648.957031 443.304688 Z M 651.972656 403.007812 C 645.617188 406.125 640.386719 411.414062 638.140625 418.214844 C 636.019531 424.621094 637.207031 430.789062 640.148438 436.683594 L 638.410156 437.300781 C 638.195312 437.4375 637.976562 437.5625 637.769531 437.71875 C 636.402344 438.695312 636.183594 440.007812 635.894531 441.546875 C 633.578125 441.894531 631.285156 441.964844 628.941406 441.9375 C 628.976562 439.664062 629.269531 437.554688 629.820312 435.34375 C 631.105469 436.894531 632.554688 438.015625 634.203125 439.15625 C 633.6875 438.496094 633.1875 437.835938 632.691406 437.164062 C 627.746094 430.371094 629.484375 422.90625 630.707031 415.234375 C 632.679688 412.773438 634.945312 410.507812 637.054688 408.160156 C 642.167969 402.472656 647.511719 395.5625 655.503906 394.183594 C 662.304688 393.625 667.789062 396.558594 673.375 400.007812 C 666.050781 398.996094 658.671875 399.726562 651.972656 403.007812 Z M 615.296875 416.015625 C 614.691406 416.765625 614.039062 417.492188 613.40625 418.222656 L 611.25 417.046875 C 605.375 413.996094 599.726562 410.144531 594.230469 406.457031 C 596.683594 405.363281 598.304688 404.15625 599.945312 402.011719 C 600.015625 402.835938 600.1875 403.605469 600.46875 404.394531 C 602.8125 410.898438 609.632812 413.222656 615.296875 416.015625 Z M 602.707031 398.027344 C 605.992188 392.335938 618.167969 383.839844 624.433594 382.191406 C 627.675781 381.8125 633.792969 384.113281 636.964844 385.289062 C 636.5 387.816406 635.042969 390.398438 633.777344 392.601562 C 629.140625 400.671875 623.484375 407.273438 617 413.914062 L 614.910156 413.234375 C 613.308594 412.644531 611.730469 411.921875 610.203125 411.160156 C 606.804688 409.457031 603.304688 407.199219 602.109375 403.351562 C 601.546875 401.496094 601.738281 399.691406 602.707031 398.027344 Z M 616.066406 417.519531 C 617.789062 415.097656 619.90625 412.960938 621.890625 410.761719 C 628.054688 403.921875 636.917969 394.9375 640.429688 386.503906 C 643.382812 387.308594 646.261719 388.125 649.058594 389.402344 C 648.015625 391.085938 646.921875 392.753906 645.789062 394.375 C 644.660156 396.003906 643.472656 397.601562 642.25 399.15625 C 641.027344 400.726562 639.761719 402.246094 638.449219 403.742188 C 637.136719 405.234375 635.785156 406.683594 634.402344 408.105469 C 631.429688 411.195312 628.046875 414.15625 625.410156 417.546875 C 617.417969 427.84375 611.34375 439.59375 603.636719 450.144531 C 602.261719 451.800781 601.046875 453.765625 599.800781 455.535156 C 602.144531 448.566406 604.976562 441.703125 607.765625 434.910156 C 610.175781 429.101562 612.402344 422.652344 616.066406 417.519531 Z M 650.632812 390 C 651.648438 390.535156 652.726562 390.941406 653.792969 391.367188 L 650.933594 392.328125 L 648.605469 393.46875 C 649.300781 392.328125 649.953125 391.152344 650.632812 390 Z M 627.113281 422.851562 L 625.773438 421.222656 C 626.632812 420.089844 627.621094 419.03125 628.5625 417.960938 C 628.597656 418.894531 628.136719 422.933594 627.71875 423.488281 Z M 627.210938 441.828125 C 625.917969 441.476562 624.660156 441.058594 623.382812 440.605469 C 621.5625 439.808594 620.097656 439.003906 618.640625 437.644531 C 619.742188 432.15625 620.695312 428.605469 623.773438 423.859375 C 624.171875 424.09375 624.542969 424.367188 624.839844 424.738281 C 628.246094 428.976562 627.664062 436.785156 627.210938 441.828125 Z M 618.375 440.597656 C 622.785156 443.160156 625.273438 443.941406 630.355469 444.355469 C 627.449219 448.296875 624.839844 452.363281 622.324219 456.566406 C 621.074219 458.949219 620.078125 461.332031 619.253906 463.894531 C 617.644531 456.09375 617.570312 448.488281 618.375 440.597656 Z M 720.667969 561.917969 L 719.484375 562.117188 C 718.914062 562.179688 718.332031 562.226562 717.761719 562.28125 C 717.402344 559.417969 717.90625 555.027344 717.988281 552.019531 C 718.144531 546.582031 718.117188 541.148438 717.898438 535.714844 C 716.957031 513.992188 715.597656 492.289062 713.816406 470.613281 C 713.707031 469.203125 714.179688 468.105469 714.65625 466.800781 C 715.074219 468.984375 715.074219 471.449219 715.238281 473.6875 L 716.316406 489.113281 C 717.375 503.441406 718.867188 517.734375 719.753906 532.082031 C 720.179688 538.957031 720.199219 545.867188 720.480469 552.753906 C 720.542969 554.5 721.410156 560.804688 720.667969 561.917969 Z M 712.359375 457.144531 C 712.449219 455.453125 713.28125 453.804688 713.445312 452.101562 C 713.941406 446.828125 713.859375 441.402344 714.007812 436.105469 L 714.179688 436.332031 C 714.792969 440.914062 714.484375 446.050781 714.566406 450.679688 C 714.621094 453.8125 715.121094 458.613281 714.605469 461.585938 C 714.386719 462.824219 713.824219 463.902344 713.164062 464.953125 C 712.449219 463.949219 712.285156 458.460938 712.359375 457.144531 Z M 712.042969 436.023438 C 711.742188 438.867188 711.734375 441.765625 711.644531 444.628906 C 711.507812 443.941406 711.398438 443.242188 711.300781 442.542969 C 710.429688 436.070312 709.5625 429.726562 708.257812 423.324219 C 712.585938 414.964844 712.972656 408.886719 714.015625 399.820312 C 714.621094 400.488281 714.484375 403.078125 714.511719 404.066406 C 714.613281 407.328125 714.605469 410.589844 714.476562 413.847656 C 714.351562 417.109375 714.105469 420.363281 713.742188 423.605469 C 713.246094 427.753906 712.46875 431.875 712.042969 436.023438 Z M 720.777344 510.507812 L 720.269531 505.289062 C 719.78125 501.765625 719.519531 498.167969 719.167969 494.628906 C 718.351562 486.601562 717.753906 478.558594 717.355469 470.496094 C 716.515625 448.941406 717.246094 427.320312 716.523438 405.769531 C 715.863281 385.960938 713.527344 366.195312 712.25 346.414062 C 711.253906 331.070312 711.191406 315.644531 710.757812 300.273438 C 715.425781 300.066406 720.125 300.089844 724.796875 300.027344 C 726.464844 299.9375 728.136719 299.972656 729.804688 299.992188 C 729.460938 306.441406 729.449219 312.925781 729.296875 319.386719 C 729.125 329.601562 728.753906 339.800781 728.175781 350 C 727.667969 359.394531 726.664062 368.707031 725.964844 378.070312 C 725.351562 386.9375 724.941406 395.816406 724.742188 404.699219 C 724.089844 432.636719 724.027344 460.597656 722.273438 488.488281 C 721.820312 495.785156 721.636719 503.242188 720.777344 510.507812 Z M 726.464844 445.515625 C 727.730469 447.453125 728.664062 455.207031 728.664062 457.726562 C 728.664062 459.828125 728.402344 461.964844 728.21875 464.058594 C 727.441406 463.289062 726.742188 462.183594 726.019531 461.332031 C 726.082031 456.050781 726.226562 450.777344 726.464844 445.515625 Z M 726.589844 431.503906 C 726.625 431.566406 726.664062 431.621094 726.691406 431.695312 C 727.3125 433.171875 727.785156 441.09375 727.289062 442.554688 C 726.996094 442.664062 727.167969 442.625 726.761719 442.597656 C 726 440.832031 726.546875 433.832031 726.589844 431.503906 Z M 727.6875 423.714844 C 727.261719 419.375 727.007812 415.019531 726.933594 410.660156 C 726.863281 406.296875 726.960938 401.9375 727.242188 397.589844 C 728.707031 405.976562 728.679688 411.992188 732.792969 419.945312 C 732.503906 422.699219 731.824219 425.480469 731.371094 428.222656 C 730.601562 432.960938 730.128906 437.726562 729.957031 442.519531 C 729.847656 443.378906 729.785156 444.246094 729.714844 445.117188 C 729.632812 441.292969 729.496094 437.492188 729.050781 433.6875 C 728.664062 430.351562 728.011719 427.054688 727.6875 423.714844 Z M 723.585938 561.566406 L 723.292969 561.753906 C 722.433594 560.035156 722.941406 552.996094 722.941406 550.625 C 722.96875 538.203125 723.003906 525.824219 723.59375 513.421875 C 724.335938 497.824219 725.695312 482.210938 725.882812 466.59375 C 726.527344 467.328125 727.179688 468.0625 727.839844 468.777344 C 725.496094 499.363281 724.109375 530 723.675781 560.675781 Z M 801.777344 432.09375 C 804.121094 426.746094 805.179688 421.3125 803.921875 415.535156 C 802.59375 409.421875 798.472656 404.210938 793.238281 400.90625 C 785.011719 395.707031 774.238281 395.074219 764.941406 397.191406 C 768.28125 394.765625 774.363281 390.75 778.421875 390.199219 C 780.738281 390.0625 782.972656 390.171875 785.246094 390.714844 C 787.84375 391.332031 790.558594 392.425781 792.816406 393.859375 C 797.132812 396.613281 806.839844 406.003906 809.410156 410.289062 C 813.828125 417.664062 811.972656 428.984375 809.945312 436.929688 C 808.785156 437.074219 807.625 437.191406 806.46875 437.300781 C 804.773438 435.550781 803.351562 434.691406 801.097656 433.796875 Z M 781.679688 388.261719 C 784.023438 387.226562 786.378906 386.214844 788.742188 385.226562 L 789.011719 385.199219 L 789.21875 385.460938 C 788.941406 386.667969 788.242188 387.773438 787.664062 388.859375 C 786.042969 388.785156 784.421875 388.605469 782.800781 388.460938 C 782.429688 388.425781 782.050781 388.332031 781.679688 388.261719 Z M 795.070312 385.0625 C 797.050781 385.6875 799.234375 385.816406 801.070312 386.855469 C 804.375 388.730469 808.558594 394.953125 811.085938 398.035156 C 815.628906 403.570312 820.890625 408.667969 825.117188 414.4375 C 830.242188 421.441406 833.21875 429.835938 836.40625 437.84375 C 837.855469 441.46875 839.492188 445.136719 840.5 448.914062 L 838.976562 446.738281 C 836.785156 443.441406 834.242188 440.261719 831.652344 437.273438 C 829.871094 435.21875 827.933594 433.222656 826.339844 431.023438 C 823.957031 427.71875 822.507812 423.804688 820.34375 420.351562 C 817.285156 415.480469 813.039062 411.015625 809.265625 406.667969 C 806.457031 403.46875 803.515625 400.398438 800.4375 397.453125 C 797.75 394.902344 794.335938 392.480469 792.308594 389.394531 C 793.414062 388.035156 794.382812 386.710938 795.070312 385.0625 Z M 793.558594 383.386719 C 796.011719 382.148438 798.835938 381.585938 801.480469 380.886719 C 801.957031 381.324219 802.003906 384.664062 802.066406 385.460938 C 800.03125 384.828125 798.019531 384.304688 795.9375 383.886719 C 795.160156 383.667969 794.355469 383.542969 793.558594 383.386719 Z M 824.671875 381.160156 C 830.132812 384.078125 835.203125 387.039062 837.121094 393.414062 C 838.042969 396.484375 837.554688 399.746094 836 402.527344 C 834.089844 405.933594 830.394531 408.296875 826.710938 409.347656 C 826.023438 409.449219 825.296875 409.539062 824.609375 409.484375 C 823.722656 409.410156 823.078125 408.886719 822.453125 408.296875 C 820.652344 406.613281 819.105469 404.5 817.539062 402.589844 C 813.636719 397.851562 809.863281 392.808594 805.671875 388.351562 L 805.378906 388.042969 C 805.425781 385.390625 805.289062 382.726562 805.191406 380.074219 C 808.894531 379.222656 812.613281 378.46875 816.351562 377.816406 C 817.746094 377.589844 818.769531 377.945312 820.011719 378.578125 C 821.585938 379.375 823.105469 380.328125 824.671875 381.160156 Z M 824.140625 376.65625 C 827.289062 374.945312 833.761719 372.148438 837.347656 371.867188 C 840.128906 371.777344 842.84375 372.019531 845.550781 372.671875 C 847.695312 373.1875 852.53125 374.347656 853.617188 376.511719 C 853.84375 376.964844 853.871094 377.375 853.726562 377.863281 C 853.542969 378.460938 852.757812 379.328125 852.175781 379.566406 C 850.855469 380.089844 849.015625 377.753906 847.648438 377.328125 C 845.234375 376.558594 842.5 378.207031 840.417969 379.277344 C 838.515625 380.425781 836.632812 381.59375 834.757812 382.78125 C 830.1875 381.882812 827.191406 380.191406 824.140625 376.65625 Z M 838.921875 401.125 C 840.378906 401.324219 841.847656 401.503906 843.3125 401.667969 C 839.9375 407.226562 835.511719 410.253906 829.289062 412.011719 C 827.933594 412.308594 826.71875 412.554688 825.335938 412.21875 L 825.371094 411.949219 C 826.546875 411.214844 827.949219 410.914062 829.246094 410.40625 C 833.78125 408.625 836.96875 405.550781 838.921875 401.125 Z M 821.378906 435.226562 L 821.53125 435.296875 C 821.695312 435.542969 821.785156 435.75 821.859375 436.042969 C 822.382812 438.132812 822.601562 440.390625 822.863281 442.527344 C 823.613281 448.667969 823.96875 454.417969 820.761719 459.964844 C 820.191406 457.492188 819.585938 455.035156 818.953125 452.582031 C 816.996094 446.917969 814.042969 442.988281 809.128906 439.539062 C 813.65625 438.914062 817.59375 437.871094 821.378906 435.226562 Z M 811.292969 436.566406 C 812.398438 433.261719 813.148438 429.871094 814.035156 426.503906 C 814.769531 423.714844 815.59375 420.949219 816.300781 418.152344 C 818.046875 420.351562 819.683594 423.277344 820.96875 425.796875 C 821.710938 427.246094 822.246094 428.847656 821.660156 430.453125 C 820.753906 432.933594 817.910156 434.3125 815.648438 435.316406 C 814.207031 435.859375 812.769531 436.214844 811.292969 436.566406 Z M 780.710938 439.566406 C 783.886719 435.859375 789.066406 434.835938 793.683594 434.445312 C 796.410156 434.484375 798.664062 435.144531 801.1875 436.132812 C 795.285156 435.589844 789.546875 436.203125 784.132812 438.6875 C 782.3125 439.628906 780.71875 440.886719 779.082031 442.109375 C 779.550781 441.222656 780.058594 440.324219 780.710938 439.566406 Z M 775.894531 463.566406 L 775.765625 463.433594 C 775.242188 460.921875 775.75 457.316406 776.09375 454.792969 C 777.015625 447.824219 778.128906 446.675781 783.5 442.527344 C 783.753906 443.023438 783.445312 443.195312 783.191406 443.640625 C 779.6875 449.773438 777.027344 456.574219 775.894531 463.566406 Z M 787.410156 304.703125 C 792.308594 309.058594 795.503906 314.621094 795.875 321.234375 C 796.121094 325.480469 796.265625 331.152344 793.1875 334.492188 C 790.433594 337.484375 785.753906 338.8125 781.804688 339.023438 C 775.875 339.339844 770.941406 337.058594 766.605469 333.097656 C 760.828125 327.816406 758.085938 320.011719 757.769531 312.300781 C 757.261719 299.945312 760.484375 281.714844 765.863281 270.5625 C 766.378906 269.496094 766.941406 268.445312 767.539062 267.421875 C 768.136719 266.398438 768.769531 265.390625 769.4375 264.402344 C 770.109375 263.425781 770.816406 262.464844 771.558594 261.542969 C 772.300781 260.617188 773.078125 259.710938 773.882812 258.84375 C 782.574219 249.566406 795.296875 246.222656 807.597656 245.824219 C 825.941406 245.652344 843.285156 253.199219 857.246094 264.792969 C 860.035156 267.101562 862.695312 269.566406 865.222656 272.15625 C 867.75 274.757812 870.128906 277.484375 872.375 280.328125 C 883.21875 293.96875 896.5 318.042969 902.324219 334.105469 C 903.347656 336.859375 904.277344 339.636719 905.121094 342.445312 C 905.960938 345.253906 906.714844 348.097656 907.375 350.953125 C 908.035156 353.8125 908.605469 356.695312 909.078125 359.582031 C 909.554688 362.480469 909.9375 365.390625 910.226562 368.316406 C 911.65625 383.878906 911.511719 399.320312 910.398438 414.890625 C 909.230469 431.277344 907.328125 448.359375 900.457031 463.488281 C 897.761719 469.410156 894.390625 474.945312 890.796875 480.351562 C 886.125 487.28125 881.121094 493.964844 875.789062 500.398438 C 864.878906 513.484375 851.589844 522.925781 834.089844 524.4375 C 832.964844 524.535156 831.835938 524.601562 830.703125 524.628906 C 829.570312 524.65625 828.4375 524.636719 827.308594 524.574219 C 826.175781 524.519531 825.054688 524.417969 823.929688 524.28125 C 822.808594 524.148438 821.695312 523.964844 820.582031 523.75 C 812.054688 522.046875 801.109375 516.902344 794.507812 511.339844 C 785.363281 503.648438 779.714844 491.3125 778.765625 479.519531 C 777.75 466.917969 779.414062 452.953125 787.980469 442.980469 L 788.171875 442.761719 C 788.785156 442.644531 789.410156 442.535156 790.035156 442.464844 C 794.804688 441.917969 801.839844 442.5 805.714844 445.660156 C 812.523438 451.214844 809.308594 461.984375 807.4375 469.046875 C 806.359375 473.125 805.128906 477.21875 804.347656 481.367188 C 803.75 484.546875 803.640625 487.453125 803.976562 490.667969 C 804.394531 480.839844 808.9375 471.855469 810.875 462.300781 C 811.945312 457.019531 812.261719 451.066406 809.046875 446.421875 C 805.96875 441.984375 799.820312 440.324219 794.707031 439.738281 C 793.367188 439.582031 792.035156 439.636719 790.707031 439.394531 C 791.195312 438.941406 791.699219 438.8125 792.34375 438.703125 C 798.71875 437.609375 803.839844 439.113281 809.082031 442.808594 C 816.046875 447.707031 818.535156 454.445312 819.058594 462.714844 C 819.296875 466.457031 819.1875 470.015625 818.164062 473.640625 C 815.429688 483.332031 808.558594 492.15625 810.46875 502.796875 C 811.355469 507.753906 815.175781 511.410156 819.167969 514.09375 C 818.144531 512.632812 816.878906 511.332031 815.738281 509.960938 C 810.304688 503.476562 810.839844 495.652344 813.871094 488.113281 C 815.25 484.691406 817.050781 481.4375 818.382812 477.996094 C 818.761719 477.039062 819.105469 476.066406 819.414062 475.082031 C 819.722656 474.09375 819.992188 473.097656 820.226562 472.101562 C 820.464844 471.105469 820.652344 470.082031 820.816406 469.066406 C 820.96875 468.042969 821.097656 467.019531 821.179688 465.996094 C 825.949219 474.746094 826.339844 486.167969 831.328125 495.585938 C 832.285156 497.410156 833.328125 499.265625 834.738281 500.777344 C 832.648438 496.847656 830.746094 492.589844 829.507812 488.3125 C 827.976562 483.023438 827.164062 477.507812 825.75 472.171875 C 824.945312 469.148438 823.523438 466.320312 822.628906 463.324219 C 823.40625 461.113281 824.238281 459.003906 824.789062 456.730469 C 827.433594 462.652344 830.230469 468.722656 833.835938 474.128906 C 838.667969 481.394531 845.3125 486.4375 853.933594 488.160156 C 848.710938 485.28125 845.847656 484.183594 841.285156 479.863281 C 834.316406 473.25 827.605469 460.761719 825.832031 451.160156 C 825.324219 448.433594 825.632812 445.589844 825.242188 442.835938 C 824.664062 438.769531 823.703125 434.726562 823.585938 430.605469 C 827.859375 435.144531 831.714844 440.035156 835.535156 444.953125 C 838.0625 448.207031 840.671875 451.429688 842.859375 454.925781 C 845.859375 459.699219 847.785156 465.0625 850.527344 469.980469 C 853.246094 474.84375 856.1875 478.113281 859.246094 482.570312 C 863.664062 489.003906 864.179688 494.601562 862.8125 502.117188 C 863.304688 500.949219 863.71875 499.753906 864.0625 498.53125 C 867.339844 486.574219 859.863281 480.613281 854.53125 471.203125 C 858.984375 474.511719 863.648438 477.644531 869.214844 478.632812 C 874.140625 479.511719 878.222656 478.648438 882.332031 475.804688 C 877.425781 477.652344 872.753906 478.261719 867.710938 476.492188 C 857.988281 473.097656 849.757812 463.894531 844.492188 455.363281 C 843.457031 453.6875 842.261719 451.945312 841.519531 450.117188 C 840.671875 448.007812 840.390625 445.496094 839.691406 443.296875 C 837.410156 436.085938 834.964844 428.859375 831.679688 422.039062 C 837.183594 424.492188 842.726562 425.578125 848.519531 427.011719 C 851.398438 427.71875 854.230469 428.59375 857.101562 429.339844 C 852.882812 426.9375 847.957031 425.589844 843.3125 424.246094 C 840.886719 423.542969 838.289062 422.960938 836.0625 421.738281 C 834.242188 420.734375 832.730469 419.128906 832.207031 417.074219 C 831.941406 416.050781 832.007812 414.917969 832.613281 414.03125 C 833.664062 412.492188 836.605469 411.65625 838.164062 410.578125 C 841.070312 408.570312 843.421875 405.226562 846.492188 403.632812 C 848.546875 402.5625 851.164062 402.09375 853.425781 401.675781 C 857.761719 400.878906 861.410156 402.980469 865.449219 404.273438 C 873.941406 407 880.792969 408.832031 888.308594 414.101562 C 893.125 417.480469 897.144531 422.644531 898.855469 428.316406 C 899.578125 430.714844 899.914062 433.222656 900.359375 435.6875 C 900.441406 434.355469 900.421875 433.015625 900.3125 431.683594 C 900.203125 430.351562 899.996094 429.03125 899.699219 427.734375 C 897.441406 417.773438 891.703125 413.289062 883.527344 408.125 C 892.28125 408.035156 900.375 406.75 907.511719 401.351562 C 901.570312 404.113281 895.976562 405.949219 889.394531 406.449219 C 880.332031 407.136719 868.574219 405.074219 861.539062 398.976562 C 862.777344 398.289062 864.019531 397.574219 865.195312 396.777344 C 874.710938 390.300781 877.726562 378.070312 879.699219 367.390625 C 877.761719 372.972656 875.714844 378.496094 872.554688 383.515625 C 867.523438 391.496094 860.042969 396.867188 850.855469 398.96875 C 847.007812 399.675781 843.496094 399.945312 839.582031 399.65625 C 840.234375 396.167969 839.882812 393.386719 838.117188 390.253906 C 837.546875 389.25 836.851562 388.207031 836.503906 387.09375 C 836.234375 386.203125 836.242188 385.316406 836.695312 384.503906 C 838.179688 381.828125 843.847656 379.890625 846.636719 379.066406 C 847.035156 379.566406 847.441406 380.0625 847.875 380.515625 C 848.910156 381.601562 850.410156 382.320312 851.921875 382.300781 C 853.273438 382.28125 854.539062 381.765625 855.464844 380.769531 C 856.992188 379.121094 856.964844 377.355469 856.894531 375.261719 C 856.738281 375 856.59375 374.738281 856.414062 374.484375 C 854.097656 371.125 846.917969 370.488281 843.152344 369.847656 C 852.773438 368.359375 865.882812 368.304688 874.792969 365.273438 C 880.152344 363.441406 886.234375 359.367188 888.777344 354.148438 C 882.730469 360.769531 876.257812 363.777344 867.46875 365.109375 C 876.175781 359.140625 881.21875 353.40625 883.472656 342.746094 C 880.660156 350.28125 876.65625 357.402344 869.566406 361.683594 C 861.300781 366.683594 850.621094 365.699219 841.429688 367.699219 C 833.472656 369.4375 826.167969 373.070312 818.390625 375.371094 C 813.992188 376.675781 809.308594 377.230469 804.847656 378.316406 C 793.3125 381.132812 775.832031 386.75 766.0625 393.40625 C 763.589844 395.089844 761.472656 397.027344 759.507812 399.292969 C 753.199219 406.566406 749.957031 415.488281 747.621094 424.691406 C 744.261719 437.925781 743.339844 451.738281 742.378906 465.316406 C 741.457031 478.394531 740.675781 491.394531 740.222656 504.492188 C 739.753906 518.03125 738.929688 531.574219 739.390625 545.125 C 739.5625 550.34375 740.414062 555.46875 740.792969 560.660156 C 735.617188 564.191406 730.882812 562.886719 725.179688 561.847656 C 725.085938 552.007812 725.613281 542.179688 726.054688 532.363281 C 726.609375 517.632812 727.433594 502.925781 728.519531 488.234375 C 729.667969 470.867188 730.300781 453.378906 732.347656 436.085938 C 733.804688 423.804688 737.417969 403.261719 744.082031 392.851562 C 744.5625 392.101562 745.078125 391.375 745.621094 390.679688 C 746.164062 389.972656 746.742188 389.300781 747.339844 388.652344 C 747.945312 388 748.570312 387.375 749.230469 386.777344 C 749.894531 386.175781 750.570312 385.605469 751.277344 385.074219 C 762.53125 376.621094 781.894531 372.761719 795.695312 370.824219 C 801.234375 370.046875 806.855469 369.691406 812.359375 368.707031 C 819.46875 367.429688 826.9375 365.515625 833.546875 362.546875 C 837.203125 360.898438 840.324219 358.625 843.457031 356.160156 C 843.785156 356.855469 844.09375 357.574219 844.527344 358.199219 C 844.625 358.332031 844.726562 358.46875 844.824219 358.597656 C 844.925781 358.730469 845.035156 358.859375 845.152344 358.984375 C 845.261719 359.113281 845.378906 359.230469 845.496094 359.355469 C 845.613281 359.484375 845.730469 359.59375 845.859375 359.710938 C 845.984375 359.828125 846.101562 359.9375 846.238281 360.046875 C 846.363281 360.15625 846.5 360.253906 846.628906 360.363281 C 846.761719 360.460938 846.898438 360.5625 847.035156 360.652344 C 847.171875 360.742188 847.316406 360.832031 847.460938 360.925781 C 847.605469 361.015625 847.75 361.097656 847.894531 361.179688 C 848.039062 361.257812 848.195312 361.332031 848.347656 361.40625 C 848.5 361.476562 848.65625 361.539062 848.808594 361.613281 C 848.964844 361.675781 849.117188 361.738281 849.28125 361.792969 C 849.433594 361.847656 849.597656 361.902344 849.757812 361.949219 C 849.921875 361.992188 850.085938 362.039062 850.25 362.082031 C 850.410156 362.121094 850.574219 362.15625 850.738281 362.191406 C 850.898438 362.21875 851.0625 362.246094 851.234375 362.273438 C 854.746094 362.734375 858.304688 360.980469 861.003906 358.867188 C 864.886719 355.832031 867.339844 351.882812 867.929688 346.957031 C 869.042969 337.582031 862.96875 327.464844 857.390625 320.460938 C 859.492188 325.453125 862.597656 329.585938 864.074219 334.929688 C 861.746094 332.761719 859.457031 330.960938 856.460938 329.828125 C 854.277344 329.003906 852.003906 328.585938 849.679688 328.6875 C 841.503906 329.050781 829.453125 335.316406 821.882812 338.734375 C 826.5 315.253906 843.765625 310.507812 860.804688 297.953125 C 862.234375 296.894531 865.972656 294.367188 866.816406 292.898438 C 865.902344 293.191406 855.589844 300.707031 853.382812 302.085938 C 845.632812 306.902344 837.175781 310.316406 829.460938 315.164062 C 829.035156 303.667969 826.527344 288.605469 828.847656 277.527344 C 829.34375 275.136719 830.359375 272.808594 831.128906 270.492188 C 822.164062 284.628906 827.988281 302.808594 825.332031 318.40625 C 824.046875 325.941406 820.054688 333.097656 817.421875 340.246094 C 816.28125 343.34375 815.183594 349.429688 813.113281 351.65625 C 811.835938 353.027344 808.894531 354.808594 806.972656 354.835938 C 806.242188 354.847656 805.605469 354.582031 805.101562 354.039062 C 803.480469 352.300781 803.035156 348.289062 802.828125 345.988281 C 801.832031 335.171875 804.09375 324.621094 807.816406 314.53125 C 809.5625 309.8125 811.617188 304.9375 812.886719 300.066406 C 814.324219 294.539062 815.238281 288.070312 815.230469 282.347656 L 814.96875 282.402344 C 813.835938 289.65625 812.578125 296.703125 810.421875 303.734375 C 810.152344 300.128906 809.960938 296.523438 809.128906 292.992188 C 807.453125 285.84375 803.523438 280.808594 797.296875 276.984375 C 801.414062 281.59375 804.476562 286.648438 805.789062 292.773438 C 806.820312 297.636719 806.765625 302.789062 806.285156 307.71875 C 805.5625 315.199219 802.394531 322.058594 801.523438 329.546875 C 801.1875 332.402344 800.882812 344.847656 799.914062 346.332031 C 799.359375 345.652344 799.234375 344.382812 799.078125 343.523438 C 796.988281 331.894531 801.679688 318.34375 794.453125 307.980469 C 791.476562 303.714844 787.609375 301.742188 782.59375 300.835938 C 784.203125 302.039062 785.863281 303.324219 787.410156 304.703125 Z M 740 384.085938 C 743.820312 383.613281 747.71875 382.863281 751.414062 381.792969 L 751.503906 381.957031 C 747.847656 384.421875 745.230469 386.839844 742.722656 390.480469 L 742.425781 390.460938 L 741.972656 389.628906 C 741.230469 387.800781 740.621094 385.933594 740 384.085938 Z M 798.164062 368.425781 C 800.019531 363.839844 801.6875 361.578125 802.621094 356.449219 C 806.703125 357.410156 809.789062 356.085938 813.285156 354.066406 L 813.5 354.410156 C 813.210938 357.347656 813.464844 362.746094 811.707031 365.171875 C 811.191406 365.886719 810.476562 366.332031 809.644531 366.621094 C 808.152344 367.136719 806.332031 367.15625 804.757812 367.375 C 802.554688 367.679688 800.363281 368.0625 798.164062 368.425781 Z M 861.148438 340.597656 C 860.070312 340.035156 858.984375 339.691406 857.824219 339.339844 C 854.269531 340.878906 851.0625 342.78125 848.210938 345.410156 C 848.609375 340.78125 848.882812 336.386719 846.210938 332.335938 C 847.242188 332.15625 848.285156 331.984375 849.324219 331.832031 C 852.421875 331.394531 855.761719 332.292969 858.40625 333.894531 C 862.417969 336.3125 864.625 340.34375 865.710938 344.792969 C 864.390625 342.835938 863.160156 341.765625 861.148438 340.597656 Z M 863.601562 352.546875 C 861.671875 356.476562 857.808594 359.023438 853.761719 360.328125 C 853.019531 360.433594 852.257812 360.5625 851.507812 360.472656 C 849.722656 360.261719 847.832031 359.230469 846.773438 357.753906 C 846.066406 356.777344 845.859375 355.617188 846.101562 354.4375 C 847.1875 349.265625 852.386719 344.167969 856.675781 341.40625 C 857.308594 341.441406 857.898438 341.667969 858.46875 341.9375 C 860.679688 342.972656 863.304688 345.300781 864.117188 347.617188 C 864.6875 349.265625 864.363281 350.996094 863.601562 352.546875 Z M 846.320312 335.980469 C 847.632812 341.421875 846.699219 347.933594 843.710938 352.699219 C 838.960938 360.289062 826.167969 363.660156 817.820312 365.527344 L 815.800781 365.859375 C 816.816406 359.957031 816.480469 349.71875 819.621094 344.855469 C 823.089844 339.484375 838.40625 334.167969 844.746094 332.683594 L 844.996094 332.800781 C 845.660156 333.796875 846.039062 334.835938 846.320312 335.980469 Z M 799.570312 349.566406 C 800.699219 350.644531 801.226562 353.398438 801.253906 354.875 C 801.324219 359.9375 797.949219 365.398438 794.570312 368.957031 C 790.480469 369.765625 786.832031 369.148438 782.8125 368.316406 L 779.316406 367.644531 C 787.445312 363.253906 795.175781 357.945312 799.570312 349.566406 Z M 737.742188 375.527344 C 743.738281 379.429688 758.441406 375.226562 765.003906 373.078125 C 768.390625 371.976562 771.828125 370.398438 775.304688 369.664062 C 775.394531 369.648438 775.488281 369.628906 775.566406 369.609375 C 777.742188 369.691406 780.105469 370.117188 782.140625 370.878906 C 776.101562 372.039062 770.335938 373.632812 764.496094 375.570312 C 761.382812 376.605469 758.292969 377.863281 755.136719 378.730469 C 750.769531 379.929688 746.289062 380.679688 741.800781 381.257812 C 740.894531 381.332031 739.980469 381.496094 739.082031 381.613281 C 738.332031 379.464844 737.714844 377.308594 737.128906 375.128906 C 737.335938 375.246094 737.535156 375.390625 737.742188 375.527344 Z M 730.636719 343.660156 C 731.1875 352.78125 731.640625 362.128906 733.351562 371.113281 C 734.175781 375.460938 735.355469 379.808594 736.722656 384.011719 C 737.84375 387.464844 739.265625 390.988281 739.898438 394.566406 L 739.953125 394.910156 C 737.652344 401.140625 735.605469 407.347656 734.1875 413.839844 C 733.878906 415.351562 733.523438 416.839844 733.144531 418.332031 C 730.554688 408.839844 729.730469 401.113281 728.789062 391.414062 C 728.175781 385.0625 727.59375 378.75 727.757812 372.363281 C 727.875 367.773438 728.492188 363.144531 728.828125 358.550781 C 729.359375 350.734375 729.804688 342.917969 730.140625 335.089844 C 730.445312 337.933594 730.464844 340.808594 730.636719 343.660156 Z M 717.136719 298.007812 C 719.753906 297.773438 728.382812 297.355469 730.074219 298.707031 C 728.308594 299.503906 725.457031 299.214844 723.519531 299.222656 C 718.921875 299.25 714.304688 299.546875 709.707031 299.367188 C 711.949219 298.269531 714.695312 298.191406 717.136719 298.007812 Z M 707.488281 375.699219 C 710.132812 363.695312 710.03125 349.703125 710.476562 337.375 C 711.226562 340.363281 711.171875 348.453125 711.40625 351.921875 C 711.949219 359.980469 712.882812 368.042969 713.082031 376.113281 C 713.289062 384.421875 712.621094 392.972656 711.777344 401.222656 C 711.0625 408.234375 710.25 414.753906 707.859375 421.441406 C 707.722656 420.136719 707.441406 418.847656 707.199219 417.554688 C 705.421875 410.742188 703.683594 403.597656 700.417969 397.328125 C 701.394531 395.027344 702.101562 392.574219 702.941406 390.21875 C 704.652344 385.460938 706.402344 380.652344 707.488281 375.699219 Z M 699.175781 391.070312 L 698.207031 393.371094 C 695.582031 389.773438 693.066406 387.082031 689.371094 384.574219 C 690.839844 384.621094 692.40625 385.019531 693.863281 385.246094 C 696.199219 385.597656 698.535156 385.90625 700.878906 386.167969 Z M 679.140625 376.894531 C 682.183594 377.679688 685.261719 378.34375 688.359375 378.867188 C 694.53125 379.953125 699.03125 380.699219 704.417969 376.910156 C 703.859375 379.058594 703.132812 381.132812 702.410156 383.226562 L 702.238281 383.515625 C 700.996094 384.140625 686.753906 381.9375 684.574219 381.359375 C 682.402344 380.777344 680.363281 379.503906 678.199219 378.777344 C 671.882812 376.667969 665.570312 375.300781 658.972656 374.457031 C 660.511719 373.96875 662.023438 373.652344 663.625 373.386719 C 668.113281 372.933594 674.625 375.707031 679.140625 376.894531 Z M 645.066406 357.71875 C 649.25 364.332031 654.464844 368.261719 661.550781 371.429688 C 660.121094 371.875 658.617188 372.175781 657.160156 372.527344 C 652.34375 374.078125 650.125 373.597656 645.253906 373.042969 C 642.703125 368.929688 639.933594 361.910156 639.273438 357.09375 C 640.546875 355.769531 641.515625 354.53125 642.441406 352.933594 C 643.410156 354.394531 644.097656 356.195312 645.066406 357.71875 Z M 627.023438 358.351562 C 627.394531 358.507812 627.773438 358.640625 628.152344 358.777344 C 631.097656 359.792969 634.109375 359.140625 636.828125 357.828125 C 636.855469 357.835938 636.890625 357.828125 636.917969 357.84375 C 637.027344 357.90625 637.152344 357.960938 637.226562 358.0625 C 637.796875 358.8125 638.511719 361.65625 638.890625 362.691406 C 640.160156 366.167969 641.605469 369.554688 643.074219 372.953125 C 640.058594 372.664062 637.0625 372.273438 634.074219 371.804688 C 631.648438 371.40625 629.222656 370.988281 626.796875 370.554688 C 627.230469 366.496094 627.105469 362.417969 627.023438 358.351562 Z M 534.988281 348.667969 C 538.5625 335.960938 544.140625 323.832031 550.289062 312.175781 C 555.394531 302.492188 561.070312 292.328125 568.039062 283.851562 C 578.359375 271.316406 592.382812 259.839844 607.730469 254.1875 C 614.527344 251.675781 621.636719 250.292969 628.84375 249.601562 C 632.761719 249.230469 636.964844 249.277344 640.855469 249.773438 C 652.007812 251.222656 662.808594 256.371094 669.679688 265.417969 C 671.664062 268.027344 673.410156 270.761719 674.75 273.75 C 680.066406 285.582031 684.203125 307.292969 682.402344 320.199219 C 681.40625 327.382812 678.707031 333.859375 672.769531 338.316406 C 668.242188 341.710938 662.066406 343.578125 656.425781 342.753906 C 652.816406 342.230469 649.738281 340.398438 647.601562 337.4375 C 644.503906 333.136719 644.214844 327.472656 645.109375 322.417969 C 646.105469 316.792969 648.804688 311.53125 653.394531 308.015625 C 655.070312 306.738281 656.925781 305.753906 658.644531 304.539062 C 656.183594 304.855469 653.839844 305.398438 651.65625 306.632812 C 648.742188 308.28125 646.59375 310.898438 645.054688 313.832031 C 638.105469 327.148438 644.3125 338.976562 640.882812 351.3125 C 639.949219 344.855469 639.714844 338.296875 638.628906 331.867188 C 637.152344 323.089844 634.582031 314.730469 634.203125 305.769531 C 633.792969 296.207031 636.121094 288.480469 642.640625 281.386719 C 640.230469 282.375 638.195312 283.777344 636.464844 285.726562 C 630.273438 292.691406 630.488281 301.558594 631.03125 310.289062 C 626.941406 300.226562 625.84375 296.269531 627.222656 285.328125 C 622.941406 296.984375 628.824219 308.363281 632.753906 319.132812 C 634.273438 323.226562 635.476562 327.410156 636.347656 331.695312 C 637.398438 336.738281 639.296875 345.761719 638.664062 350.726562 C 638.511719 351.9375 638.113281 353.097656 637.414062 354.113281 C 636.519531 355.40625 635.214844 356.160156 633.660156 356.367188 C 631.613281 356.640625 629.257812 356.351562 627.59375 355.046875 C 624.742188 352.828125 623.65625 345.90625 622.53125 342.519531 C 620.53125 336.496094 617.0625 330.988281 615.515625 324.863281 C 613.667969 317.539062 613.585938 309.160156 613.957031 301.632812 C 614.195312 296.957031 614.664062 292.140625 614.167969 287.472656 C 613.632812 282.511719 612.210938 279.222656 608.253906 276.015625 L 608.796875 276.695312 C 615.082031 284.539062 611.902344 299.085938 611.414062 308.46875 C 611.199219 312.628906 611.40625 316.722656 611.722656 320.871094 C 606.390625 315.308594 597.136719 311.941406 590.257812 308.453125 C 584.5 305.535156 578.695312 302.140625 573.71875 297.992188 L 573.390625 297.71875 L 573.464844 298.070312 L 573.199219 297.683594 C 573.5 298.523438 574.75 299.375 575.429688 299.957031 C 579.683594 303.542969 584.761719 306.703125 589.625 309.414062 C 593.480469 311.566406 597.445312 313.523438 601.101562 316.023438 C 603.910156 317.945312 606.507812 320.316406 608.742188 322.871094 C 613.75 328.585938 616.546875 335.410156 619.253906 342.390625 C 610.335938 339.304688 601.539062 334.792969 591.960938 334.320312 C 585.566406 334.003906 580.523438 335.117188 575.71875 339.484375 C 578.160156 334.917969 580.851562 331.449219 584.582031 327.882812 C 582.246094 329.167969 580.007812 330.933594 578.226562 332.910156 C 574.195312 337.347656 571.238281 344.917969 571.589844 350.941406 C 571.609375 351.222656 571.625 351.496094 571.652344 351.777344 C 571.679688 352.058594 571.714844 352.328125 571.761719 352.609375 C 571.808594 352.882812 571.851562 353.160156 571.914062 353.433594 C 571.96875 353.707031 572.03125 353.976562 572.105469 354.25 C 572.179688 354.519531 572.25 354.78125 572.339844 355.054688 C 572.421875 355.316406 572.511719 355.582031 572.613281 355.84375 C 572.710938 356.105469 572.8125 356.359375 572.929688 356.621094 C 573.039062 356.875 573.15625 357.128906 573.28125 357.382812 C 573.410156 357.636719 573.535156 357.882812 573.671875 358.125 C 573.808594 358.371094 573.953125 358.605469 574.097656 358.839844 C 574.242188 359.078125 574.394531 359.3125 574.558594 359.539062 C 574.722656 359.765625 574.886719 359.992188 575.058594 360.207031 C 575.230469 360.425781 575.402344 360.644531 575.589844 360.851562 C 575.773438 361.058594 575.960938 361.269531 576.152344 361.46875 C 576.34375 361.667969 576.542969 361.867188 576.75 362.054688 C 576.949219 362.246094 577.15625 362.4375 577.375 362.617188 C 580.695312 365.507812 585.867188 367.535156 590.3125 367.109375 C 591.570312 366.992188 592.972656 366.585938 593.769531 365.542969 C 595.21875 363.660156 593.96875 359.011719 593.632812 356.804688 C 596.167969 360.273438 599.058594 363.921875 602.769531 366.195312 C 610.863281 371.152344 621.453125 372.191406 630.707031 373.207031 C 649.402344 375.253906 678.699219 376.222656 692.660156 390.417969 C 709.046875 407.082031 711.460938 463.097656 712.683594 486.691406 C 713.363281 497.960938 713.90625 509.238281 714.304688 520.515625 C 714.839844 534.664062 715.988281 548.9375 715.84375 563.085938 C 714.105469 563.601562 712.257812 563.976562 710.449219 564.15625 C 706.609375 564.527344 703.804688 563.613281 700.816406 561.175781 C 700.960938 555.667969 702.039062 550.214844 702.136719 544.699219 C 702.390625 523.1875 701.710938 501.703125 700.082031 480.253906 C 698.804688 461.429688 697.382812 432.746094 689.742188 415.6875 C 682.238281 398.929688 670.488281 393.296875 653.992188 387.816406 C 647.265625 385.589844 640.566406 383.324219 633.648438 381.757812 C 627.25 380.308594 620.730469 379.4375 614.347656 377.90625 C 606.789062 376.097656 599.855469 372.417969 592.277344 370.78125 C 586.375 369.492188 579.183594 370.300781 573.734375 368.171875 C 564.691406 364.636719 558.804688 354.65625 555.09375 346.207031 L 554.941406 346.222656 C 555.300781 348.144531 556.28125 350.21875 557.078125 352.011719 C 560.371094 359.464844 564.636719 364.554688 571.261719 369.203125 C 563.035156 369.078125 558.074219 365.417969 552.53125 359.730469 C 561.882812 374.511719 573.988281 370.859375 588.671875 372.574219 C 591.5625 372.90625 594.320312 373.730469 597.101562 374.546875 C 596.023438 375.207031 594.785156 376.058594 593.578125 376.429688 C 590.671875 377.328125 587.757812 375.988281 584.953125 377.691406 C 583.773438 378.40625 583.050781 379.503906 582.796875 380.859375 C 582.488281 382.527344 582.859375 384.175781 583.894531 385.515625 C 584.84375 386.730469 586.265625 387.582031 587.8125 387.71875 C 589.054688 387.828125 590.167969 387.402344 591.097656 386.59375 C 593.226562 384.765625 593.886719 382.210938 594.113281 379.527344 C 597.128906 378.386719 600.242188 377.445312 603.285156 376.378906 C 608.246094 378.199219 612.960938 379.808594 618.1875 380.753906 C 614.738281 383.785156 611.144531 386.648438 607.585938 389.554688 L 607.484375 389.167969 C 606.832031 386.695312 606.011719 385.398438 603.800781 384.113281 C 602.054688 383.476562 600.867188 383.296875 599.011719 383.542969 C 599.835938 383.941406 600.660156 384.328125 601.417969 384.835938 C 603.855469 386.449219 604.308594 388.695312 604.84375 391.367188 C 604.695312 391.613281 604.542969 391.855469 604.390625 392.09375 C 603.410156 393.570312 602.070312 394.890625 600.976562 396.296875 C 599.164062 398.613281 597.679688 401.59375 595.335938 403.414062 C 594.574219 404.011719 593.542969 404.265625 592.609375 404.429688 C 587.894531 405.226562 579.546875 400.886719 575.808594 398.25 C 567.226562 392.183594 563.40625 383.921875 561.640625 373.796875 C 561.578125 374.773438 561.558594 375.777344 561.628906 376.757812 C 562.597656 389.703125 568.085938 397.039062 577.527344 405.261719 C 573.925781 406.429688 570.375 407.816406 566.710938 408.796875 C 558.398438 411.015625 548.332031 411.558594 540.011719 409.195312 C 537.683594 408.53125 535.476562 407.472656 533.265625 406.503906 L 533.257812 406.566406 L 532.824219 406.359375 C 541.414062 411.957031 547.226562 412.21875 557.277344 412.246094 C 553.5625 414.421875 550.113281 416.746094 547.199219 419.964844 C 542.527344 425.117188 540.15625 432.382812 540.5 439.300781 L 540.734375 439.417969 C 541.027344 433.777344 543.253906 428.277344 546.71875 423.820312 C 552.558594 416.3125 562.308594 412.679688 570.964844 409.527344 C 574.875 408.105469 578.921875 406.59375 583.070312 406.097656 C 584.90625 405.871094 587.078125 405.75 588.855469 406.332031 C 594.214844 408.089844 599.09375 412.253906 603.847656 415.253906 C 606.019531 416.628906 608.417969 417.753906 610.445312 419.339844 C 607.050781 425.007812 600.386719 428.386719 594.230469 430.164062 C 591.769531 430.878906 589.109375 431.269531 586.71875 432.183594 C 586.203125 432.382812 585.695312 432.492188 585.449219 433.007812 C 585.65625 433.078125 585.710938 433.105469 585.964844 433.132812 C 592.628906 433.921875 604.851562 428.304688 609.910156 424.285156 C 608.371094 427.84375 597.960938 454.882812 597.84375 457.15625 C 597.835938 457.328125 598.097656 457.835938 598.167969 458.023438 C 595.210938 464.257812 582.761719 476.910156 576.769531 480.242188 C 571.398438 483.222656 566.375 483.414062 560.660156 481.3125 C 559.46875 480.867188 558.417969 480.027344 557.222656 479.683594 L 557.1875 479.800781 C 557.230469 479.871094 557.265625 479.945312 557.320312 480.007812 C 558.777344 481.792969 565.089844 483.894531 567.433594 483.992188 C 573.84375 484.285156 580.390625 480.941406 585.085938 476.800781 C 581.820312 481.839844 577.960938 487.183594 576.441406 493.0625 C 575.109375 498.195312 575.84375 503.234375 578.507812 507.796875 C 578.042969 506.402344 577.664062 505.035156 577.464844 503.585938 C 577.402344 503.125 577.347656 502.652344 577.320312 502.183594 C 577.285156 501.710938 577.265625 501.238281 577.265625 500.769531 C 577.265625 500.296875 577.273438 499.828125 577.300781 499.355469 C 577.328125 498.886719 577.375 498.414062 577.429688 497.953125 C 577.492188 497.480469 577.566406 497.019531 577.65625 496.558594 C 577.746094 496.09375 577.855469 495.632812 577.972656 495.179688 C 578.089844 494.726562 578.226562 494.273438 578.378906 493.832031 C 578.53125 493.386719 578.695312 492.941406 578.867188 492.507812 C 580.433594 488.632812 582.90625 485.371094 585.222656 481.9375 C 586.851562 479.484375 588.4375 477 590.003906 474.5 C 591.679688 471.839844 593.136719 469.101562 594.484375 466.257812 C 595.527344 464.066406 596.476562 461.730469 597.769531 459.671875 C 599.335938 457.191406 601.800781 455.308594 603.546875 452.90625 C 608.210938 446.484375 612.203125 439.628906 616.980469 433.296875 C 616.210938 436.894531 615.667969 440.617188 615.5625 444.292969 C 615.441406 448.269531 615.921875 452.410156 614.9375 456.285156 C 612.339844 466.476562 605.53125 480.242188 597.851562 487.390625 C 595.371094 489.699219 592.566406 491.421875 589.660156 493.132812 C 590.65625 492.835938 591.632812 492.488281 592.574219 492.054688 C 604.832031 486.449219 611.34375 472 615.859375 460.054688 C 616.503906 471.929688 613.605469 484.320312 610.617188 495.734375 C 609.648438 499.445312 608.066406 503.441406 607.601562 507.21875 C 608.191406 506.332031 608.34375 505.144531 608.734375 504.148438 C 611.984375 495.867188 614.773438 486.429688 616.402344 477.679688 C 617.101562 473.921875 617.355469 470.109375 617.816406 466.320312 C 618.910156 471.277344 619.96875 476.222656 621.507812 481.066406 C 623.882812 488.539062 629.269531 498.132812 628.796875 505.8125 C 628.460938 511.304688 625.710938 514.4375 621.78125 517.914062 C 623.085938 517.28125 624.332031 516.609375 625.445312 515.667969 C 635.160156 507.480469 628.460938 495.027344 624.894531 485.535156 C 622.59375 479.429688 620.234375 472.691406 620.839844 466.066406 C 621.253906 461.59375 628.433594 447.691406 631.972656 445.28125 C 632.535156 444.890625 633.394531 444.484375 634.09375 444.601562 C 634.019531 445.707031 631.613281 449.65625 631.03125 451.042969 C 630.0625 453.359375 629.386719 455.625 629.03125 458.117188 C 627.078125 471.875 634.671875 483.839844 638.195312 496.628906 C 637.253906 486.839844 632.554688 477.933594 631.1875 468.222656 C 630.425781 462.84375 630.652344 454.472656 634.191406 450 C 634.375 449.773438 634.5625 449.554688 634.761719 449.355469 C 634.972656 449.15625 635.1875 448.96875 635.414062 448.792969 C 635.648438 448.621094 635.886719 448.46875 636.140625 448.332031 C 636.390625 448.195312 636.65625 448.070312 636.917969 447.96875 C 638.25 447.445312 639.769531 447.398438 641.164062 447.09375 C 643.382812 446.601562 645.707031 445.824219 647.960938 445.570312 C 650.0625 445.324219 651.558594 445.871094 653.195312 447.210938 C 658.808594 451.792969 661.0625 461.066406 661.824219 467.90625 C 663.496094 482.84375 660.511719 498.339844 650.859375 510.253906 C 642.375 520.714844 627.882812 528.125 614.519531 529.4375 C 600.75 530.796875 588.683594 526.582031 578.082031 517.878906 C 570.574219 511.710938 564.011719 504.238281 558.054688 496.59375 C 541.503906 475.324219 533.792969 458.097656 531.148438 431.140625 C 528.6875 405.453125 527.988281 373.515625 534.988281 348.667969 Z M 624.949219 370.335938 C 623.746094 370.207031 622.542969 369.964844 621.347656 369.765625 C 619.039062 369.367188 616.757812 368.859375 614.5 368.226562 C 606.925781 366.078125 599.308594 362.347656 595.34375 355.164062 C 593.234375 351.339844 592.121094 345.632812 593.460938 341.40625 C 594.042969 339.574219 595.089844 338.386719 596.765625 337.5 C 601.664062 337.464844 613.949219 343.070312 617.90625 345.96875 C 624.359375 350.699219 623.78125 363.070312 624.949219 370.335938 Z M 591.179688 349.238281 C 590.023438 348.0625 588.855469 346.902344 587.449219 346.007812 C 585.070312 344.484375 582.851562 344.382812 580.171875 344.945312 C 577.738281 345.925781 576.261719 347.246094 574.648438 349.25 C 574.832031 346.550781 575.417969 344.140625 577.121094 341.957031 C 579.78125 338.535156 583.839844 337.445312 587.921875 336.921875 C 589.460938 336.765625 590.972656 336.820312 592.511719 336.886719 C 590.609375 341.222656 590.539062 344.566406 591.179688 349.238281 Z M 576.441406 349.964844 C 577.71875 347.933594 579.9375 346.882812 582.191406 346.386719 C 582.617188 346.386719 582.5625 346.378906 582.933594 346.414062 C 585.703125 346.710938 588.140625 348.269531 589.832031 350.460938 C 591.625 352.78125 593.164062 360.960938 592.71875 363.894531 C 592.648438 364.367188 592.503906 364.609375 592.113281 364.863281 C 590.738281 365.769531 588.3125 365.261719 586.78125 364.980469 C 585.667969 364.628906 584.542969 364.230469 583.511719 363.679688 C 580.34375 362.003906 576.777344 358.804688 575.773438 355.253906 C 575.273438 353.523438 575.472656 351.503906 576.441406 349.964844 Z M 592.148438 381.730469 C 591.859375 383.089844 590.621094 384.113281 589.53125 384.847656 C 588.78125 385 588.148438 385.164062 587.394531 384.917969 C 586.734375 384.703125 586.191406 384.175781 585.910156 383.542969 C 585.53125 382.691406 585.59375 381.683594 585.976562 380.84375 C 586.472656 379.753906 587.25 379.230469 588.347656 378.867188 C 588.816406 378.867188 589.269531 378.921875 589.730469 379.003906 C 590.59375 379.148438 591.46875 379.402344 591.941406 380.207031 C 592.203125 380.6875 592.257812 381.203125 592.148438 381.730469 Z M 592.148438 381.730469 " fill-opacity="1" fill-rule="nonzero"/></g><path fill="#030303" d="M 815.03125 281.921875 L 814.941406 282.265625 L 815.066406 281.941406 Z M 815.03125 281.921875 " fill-opacity="1" fill-rule="nonzero"/></svg>