<svg xmlns="http://www.w3.org/2000/svg" xmlns:xlink="http://www.w3.org/1999/xlink" width="1000" zoomAndPan="magnify" viewBox="0 0 750 749.999995" height="1000" preserveAspectRatio="xMidYMid meet" version="1.0"><defs><g/><clipPath id="ea5e70681d"><path d="M 209 319 L 215 319 L 215 326 L 209 326 Z M 209 319 " clip-rule="nonzero"/></clipPath><clipPath id="3b847e326d"><path d="M 215.578125 321.125 L 211.066406 325.925781 L 208.570312 323.578125 L 213.078125 318.777344 Z M 215.578125 321.125 " clip-rule="nonzero"/></clipPath><clipPath id="5e2f222b50"><path d="M 214.40625 322.375 L 212.246094 324.671875 C 211.597656 325.363281 210.511719 325.398438 209.820312 324.75 C 209.132812 324.101562 209.097656 323.015625 209.746094 322.324219 L 211.90625 320.027344 C 212.554688 319.335938 213.640625 319.304688 214.328125 319.953125 C 215.019531 320.601562 215.054688 321.683594 214.40625 322.375 Z M 214.40625 322.375 " clip-rule="nonzero"/></clipPath><clipPath id="3f627579d4"><path d="M 0.0390625 0.199219 L 6 0.199219 L 6 6.441406 L 0.0390625 6.441406 Z M 0.0390625 0.199219 " clip-rule="nonzero"/></clipPath><clipPath id="351efeeed1"><path d="M 6.578125 2.125 L 2.066406 6.925781 L -0.429688 4.578125 L 4.078125 -0.222656 Z M 6.578125 2.125 " clip-rule="nonzero"/></clipPath><clipPath id="41e5cac486"><path d="M 5.40625 3.375 L 3.246094 5.671875 C 2.597656 6.363281 1.511719 6.398438 0.820312 5.75 C 0.132812 5.101562 0.0976562 4.015625 0.746094 3.324219 L 2.90625 1.027344 C 3.554688 0.335938 4.640625 0.304688 5.328125 0.953125 C 6.019531 1.601562 6.054688 2.683594 5.40625 3.375 Z M 5.40625 3.375 " clip-rule="nonzero"/></clipPath><clipPath id="1d8687457b"><rect x="0" width="6" y="0" height="7"/></clipPath><clipPath id="f7240265ec"><path d="M 204 324 L 211 324 L 211 331 L 204 331 Z M 204 324 " clip-rule="nonzero"/></clipPath><clipPath id="4173c3718c"><path d="M 211.070312 325.921875 L 206.558594 330.722656 L 204.0625 328.378906 L 208.574219 323.574219 Z M 211.070312 325.921875 " clip-rule="nonzero"/></clipPath><clipPath id="88ba6dd92e"><path d="M 209.898438 327.171875 L 207.738281 329.46875 C 207.089844 330.160156 206.003906 330.195312 205.316406 329.546875 C 204.625 328.898438 204.589844 327.8125 205.238281 327.125 L 207.398438 324.824219 C 208.046875 324.132812 209.132812 324.101562 209.820312 324.75 C 210.511719 325.398438 210.546875 326.480469 209.898438 327.171875 Z M 209.898438 327.171875 " clip-rule="nonzero"/></clipPath><clipPath id="fad6ded8a4"><path d="M 0.480469 0 L 6.71875 0 L 6.71875 6.238281 L 0.480469 6.238281 Z M 0.480469 0 " clip-rule="nonzero"/></clipPath><clipPath id="718ce07289"><path d="M 7.070312 1.921875 L 2.558594 6.722656 L 0.0625 4.378906 L 4.574219 -0.425781 Z M 7.070312 1.921875 " clip-rule="nonzero"/></clipPath><clipPath id="99928563f6"><path d="M 5.898438 3.171875 L 3.738281 5.46875 C 3.089844 6.160156 2.003906 6.195312 1.316406 5.546875 C 0.625 4.898438 0.589844 3.8125 1.238281 3.125 L 3.398438 0.824219 C 4.046875 0.132812 5.132812 0.101562 5.820312 0.75 C 6.511719 1.398438 6.546875 2.480469 5.898438 3.171875 Z M 5.898438 3.171875 " clip-rule="nonzero"/></clipPath><clipPath id="07c7d4e53f"><rect x="0" width="7" y="0" height="7"/></clipPath><clipPath id="a5895372cb"><path d="M 200 329 L 206 329 L 206 335 L 200 335 Z M 200 329 " clip-rule="nonzero"/></clipPath><clipPath id="1430eaea3d"><path d="M 206.5625 330.71875 L 202.054688 335.523438 L 199.554688 333.175781 L 204.066406 328.371094 Z M 206.5625 330.71875 " clip-rule="nonzero"/></clipPath><clipPath id="adec3dd7ba"><path d="M 205.390625 331.96875 L 203.230469 334.269531 C 202.582031 334.957031 201.496094 334.992188 200.808594 334.34375 C 200.117188 333.695312 200.085938 332.609375 200.734375 331.921875 L 202.890625 329.621094 C 203.539062 328.933594 204.625 328.898438 205.316406 329.546875 C 206.003906 330.195312 206.039062 331.277344 205.390625 331.96875 Z M 205.390625 331.96875 " clip-rule="nonzero"/></clipPath><clipPath id="52775deac5"><path d="M 0 0 L 6 0 L 6 6 L 0 6 Z M 0 0 " clip-rule="nonzero"/></clipPath><clipPath id="a7c84b8714"><path d="M 6.5625 1.71875 L 2.054688 6.523438 L -0.445312 4.175781 L 4.066406 -0.628906 Z M 6.5625 1.71875 " clip-rule="nonzero"/></clipPath><clipPath id="b74ff7e017"><path d="M 5.390625 2.96875 L 3.230469 5.269531 C 2.582031 5.957031 1.496094 5.992188 0.808594 5.34375 C 0.117188 4.695312 0.0859375 3.609375 0.734375 2.921875 L 2.890625 0.621094 C 3.539062 -0.0664062 4.625 -0.101562 5.316406 0.546875 C 6.003906 1.195312 6.039062 2.277344 5.390625 2.96875 Z M 5.390625 2.96875 " clip-rule="nonzero"/></clipPath><clipPath id="c9e9ba99e2"><rect x="0" width="6" y="0" height="6"/></clipPath><clipPath id="fdcc8a1fda"><path d="M 195 333 L 202 333 L 202 340 L 195 340 Z M 195 333 " clip-rule="nonzero"/></clipPath><clipPath id="e7f8b33e18"><path d="M 202.058594 335.515625 L 197.546875 340.320312 L 195.046875 337.972656 L 199.558594 333.167969 Z M 202.058594 335.515625 " clip-rule="nonzero"/></clipPath><clipPath id="eb75af3472"><path d="M 200.882812 336.765625 L 198.722656 339.066406 C 198.074219 339.753906 196.992188 339.789062 196.300781 339.140625 C 195.609375 338.492188 195.578125 337.40625 196.226562 336.71875 L 198.386719 334.417969 C 199.035156 333.730469 200.117188 333.695312 200.808594 334.34375 C 201.496094 334.992188 201.53125 336.078125 200.882812 336.765625 Z M 200.882812 336.765625 " clip-rule="nonzero"/></clipPath><clipPath id="9ac47b09ed"><path d="M 0.359375 0.601562 L 6.601562 0.601562 L 6.601562 6.839844 L 0.359375 6.839844 Z M 0.359375 0.601562 " clip-rule="nonzero"/></clipPath><clipPath id="f31908667a"><path d="M 7.058594 2.515625 L 2.546875 7.320312 L 0.046875 4.972656 L 4.558594 0.167969 Z M 7.058594 2.515625 " clip-rule="nonzero"/></clipPath><clipPath id="8d5a58f42f"><path d="M 5.882812 3.765625 L 3.722656 6.066406 C 3.074219 6.753906 1.992188 6.789062 1.300781 6.140625 C 0.609375 5.492188 0.578125 4.40625 1.226562 3.71875 L 3.386719 1.417969 C 4.035156 0.730469 5.117188 0.695312 5.808594 1.34375 C 6.496094 1.992188 6.53125 3.078125 5.882812 3.765625 Z M 5.882812 3.765625 " clip-rule="nonzero"/></clipPath><clipPath id="da80ad10e9"><rect x="0" width="7" y="0" height="7"/></clipPath><clipPath id="910130e6c5"><path d="M 191 338 L 197 338 L 197 345 L 191 345 Z M 191 338 " clip-rule="nonzero"/></clipPath><clipPath id="dceb1d9b09"><path d="M 197.550781 340.3125 L 193.039062 345.117188 L 190.539062 342.769531 L 195.050781 337.964844 Z M 197.550781 340.3125 " clip-rule="nonzero"/></clipPath><clipPath id="cbbfa5b3be"><path d="M 196.375 341.5625 L 194.21875 343.863281 C 193.570312 344.550781 192.484375 344.585938 191.792969 343.9375 C 191.105469 343.289062 191.070312 342.203125 191.71875 341.515625 L 193.878906 339.214844 C 194.527344 338.527344 195.609375 338.492188 196.300781 339.140625 C 196.992188 339.789062 197.023438 340.875 196.375 341.5625 Z M 196.375 341.5625 " clip-rule="nonzero"/></clipPath><clipPath id="72e4c507c5"><path d="M 0.0390625 0.398438 L 6 0.398438 L 6 6.640625 L 0.0390625 6.640625 Z M 0.0390625 0.398438 " clip-rule="nonzero"/></clipPath><clipPath id="f89190c574"><path d="M 6.550781 2.3125 L 2.039062 7.117188 L -0.460938 4.769531 L 4.050781 -0.0351562 Z M 6.550781 2.3125 " clip-rule="nonzero"/></clipPath><clipPath id="98d74952d3"><path d="M 5.375 3.5625 L 3.21875 5.863281 C 2.570312 6.550781 1.484375 6.585938 0.792969 5.9375 C 0.105469 5.289062 0.0703125 4.203125 0.71875 3.515625 L 2.878906 1.214844 C 3.527344 0.527344 4.609375 0.492188 5.300781 1.140625 C 5.992188 1.789062 6.023438 2.875 5.375 3.5625 Z M 5.375 3.5625 " clip-rule="nonzero"/></clipPath><clipPath id="fb98a4832b"><rect x="0" width="6" y="0" height="7"/></clipPath><clipPath id="8811616a07"><path d="M 186 343 L 193 343 L 193 350 L 186 350 Z M 186 343 " clip-rule="nonzero"/></clipPath><clipPath id="fbf3fc81b2"><path d="M 193.042969 345.109375 L 188.53125 349.914062 L 186.035156 347.566406 L 190.542969 342.765625 Z M 193.042969 345.109375 " clip-rule="nonzero"/></clipPath><clipPath id="c7a95396ce"><path d="M 191.871094 346.359375 L 189.710938 348.660156 C 189.0625 349.347656 187.976562 349.382812 187.285156 348.734375 C 186.597656 348.085938 186.5625 347 187.210938 346.3125 L 189.371094 344.011719 C 190.019531 343.324219 191.105469 343.289062 191.792969 343.9375 C 192.484375 344.585938 192.519531 345.671875 191.871094 346.359375 Z M 191.871094 346.359375 " clip-rule="nonzero"/></clipPath><clipPath id="db71c03123"><path d="M 0.480469 0.199219 L 6.71875 0.199219 L 6.71875 6.441406 L 0.480469 6.441406 Z M 0.480469 0.199219 " clip-rule="nonzero"/></clipPath><clipPath id="fe27681436"><path d="M 7.042969 2.109375 L 2.53125 6.914062 L 0.0351562 4.566406 L 4.542969 -0.234375 Z M 7.042969 2.109375 " clip-rule="nonzero"/></clipPath><clipPath id="2e33a229ec"><path d="M 5.871094 3.359375 L 3.710938 5.660156 C 3.0625 6.347656 1.976562 6.382812 1.285156 5.734375 C 0.597656 5.085938 0.5625 4 1.210938 3.3125 L 3.371094 1.011719 C 4.019531 0.324219 5.105469 0.289062 5.792969 0.9375 C 6.484375 1.585938 6.519531 2.671875 5.871094 3.359375 Z M 5.871094 3.359375 " clip-rule="nonzero"/></clipPath><clipPath id="6bbbfc6f9b"><rect x="0" width="7" y="0" height="7"/></clipPath><clipPath id="38fc01801a"><path d="M 182 348 L 188 348 L 188 354 L 182 354 Z M 182 348 " clip-rule="nonzero"/></clipPath><clipPath id="7fb8c71c94"><path d="M 188.535156 349.90625 L 184.023438 354.710938 L 181.527344 352.363281 L 186.039062 347.5625 Z M 188.535156 349.90625 " clip-rule="nonzero"/></clipPath><clipPath id="48626b023b"><path d="M 187.363281 351.15625 L 185.203125 353.457031 C 184.554688 354.144531 183.46875 354.179688 182.78125 353.53125 C 182.089844 352.882812 182.054688 351.796875 182.703125 351.109375 L 184.863281 348.808594 C 185.511719 348.121094 186.597656 348.085938 187.285156 348.734375 C 187.976562 349.382812 188.011719 350.46875 187.363281 351.15625 Z M 187.363281 351.15625 " clip-rule="nonzero"/></clipPath><clipPath id="ad2e88d8f1"><path d="M 0 0 L 6 0 L 6 6 L 0 6 Z M 0 0 " clip-rule="nonzero"/></clipPath><clipPath id="4bb1f61839"><path d="M 6.535156 1.90625 L 2.023438 6.710938 L -0.472656 4.363281 L 4.039062 -0.4375 Z M 6.535156 1.90625 " clip-rule="nonzero"/></clipPath><clipPath id="9078453600"><path d="M 5.363281 3.15625 L 3.203125 5.457031 C 2.554688 6.144531 1.46875 6.179688 0.78125 5.53125 C 0.0898438 4.882812 0.0546875 3.796875 0.703125 3.109375 L 2.863281 0.808594 C 3.511719 0.121094 4.597656 0.0859375 5.285156 0.734375 C 5.976562 1.382812 6.011719 2.46875 5.363281 3.15625 Z M 5.363281 3.15625 " clip-rule="nonzero"/></clipPath><clipPath id="ece14bd0c1"><rect x="0" width="6" y="0" height="6"/></clipPath><clipPath id="cd890d8394"><path d="M 213 312 L 223 312 L 223 322 L 213 322 Z M 213 312 " clip-rule="nonzero"/></clipPath><clipPath id="31a2eb6cb6"><path d="M 221.980469 311.929688 L 222.679688 321.058594 L 213.550781 321.753906 L 212.851562 312.625 Z M 221.980469 311.929688 " clip-rule="nonzero"/></clipPath><clipPath id="d82454d04f"><path d="M 222.332031 316.492188 C 222.136719 313.972656 219.9375 312.085938 217.417969 312.277344 C 214.894531 312.46875 213.007812 314.667969 213.199219 317.191406 C 213.394531 319.710938 215.59375 321.597656 218.113281 321.40625 C 220.636719 321.214844 222.523438 319.015625 222.332031 316.492188 Z M 222.332031 316.492188 " clip-rule="nonzero"/></clipPath><clipPath id="da84e90537"><path d="M 0 0 L 9.71875 0 L 9.71875 9.601562 L 0 9.601562 Z M 0 0 " clip-rule="nonzero"/></clipPath><clipPath id="b60089e02e"><path d="M 8.980469 -0.0703125 L 9.679688 9.058594 L 0.550781 9.753906 L -0.148438 0.625 Z M 8.980469 -0.0703125 " clip-rule="nonzero"/></clipPath><clipPath id="30814edc1c"><path d="M 9.332031 4.492188 C 9.136719 1.972656 6.9375 0.0859375 4.417969 0.277344 C 1.894531 0.46875 0.0078125 2.667969 0.199219 5.191406 C 0.394531 7.710938 2.59375 9.597656 5.113281 9.40625 C 7.636719 9.214844 9.523438 7.015625 9.332031 4.492188 Z M 9.332031 4.492188 " clip-rule="nonzero"/></clipPath><clipPath id="2d09ccfceb"><rect x="0" width="10" y="0" height="10"/></clipPath><clipPath id="65e316fecd"><path d="M 184.40625 309.722656 L 193.5625 309.722656 L 193.5625 318.878906 L 184.40625 318.878906 Z M 184.40625 309.722656 " clip-rule="nonzero"/></clipPath><clipPath id="a2c7c22276"><path d="M 188.984375 309.722656 C 186.457031 309.722656 184.40625 311.773438 184.40625 314.300781 C 184.40625 316.828125 186.457031 318.878906 188.984375 318.878906 C 191.511719 318.878906 193.5625 316.828125 193.5625 314.300781 C 193.5625 311.773438 191.511719 309.722656 188.984375 309.722656 Z M 188.984375 309.722656 " clip-rule="nonzero"/></clipPath><clipPath id="9ad42f77de"><path d="M 0.40625 0.722656 L 9.5625 0.722656 L 9.5625 9.878906 L 0.40625 9.878906 Z M 0.40625 0.722656 " clip-rule="nonzero"/></clipPath><clipPath id="9a11c4e2a7"><path d="M 4.984375 0.722656 C 2.457031 0.722656 0.40625 2.773438 0.40625 5.300781 C 0.40625 7.828125 2.457031 9.878906 4.984375 9.878906 C 7.511719 9.878906 9.5625 7.828125 9.5625 5.300781 C 9.5625 2.773438 7.511719 0.722656 4.984375 0.722656 Z M 4.984375 0.722656 " clip-rule="nonzero"/></clipPath><clipPath id="8bf8daa8bf"><rect x="0" width="10" y="0" height="10"/></clipPath><clipPath id="d0c06c96ce"><path d="M 179.855469 338.582031 L 198.109375 338.582031 L 198.109375 356.835938 L 179.855469 356.835938 Z M 179.855469 338.582031 " clip-rule="nonzero"/></clipPath><clipPath id="1686b17147"><path d="M 188.984375 338.582031 C 183.941406 338.582031 179.855469 342.667969 179.855469 347.707031 C 179.855469 352.75 183.941406 356.835938 188.984375 356.835938 C 194.023438 356.835938 198.109375 352.75 198.109375 347.707031 C 198.109375 342.667969 194.023438 338.582031 188.984375 338.582031 Z M 188.984375 338.582031 " clip-rule="nonzero"/></clipPath><clipPath id="196fae262d"><path d="M 0.855469 0.582031 L 19.109375 0.582031 L 19.109375 18.835938 L 0.855469 18.835938 Z M 0.855469 0.582031 " clip-rule="nonzero"/></clipPath><clipPath id="be514bcdf3"><path d="M 9.984375 0.582031 C 4.941406 0.582031 0.855469 4.667969 0.855469 9.707031 C 0.855469 14.75 4.941406 18.835938 9.984375 18.835938 C 15.023438 18.835938 19.109375 14.75 19.109375 9.707031 C 19.109375 4.667969 15.023438 0.582031 9.984375 0.582031 Z M 9.984375 0.582031 " clip-rule="nonzero"/></clipPath><clipPath id="a432808848"><rect x="0" width="20" y="0" height="19"/></clipPath><clipPath id="5e46a7a586"><path d="M 184.40625 378.699219 L 193.5625 378.699219 L 193.5625 387.855469 L 184.40625 387.855469 Z M 184.40625 378.699219 " clip-rule="nonzero"/></clipPath><clipPath id="11db2727c0"><path d="M 188.984375 378.699219 C 186.457031 378.699219 184.40625 380.75 184.40625 383.277344 C 184.40625 385.804688 186.457031 387.855469 188.984375 387.855469 C 191.511719 387.855469 193.5625 385.804688 193.5625 383.277344 C 193.5625 380.75 191.511719 378.699219 188.984375 378.699219 Z M 188.984375 378.699219 " clip-rule="nonzero"/></clipPath><clipPath id="021e5c2b57"><path d="M 0.40625 0.699219 L 9.5625 0.699219 L 9.5625 9.855469 L 0.40625 9.855469 Z M 0.40625 0.699219 " clip-rule="nonzero"/></clipPath><clipPath id="3ccfa12b3f"><path d="M 4.984375 0.699219 C 2.457031 0.699219 0.40625 2.75 0.40625 5.277344 C 0.40625 7.804688 2.457031 9.855469 4.984375 9.855469 C 7.511719 9.855469 9.5625 7.804688 9.5625 5.277344 C 9.5625 2.75 7.511719 0.699219 4.984375 0.699219 Z M 4.984375 0.699219 " clip-rule="nonzero"/></clipPath><clipPath id="5de4b008f6"><rect x="0" width="10" y="0" height="10"/></clipPath><clipPath id="66a5d7122d"><path d="M 149.976562 342.652344 L 159.132812 342.652344 L 159.132812 351.808594 L 149.976562 351.808594 Z M 149.976562 342.652344 " clip-rule="nonzero"/></clipPath><clipPath id="43195e3a20"><path d="M 154.554688 342.652344 C 152.027344 342.652344 149.976562 344.699219 149.976562 347.230469 C 149.976562 349.757812 152.027344 351.808594 154.554688 351.808594 C 157.082031 351.808594 159.132812 349.757812 159.132812 347.230469 C 159.132812 344.699219 157.082031 342.652344 154.554688 342.652344 Z M 154.554688 342.652344 " clip-rule="nonzero"/></clipPath><clipPath id="47e92c7cd2"><path d="M 0.976562 0.652344 L 10.132812 0.652344 L 10.132812 9.808594 L 0.976562 9.808594 Z M 0.976562 0.652344 " clip-rule="nonzero"/></clipPath><clipPath id="1cd0fab804"><path d="M 5.554688 0.652344 C 3.027344 0.652344 0.976562 2.699219 0.976562 5.230469 C 0.976562 7.757812 3.027344 9.808594 5.554688 9.808594 C 8.082031 9.808594 10.132812 7.757812 10.132812 5.230469 C 10.132812 2.699219 8.082031 0.652344 5.554688 0.652344 Z M 5.554688 0.652344 " clip-rule="nonzero"/></clipPath><clipPath id="e84b225ed3"><rect x="0" width="11" y="0" height="10"/></clipPath><clipPath id="439c7c224e"><path d="M 218.105469 342.652344 L 227.261719 342.652344 L 227.261719 351.808594 L 218.105469 351.808594 Z M 218.105469 342.652344 " clip-rule="nonzero"/></clipPath><clipPath id="149b907812"><path d="M 222.683594 342.652344 C 220.15625 342.652344 218.105469 344.699219 218.105469 347.230469 C 218.105469 349.757812 220.15625 351.808594 222.683594 351.808594 C 225.210938 351.808594 227.261719 349.757812 227.261719 347.230469 C 227.261719 344.699219 225.210938 342.652344 222.683594 342.652344 Z M 222.683594 342.652344 " clip-rule="nonzero"/></clipPath><clipPath id="41d8f34b6a"><path d="M 0.105469 0.652344 L 9.261719 0.652344 L 9.261719 9.808594 L 0.105469 9.808594 Z M 0.105469 0.652344 " clip-rule="nonzero"/></clipPath><clipPath id="67fdfd9ff1"><path d="M 4.683594 0.652344 C 2.15625 0.652344 0.105469 2.699219 0.105469 5.230469 C 0.105469 7.757812 2.15625 9.808594 4.683594 9.808594 C 7.210938 9.808594 9.261719 7.757812 9.261719 5.230469 C 9.261719 2.699219 7.210938 0.652344 4.683594 0.652344 Z M 4.683594 0.652344 " clip-rule="nonzero"/></clipPath><clipPath id="dabc833e6a"><rect x="0" width="10" y="0" height="10"/></clipPath><clipPath id="28814765fb"><path d="M 152.59375 375.101562 L 161.75 375.101562 L 161.75 384.257812 L 152.59375 384.257812 Z M 152.59375 375.101562 " clip-rule="nonzero"/></clipPath><clipPath id="e8031e54d8"><path d="M 157.171875 375.101562 C 154.644531 375.101562 152.59375 377.148438 152.59375 379.679688 C 152.59375 382.207031 154.644531 384.257812 157.171875 384.257812 C 159.699219 384.257812 161.75 382.207031 161.75 379.679688 C 161.75 377.148438 159.699219 375.101562 157.171875 375.101562 Z M 157.171875 375.101562 " clip-rule="nonzero"/></clipPath><clipPath id="dc2ce23d23"><path d="M 0.59375 0.101562 L 9.75 0.101562 L 9.75 9.257812 L 0.59375 9.257812 Z M 0.59375 0.101562 " clip-rule="nonzero"/></clipPath><clipPath id="039550f238"><path d="M 5.171875 0.101562 C 2.644531 0.101562 0.59375 2.148438 0.59375 4.679688 C 0.59375 7.207031 2.644531 9.257812 5.171875 9.257812 C 7.699219 9.257812 9.75 7.207031 9.75 4.679688 C 9.75 2.148438 7.699219 0.101562 5.171875 0.101562 Z M 5.171875 0.101562 " clip-rule="nonzero"/></clipPath><clipPath id="cca9cdb585"><rect x="0" width="10" y="0" height="10"/></clipPath><clipPath id="de78e0259f"><path d="M 0.359375 4 L 12 4 L 12 19 L 0.359375 19 Z M 0.359375 4 " clip-rule="nonzero"/></clipPath><clipPath id="0546a7bbb2"><rect x="0" width="305" y="0" height="23"/></clipPath><clipPath id="a9e766df4a"><rect x="0" width="250" y="0" height="82"/></clipPath><clipPath id="fc7cce159b"><path d="M 247 246 L 567 246 L 567 566 L 247 566 Z M 247 246 " clip-rule="nonzero"/></clipPath><clipPath id="b027669743"><path d="M 566.457031 406.011719 L 406.824219 565.644531 L 247.195312 406.011719 L 406.824219 246.382812 Z M 566.457031 406.011719 " clip-rule="nonzero"/></clipPath><clipPath id="f85479ef70"><path d="M 2 157 L 318 157 L 318 163 L 2 163 Z M 2 157 " clip-rule="nonzero"/></clipPath><clipPath id="c5ac31e8f0"><path d="M 319.457031 160.011719 L 159.824219 319.644531 L 0.195312 160.011719 L 159.824219 0.382812 Z M 319.457031 160.011719 " clip-rule="nonzero"/></clipPath><clipPath id="265c11d879"><path d="M 159.777344 0.335938 L 0.148438 159.964844 L 159.777344 319.59375 L 319.40625 159.964844 Z M 159.777344 0.335938 " clip-rule="nonzero"/></clipPath><clipPath id="a52453e4d0"><path d="M 159.777344 0.335938 L 0.148438 159.964844 L 159.777344 319.59375 L 319.40625 159.964844 Z M 159.777344 0.335938 " clip-rule="nonzero"/></clipPath><clipPath id="1fe60e2d47"><path d="M 317.023438 157.582031 L 316.925781 162.542969 L 2.625 162.542969 L 2.527344 157.582031 Z M 317.023438 157.582031 " clip-rule="nonzero"/></clipPath><linearGradient x1="-0.000000000000014211" gradientTransform="matrix(-0.972467, 0.972467, 0.972467, 0.972467, 159.776283, 0.334432)" y1="82.112999" x2="164.249997" gradientUnits="userSpaceOnUse" y2="82.112999" id="fdc9d04985"><stop stop-opacity="1" stop-color="rgb(100%, 100%, 100%)" offset="0"/><stop stop-opacity="1" stop-color="rgb(99.519348%, 99.519348%, 99.519348%)" offset="0.00390625"/><stop stop-opacity="1" stop-color="rgb(99.038696%, 99.038696%, 99.038696%)" offset="0.0078125"/><stop stop-opacity="1" stop-color="rgb(98.558044%, 98.558044%, 98.558044%)" offset="0.0117188"/><stop stop-opacity="1" stop-color="rgb(98.077393%, 98.077393%, 98.077393%)" offset="0.015625"/><stop stop-opacity="1" stop-color="rgb(97.596741%, 97.596741%, 97.596741%)" offset="0.0195313"/><stop stop-opacity="1" stop-color="rgb(97.116089%, 97.116089%, 97.116089%)" offset="0.0234375"/><stop stop-opacity="1" stop-color="rgb(96.635437%, 96.635437%, 96.635437%)" offset="0.0273438"/><stop stop-opacity="1" stop-color="rgb(96.154785%, 96.154785%, 96.154785%)" offset="0.03125"/><stop stop-opacity="1" stop-color="rgb(95.674133%, 95.674133%, 95.674133%)" offset="0.0351562"/><stop stop-opacity="1" stop-color="rgb(95.195007%, 95.195007%, 95.195007%)" offset="0.0390625"/><stop stop-opacity="1" stop-color="rgb(94.714355%, 94.714355%, 94.714355%)" offset="0.0429688"/><stop stop-opacity="1" stop-color="rgb(94.233704%, 94.233704%, 94.233704%)" offset="0.046875"/><stop stop-opacity="1" stop-color="rgb(93.753052%, 93.753052%, 93.753052%)" offset="0.0507812"/><stop stop-opacity="1" stop-color="rgb(93.2724%, 93.2724%, 93.2724%)" offset="0.0546875"/><stop stop-opacity="1" stop-color="rgb(92.791748%, 92.791748%, 92.791748%)" offset="0.0585937"/><stop stop-opacity="1" stop-color="rgb(92.311096%, 92.311096%, 92.311096%)" offset="0.0625"/><stop stop-opacity="1" stop-color="rgb(91.830444%, 91.830444%, 91.830444%)" offset="0.0664062"/><stop stop-opacity="1" stop-color="rgb(91.349792%, 91.349792%, 91.349792%)" offset="0.0703125"/><stop stop-opacity="1" stop-color="rgb(90.869141%, 90.869141%, 90.869141%)" offset="0.0742188"/><stop stop-opacity="1" stop-color="rgb(90.390015%, 90.390015%, 90.390015%)" offset="0.078125"/><stop stop-opacity="1" stop-color="rgb(89.909363%, 89.909363%, 89.909363%)" offset="0.0820312"/><stop stop-opacity="1" stop-color="rgb(89.428711%, 89.428711%, 89.428711%)" offset="0.0859375"/><stop stop-opacity="1" stop-color="rgb(88.948059%, 88.948059%, 88.948059%)" offset="0.0898438"/><stop stop-opacity="1" stop-color="rgb(88.467407%, 88.467407%, 88.467407%)" offset="0.09375"/><stop stop-opacity="1" stop-color="rgb(87.986755%, 87.986755%, 87.986755%)" offset="0.0976562"/><stop stop-opacity="1" stop-color="rgb(87.506104%, 87.506104%, 87.506104%)" offset="0.101562"/><stop stop-opacity="1" stop-color="rgb(87.025452%, 87.025452%, 87.025452%)" offset="0.105469"/><stop stop-opacity="1" stop-color="rgb(86.5448%, 86.5448%, 86.5448%)" offset="0.109375"/><stop stop-opacity="1" stop-color="rgb(86.064148%, 86.064148%, 86.064148%)" offset="0.113281"/><stop stop-opacity="1" stop-color="rgb(85.585022%, 85.585022%, 85.585022%)" offset="0.117187"/><stop stop-opacity="1" stop-color="rgb(85.10437%, 85.10437%, 85.10437%)" offset="0.121094"/><stop stop-opacity="1" stop-color="rgb(84.623718%, 84.623718%, 84.623718%)" offset="0.125"/><stop stop-opacity="1" stop-color="rgb(84.143066%, 84.143066%, 84.143066%)" offset="0.128906"/><stop stop-opacity="1" stop-color="rgb(83.662415%, 83.662415%, 83.662415%)" offset="0.132812"/><stop stop-opacity="1" stop-color="rgb(83.181763%, 83.181763%, 83.181763%)" offset="0.136719"/><stop stop-opacity="1" stop-color="rgb(82.701111%, 82.701111%, 82.701111%)" offset="0.140625"/><stop stop-opacity="1" stop-color="rgb(82.220459%, 82.220459%, 82.220459%)" offset="0.144531"/><stop stop-opacity="1" stop-color="rgb(81.739807%, 81.739807%, 81.739807%)" offset="0.148438"/><stop stop-opacity="1" stop-color="rgb(81.259155%, 81.259155%, 81.259155%)" offset="0.152344"/><stop stop-opacity="1" stop-color="rgb(80.780029%, 80.780029%, 80.780029%)" offset="0.15625"/><stop stop-opacity="1" stop-color="rgb(80.299377%, 80.299377%, 80.299377%)" offset="0.160156"/><stop stop-opacity="1" stop-color="rgb(79.818726%, 79.818726%, 79.818726%)" offset="0.164063"/><stop stop-opacity="1" stop-color="rgb(79.338074%, 79.338074%, 79.338074%)" offset="0.167969"/><stop stop-opacity="1" stop-color="rgb(78.857422%, 78.857422%, 78.857422%)" offset="0.171875"/><stop stop-opacity="1" stop-color="rgb(78.37677%, 78.37677%, 78.37677%)" offset="0.175781"/><stop stop-opacity="1" stop-color="rgb(77.896118%, 77.896118%, 77.896118%)" offset="0.179688"/><stop stop-opacity="1" stop-color="rgb(77.415466%, 77.415466%, 77.415466%)" offset="0.183594"/><stop stop-opacity="1" stop-color="rgb(76.934814%, 76.934814%, 76.934814%)" offset="0.1875"/><stop stop-opacity="1" stop-color="rgb(76.454163%, 76.454163%, 76.454163%)" offset="0.191406"/><stop stop-opacity="1" stop-color="rgb(75.975037%, 75.975037%, 75.975037%)" offset="0.195313"/><stop stop-opacity="1" stop-color="rgb(75.494385%, 75.494385%, 75.494385%)" offset="0.199219"/><stop stop-opacity="1" stop-color="rgb(75.013733%, 75.013733%, 75.013733%)" offset="0.203125"/><stop stop-opacity="1" stop-color="rgb(74.533081%, 74.533081%, 74.533081%)" offset="0.207031"/><stop stop-opacity="1" stop-color="rgb(74.052429%, 74.052429%, 74.052429%)" offset="0.210938"/><stop stop-opacity="1" stop-color="rgb(73.571777%, 73.571777%, 73.571777%)" offset="0.214844"/><stop stop-opacity="1" stop-color="rgb(73.091125%, 73.091125%, 73.091125%)" offset="0.21875"/><stop stop-opacity="1" stop-color="rgb(72.610474%, 72.610474%, 72.610474%)" offset="0.222656"/><stop stop-opacity="1" stop-color="rgb(72.131348%, 72.131348%, 72.131348%)" offset="0.226563"/><stop stop-opacity="1" stop-color="rgb(71.650696%, 71.650696%, 71.650696%)" offset="0.230469"/><stop stop-opacity="1" stop-color="rgb(71.170044%, 71.170044%, 71.170044%)" offset="0.234375"/><stop stop-opacity="1" stop-color="rgb(70.689392%, 70.689392%, 70.689392%)" offset="0.238281"/><stop stop-opacity="1" stop-color="rgb(70.20874%, 70.20874%, 70.20874%)" offset="0.242188"/><stop stop-opacity="1" stop-color="rgb(69.728088%, 69.728088%, 69.728088%)" offset="0.246094"/><stop stop-opacity="1" stop-color="rgb(69.247437%, 69.247437%, 69.247437%)" offset="0.25"/><stop stop-opacity="1" stop-color="rgb(68.766785%, 68.766785%, 68.766785%)" offset="0.253906"/><stop stop-opacity="1" stop-color="rgb(68.286133%, 68.286133%, 68.286133%)" offset="0.257813"/><stop stop-opacity="1" stop-color="rgb(67.805481%, 67.805481%, 67.805481%)" offset="0.261719"/><stop stop-opacity="1" stop-color="rgb(67.326355%, 67.326355%, 67.326355%)" offset="0.265625"/><stop stop-opacity="1" stop-color="rgb(66.845703%, 66.845703%, 66.845703%)" offset="0.269531"/><stop stop-opacity="1" stop-color="rgb(66.365051%, 66.365051%, 66.365051%)" offset="0.273438"/><stop stop-opacity="1" stop-color="rgb(65.884399%, 65.884399%, 65.884399%)" offset="0.277344"/><stop stop-opacity="1" stop-color="rgb(65.403748%, 65.403748%, 65.403748%)" offset="0.28125"/><stop stop-opacity="1" stop-color="rgb(64.923096%, 64.923096%, 64.923096%)" offset="0.285156"/><stop stop-opacity="1" stop-color="rgb(64.442444%, 64.442444%, 64.442444%)" offset="0.289063"/><stop stop-opacity="1" stop-color="rgb(63.961792%, 63.961792%, 63.961792%)" offset="0.292969"/><stop stop-opacity="1" stop-color="rgb(63.48114%, 63.48114%, 63.48114%)" offset="0.296875"/><stop stop-opacity="1" stop-color="rgb(63.000488%, 63.000488%, 63.000488%)" offset="0.300781"/><stop stop-opacity="1" stop-color="rgb(62.521362%, 62.521362%, 62.521362%)" offset="0.304688"/><stop stop-opacity="1" stop-color="rgb(62.04071%, 62.04071%, 62.04071%)" offset="0.308594"/><stop stop-opacity="1" stop-color="rgb(61.560059%, 61.560059%, 61.560059%)" offset="0.3125"/><stop stop-opacity="1" stop-color="rgb(61.079407%, 61.079407%, 61.079407%)" offset="0.316406"/><stop stop-opacity="1" stop-color="rgb(60.598755%, 60.598755%, 60.598755%)" offset="0.320313"/><stop stop-opacity="1" stop-color="rgb(60.118103%, 60.118103%, 60.118103%)" offset="0.324219"/><stop stop-opacity="1" stop-color="rgb(59.637451%, 59.637451%, 59.637451%)" offset="0.328125"/><stop stop-opacity="1" stop-color="rgb(59.156799%, 59.156799%, 59.156799%)" offset="0.332031"/><stop stop-opacity="1" stop-color="rgb(58.676147%, 58.676147%, 58.676147%)" offset="0.335938"/><stop stop-opacity="1" stop-color="rgb(58.195496%, 58.195496%, 58.195496%)" offset="0.339844"/><stop stop-opacity="1" stop-color="rgb(57.71637%, 57.71637%, 57.71637%)" offset="0.34375"/><stop stop-opacity="1" stop-color="rgb(57.235718%, 57.235718%, 57.235718%)" offset="0.347656"/><stop stop-opacity="1" stop-color="rgb(56.755066%, 56.755066%, 56.755066%)" offset="0.351563"/><stop stop-opacity="1" stop-color="rgb(56.274414%, 56.274414%, 56.274414%)" offset="0.355469"/><stop stop-opacity="1" stop-color="rgb(55.793762%, 55.793762%, 55.793762%)" offset="0.359375"/><stop stop-opacity="1" stop-color="rgb(55.31311%, 55.31311%, 55.31311%)" offset="0.363281"/><stop stop-opacity="1" stop-color="rgb(54.832458%, 54.832458%, 54.832458%)" offset="0.367188"/><stop stop-opacity="1" stop-color="rgb(54.351807%, 54.351807%, 54.351807%)" offset="0.371094"/><stop stop-opacity="1" stop-color="rgb(53.871155%, 53.871155%, 53.871155%)" offset="0.375"/><stop stop-opacity="1" stop-color="rgb(53.390503%, 53.390503%, 53.390503%)" offset="0.378906"/><stop stop-opacity="1" stop-color="rgb(52.911377%, 52.911377%, 52.911377%)" offset="0.382813"/><stop stop-opacity="1" stop-color="rgb(52.430725%, 52.430725%, 52.430725%)" offset="0.386719"/><stop stop-opacity="1" stop-color="rgb(51.950073%, 51.950073%, 51.950073%)" offset="0.390625"/><stop stop-opacity="1" stop-color="rgb(51.469421%, 51.469421%, 51.469421%)" offset="0.394531"/><stop stop-opacity="1" stop-color="rgb(50.98877%, 50.98877%, 50.98877%)" offset="0.398438"/><stop stop-opacity="1" stop-color="rgb(50.508118%, 50.508118%, 50.508118%)" offset="0.402344"/><stop stop-opacity="1" stop-color="rgb(50.027466%, 50.027466%, 50.027466%)" offset="0.40625"/><stop stop-opacity="1" stop-color="rgb(49.546814%, 49.546814%, 49.546814%)" offset="0.410156"/><stop stop-opacity="1" stop-color="rgb(49.067688%, 49.067688%, 49.067688%)" offset="0.414063"/><stop stop-opacity="1" stop-color="rgb(48.587036%, 48.587036%, 48.587036%)" offset="0.417969"/><stop stop-opacity="1" stop-color="rgb(48.106384%, 48.106384%, 48.106384%)" offset="0.421875"/><stop stop-opacity="1" stop-color="rgb(47.625732%, 47.625732%, 47.625732%)" offset="0.425781"/><stop stop-opacity="1" stop-color="rgb(47.145081%, 47.145081%, 47.145081%)" offset="0.429688"/><stop stop-opacity="1" stop-color="rgb(46.664429%, 46.664429%, 46.664429%)" offset="0.433594"/><stop stop-opacity="1" stop-color="rgb(46.183777%, 46.183777%, 46.183777%)" offset="0.4375"/><stop stop-opacity="1" stop-color="rgb(45.703125%, 45.703125%, 45.703125%)" offset="0.441406"/><stop stop-opacity="1" stop-color="rgb(45.222473%, 45.222473%, 45.222473%)" offset="0.445313"/><stop stop-opacity="1" stop-color="rgb(44.877625%, 44.874573%, 44.874573%)" offset="0.449219"/><stop stop-opacity="1" stop-color="rgb(44.534302%, 44.526672%, 44.526672%)" offset="0.453125"/><stop stop-opacity="1" stop-color="rgb(44.20929%, 44.198608%, 44.198608%)" offset="0.457031"/><stop stop-opacity="1" stop-color="rgb(43.885803%, 43.870544%, 43.870544%)" offset="0.460938"/><stop stop-opacity="1" stop-color="rgb(43.560791%, 43.54248%, 43.54248%)" offset="0.464844"/><stop stop-opacity="1" stop-color="rgb(43.237305%, 43.214417%, 43.214417%)" offset="0.46875"/><stop stop-opacity="1" stop-color="rgb(42.912292%, 42.884827%, 42.884827%)" offset="0.472656"/><stop stop-opacity="1" stop-color="rgb(42.588806%, 42.556763%, 42.556763%)" offset="0.476563"/><stop stop-opacity="1" stop-color="rgb(42.263794%, 42.228699%, 42.228699%)" offset="0.480469"/><stop stop-opacity="1" stop-color="rgb(41.940308%, 41.900635%, 41.900635%)" offset="0.484375"/><stop stop-opacity="1" stop-color="rgb(41.615295%, 41.572571%, 41.572571%)" offset="0.488281"/><stop stop-opacity="1" stop-color="rgb(41.291809%, 41.244507%, 41.244507%)" offset="0.492188"/><stop stop-opacity="1" stop-color="rgb(40.966797%, 40.914917%, 40.914917%)" offset="0.496094"/><stop stop-opacity="1" stop-color="rgb(40.643311%, 40.586853%, 40.586853%)" offset="0.5"/><stop stop-opacity="1" stop-color="rgb(40.318298%, 40.258789%, 40.258789%)" offset="0.503906"/><stop stop-opacity="1" stop-color="rgb(39.994812%, 39.930725%, 39.930725%)" offset="0.507813"/><stop stop-opacity="1" stop-color="rgb(39.6698%, 39.602661%, 39.602661%)" offset="0.511719"/><stop stop-opacity="1" stop-color="rgb(39.346313%, 39.274597%, 39.274597%)" offset="0.515625"/><stop stop-opacity="1" stop-color="rgb(39.021301%, 38.945007%, 38.945007%)" offset="0.519531"/><stop stop-opacity="1" stop-color="rgb(38.697815%, 38.616943%, 38.616943%)" offset="0.523438"/><stop stop-opacity="1" stop-color="rgb(38.372803%, 38.288879%, 38.288879%)" offset="0.527344"/><stop stop-opacity="1" stop-color="rgb(38.049316%, 37.960815%, 37.960815%)" offset="0.53125"/><stop stop-opacity="1" stop-color="rgb(37.724304%, 37.632751%, 37.632751%)" offset="0.535156"/><stop stop-opacity="1" stop-color="rgb(37.400818%, 37.304688%, 37.304688%)" offset="0.539063"/><stop stop-opacity="1" stop-color="rgb(37.075806%, 36.975098%, 36.975098%)" offset="0.542969"/><stop stop-opacity="1" stop-color="rgb(36.752319%, 36.647034%, 36.647034%)" offset="0.546875"/><stop stop-opacity="1" stop-color="rgb(36.427307%, 36.31897%, 36.31897%)" offset="0.550781"/><stop stop-opacity="1" stop-color="rgb(36.103821%, 35.990906%, 35.990906%)" offset="0.554688"/><stop stop-opacity="1" stop-color="rgb(35.778809%, 35.662842%, 35.662842%)" offset="0.558594"/><stop stop-opacity="1" stop-color="rgb(35.455322%, 35.334778%, 35.334778%)" offset="0.5625"/><stop stop-opacity="1" stop-color="rgb(35.13031%, 35.005188%, 35.005188%)" offset="0.566406"/><stop stop-opacity="1" stop-color="rgb(34.806824%, 34.677124%, 34.677124%)" offset="0.570313"/><stop stop-opacity="1" stop-color="rgb(34.481812%, 34.34906%, 34.34906%)" offset="0.574219"/><stop stop-opacity="1" stop-color="rgb(34.158325%, 34.020996%, 34.020996%)" offset="0.578125"/><stop stop-opacity="1" stop-color="rgb(33.833313%, 33.692932%, 33.692932%)" offset="0.582031"/><stop stop-opacity="1" stop-color="rgb(33.509827%, 33.364868%, 33.364868%)" offset="0.585938"/><stop stop-opacity="1" stop-color="rgb(33.184814%, 33.035278%, 33.035278%)" offset="0.589844"/><stop stop-opacity="1" stop-color="rgb(32.861328%, 32.707214%, 32.707214%)" offset="0.59375"/><stop stop-opacity="1" stop-color="rgb(32.536316%, 32.37915%, 32.37915%)" offset="0.597656"/><stop stop-opacity="1" stop-color="rgb(32.21283%, 32.051086%, 32.051086%)" offset="0.601563"/><stop stop-opacity="1" stop-color="rgb(31.887817%, 31.723022%, 31.723022%)" offset="0.605469"/><stop stop-opacity="1" stop-color="rgb(31.564331%, 31.394958%, 31.394958%)" offset="0.609375"/><stop stop-opacity="1" stop-color="rgb(31.239319%, 31.065369%, 31.065369%)" offset="0.613281"/><stop stop-opacity="1" stop-color="rgb(30.915833%, 30.737305%, 30.737305%)" offset="0.617188"/><stop stop-opacity="1" stop-color="rgb(30.59082%, 30.409241%, 30.409241%)" offset="0.621094"/><stop stop-opacity="1" stop-color="rgb(30.267334%, 30.081177%, 30.081177%)" offset="0.625"/><stop stop-opacity="1" stop-color="rgb(29.942322%, 29.753113%, 29.753113%)" offset="0.628906"/><stop stop-opacity="1" stop-color="rgb(29.618835%, 29.425049%, 29.425049%)" offset="0.632813"/><stop stop-opacity="1" stop-color="rgb(29.293823%, 29.095459%, 29.095459%)" offset="0.636719"/><stop stop-opacity="1" stop-color="rgb(28.970337%, 28.767395%, 28.767395%)" offset="0.640625"/><stop stop-opacity="1" stop-color="rgb(28.645325%, 28.439331%, 28.439331%)" offset="0.644531"/><stop stop-opacity="1" stop-color="rgb(28.321838%, 28.111267%, 28.111267%)" offset="0.648438"/><stop stop-opacity="1" stop-color="rgb(27.996826%, 27.783203%, 27.783203%)" offset="0.652344"/><stop stop-opacity="1" stop-color="rgb(27.67334%, 27.455139%, 27.455139%)" offset="0.65625"/><stop stop-opacity="1" stop-color="rgb(27.348328%, 27.125549%, 27.125549%)" offset="0.660156"/><stop stop-opacity="1" stop-color="rgb(27.024841%, 26.797485%, 26.797485%)" offset="0.664063"/><stop stop-opacity="1" stop-color="rgb(26.699829%, 26.469421%, 26.469421%)" offset="0.667969"/><stop stop-opacity="1" stop-color="rgb(26.376343%, 26.141357%, 26.141357%)" offset="0.671875"/><stop stop-opacity="1" stop-color="rgb(26.051331%, 25.813293%, 25.813293%)" offset="0.675781"/><stop stop-opacity="1" stop-color="rgb(25.727844%, 25.485229%, 25.485229%)" offset="0.679688"/><stop stop-opacity="1" stop-color="rgb(25.402832%, 25.15564%, 25.15564%)" offset="0.683594"/><stop stop-opacity="1" stop-color="rgb(25.079346%, 24.827576%, 24.827576%)" offset="0.6875"/><stop stop-opacity="1" stop-color="rgb(24.754333%, 24.499512%, 24.499512%)" offset="0.691406"/><stop stop-opacity="1" stop-color="rgb(24.430847%, 24.171448%, 24.171448%)" offset="0.695313"/><stop stop-opacity="1" stop-color="rgb(24.105835%, 23.843384%, 23.843384%)" offset="0.699219"/><stop stop-opacity="1" stop-color="rgb(23.782349%, 23.51532%, 23.51532%)" offset="0.703125"/><stop stop-opacity="1" stop-color="rgb(23.457336%, 23.18573%, 23.18573%)" offset="0.707031"/><stop stop-opacity="1" stop-color="rgb(23.13385%, 22.857666%, 22.857666%)" offset="0.710938"/><stop stop-opacity="1" stop-color="rgb(22.810364%, 22.529602%, 22.529602%)" offset="0.714844"/><stop stop-opacity="1" stop-color="rgb(22.486877%, 22.201538%, 22.201538%)" offset="0.71875"/><stop stop-opacity="1" stop-color="rgb(22.161865%, 21.873474%, 21.873474%)" offset="0.722656"/><stop stop-opacity="1" stop-color="rgb(21.838379%, 21.54541%, 21.54541%)" offset="0.726563"/><stop stop-opacity="1" stop-color="rgb(21.513367%, 21.21582%, 21.21582%)" offset="0.730469"/><stop stop-opacity="1" stop-color="rgb(21.18988%, 20.887756%, 20.887756%)" offset="0.734375"/><stop stop-opacity="1" stop-color="rgb(20.864868%, 20.559692%, 20.559692%)" offset="0.738281"/><stop stop-opacity="1" stop-color="rgb(20.541382%, 20.231628%, 20.231628%)" offset="0.742188"/><stop stop-opacity="1" stop-color="rgb(20.21637%, 19.903564%, 19.903564%)" offset="0.746094"/><stop stop-opacity="1" stop-color="rgb(19.892883%, 19.5755%, 19.5755%)" offset="0.75"/><stop stop-opacity="1" stop-color="rgb(19.567871%, 19.245911%, 19.245911%)" offset="0.753906"/><stop stop-opacity="1" stop-color="rgb(19.244385%, 18.917847%, 18.917847%)" offset="0.757813"/><stop stop-opacity="1" stop-color="rgb(18.919373%, 18.589783%, 18.589783%)" offset="0.761719"/><stop stop-opacity="1" stop-color="rgb(18.595886%, 18.261719%, 18.261719%)" offset="0.765625"/><stop stop-opacity="1" stop-color="rgb(18.270874%, 17.933655%, 17.933655%)" offset="0.769531"/><stop stop-opacity="1" stop-color="rgb(17.947388%, 17.605591%, 17.605591%)" offset="0.773438"/><stop stop-opacity="1" stop-color="rgb(17.622375%, 17.276001%, 17.276001%)" offset="0.777344"/><stop stop-opacity="1" stop-color="rgb(17.298889%, 16.947937%, 16.947937%)" offset="0.78125"/><stop stop-opacity="1" stop-color="rgb(16.973877%, 16.619873%, 16.619873%)" offset="0.785156"/><stop stop-opacity="1" stop-color="rgb(16.650391%, 16.291809%, 16.291809%)" offset="0.789063"/><stop stop-opacity="1" stop-color="rgb(16.325378%, 15.963745%, 15.963745%)" offset="0.792969"/><stop stop-opacity="1" stop-color="rgb(16.001892%, 15.635681%, 15.635681%)" offset="0.796875"/><stop stop-opacity="1" stop-color="rgb(15.67688%, 15.306091%, 15.306091%)" offset="0.800781"/><stop stop-opacity="1" stop-color="rgb(15.353394%, 14.978027%, 14.978027%)" offset="0.804688"/><stop stop-opacity="1" stop-color="rgb(15.028381%, 14.649963%, 14.649963%)" offset="0.808594"/><stop stop-opacity="1" stop-color="rgb(14.704895%, 14.321899%, 14.321899%)" offset="0.8125"/><stop stop-opacity="1" stop-color="rgb(14.381409%, 13.996887%, 13.996887%)" offset="0.816406"/><stop stop-opacity="1" stop-color="rgb(14.059448%, 13.671875%, 13.671875%)" offset="0.820312"/><stop stop-opacity="1" stop-color="rgb(13.752747%, 13.374329%, 13.374329%)" offset="0.824219"/><stop stop-opacity="1" stop-color="rgb(13.447571%, 13.076782%, 13.076782%)" offset="0.828125"/><stop stop-opacity="1" stop-color="rgb(13.140869%, 12.779236%, 12.779236%)" offset="0.832031"/><stop stop-opacity="1" stop-color="rgb(12.835693%, 12.481689%, 12.481689%)" offset="0.835938"/><stop stop-opacity="1" stop-color="rgb(12.528992%, 12.184143%, 12.184143%)" offset="0.839844"/><stop stop-opacity="1" stop-color="rgb(12.223816%, 11.886597%, 11.886597%)" offset="0.84375"/><stop stop-opacity="1" stop-color="rgb(11.917114%, 11.58905%, 11.58905%)" offset="0.847656"/><stop stop-opacity="1" stop-color="rgb(11.611938%, 11.291504%, 11.291504%)" offset="0.851563"/><stop stop-opacity="1" stop-color="rgb(11.305237%, 10.993958%, 10.993958%)" offset="0.855469"/><stop stop-opacity="1" stop-color="rgb(11.000061%, 10.696411%, 10.696411%)" offset="0.859375"/><stop stop-opacity="1" stop-color="rgb(10.693359%, 10.398865%, 10.398865%)" offset="0.863281"/><stop stop-opacity="1" stop-color="rgb(10.388184%, 10.101318%, 10.101318%)" offset="0.867188"/><stop stop-opacity="1" stop-color="rgb(10.081482%, 9.803772%, 9.803772%)" offset="0.871094"/><stop stop-opacity="1" stop-color="rgb(9.776306%, 9.506226%, 9.506226%)" offset="0.875"/><stop stop-opacity="1" stop-color="rgb(9.469604%, 9.208679%, 9.208679%)" offset="0.878906"/><stop stop-opacity="1" stop-color="rgb(9.164429%, 8.911133%, 8.911133%)" offset="0.882813"/><stop stop-opacity="1" stop-color="rgb(8.857727%, 8.613586%, 8.613586%)" offset="0.886719"/><stop stop-opacity="1" stop-color="rgb(8.552551%, 8.31604%, 8.31604%)" offset="0.890625"/><stop stop-opacity="1" stop-color="rgb(8.24585%, 8.018494%, 8.018494%)" offset="0.894531"/><stop stop-opacity="1" stop-color="rgb(7.940674%, 7.720947%, 7.720947%)" offset="0.898438"/><stop stop-opacity="1" stop-color="rgb(7.633972%, 7.423401%, 7.423401%)" offset="0.902344"/><stop stop-opacity="1" stop-color="rgb(7.328796%, 7.125854%, 7.125854%)" offset="0.90625"/><stop stop-opacity="1" stop-color="rgb(7.022095%, 6.828308%, 6.828308%)" offset="0.910156"/><stop stop-opacity="1" stop-color="rgb(6.716919%, 6.530762%, 6.530762%)" offset="0.914062"/><stop stop-opacity="1" stop-color="rgb(6.410217%, 6.233215%, 6.233215%)" offset="0.917969"/><stop stop-opacity="1" stop-color="rgb(6.105042%, 5.935669%, 5.935669%)" offset="0.921875"/><stop stop-opacity="1" stop-color="rgb(5.79834%, 5.638123%, 5.638123%)" offset="0.925781"/><stop stop-opacity="1" stop-color="rgb(5.491638%, 5.340576%, 5.340576%)" offset="0.929688"/><stop stop-opacity="1" stop-color="rgb(5.184937%, 5.04303%, 5.04303%)" offset="0.933594"/><stop stop-opacity="1" stop-color="rgb(4.879761%, 4.745483%, 4.745483%)" offset="0.9375"/><stop stop-opacity="1" stop-color="rgb(4.573059%, 4.447937%, 4.447937%)" offset="0.941406"/><stop stop-opacity="1" stop-color="rgb(4.267883%, 4.150391%, 4.150391%)" offset="0.945313"/><stop stop-opacity="1" stop-color="rgb(3.961182%, 3.852844%, 3.852844%)" offset="0.949219"/><stop stop-opacity="1" stop-color="rgb(3.656006%, 3.555298%, 3.555298%)" offset="0.953125"/><stop stop-opacity="1" stop-color="rgb(3.349304%, 3.257751%, 3.257751%)" offset="0.957031"/><stop stop-opacity="1" stop-color="rgb(3.044128%, 2.960205%, 2.960205%)" offset="0.960938"/><stop stop-opacity="1" stop-color="rgb(2.737427%, 2.662659%, 2.662659%)" offset="0.964844"/><stop stop-opacity="1" stop-color="rgb(2.432251%, 2.365112%, 2.365112%)" offset="0.96875"/><stop stop-opacity="1" stop-color="rgb(2.125549%, 2.067566%, 2.067566%)" offset="0.972656"/><stop stop-opacity="1" stop-color="rgb(1.820374%, 1.77002%, 1.77002%)" offset="0.976563"/><stop stop-opacity="1" stop-color="rgb(1.513672%, 1.472473%, 1.472473%)" offset="0.980469"/><stop stop-opacity="1" stop-color="rgb(1.208496%, 1.174927%, 1.174927%)" offset="0.984375"/><stop stop-opacity="1" stop-color="rgb(0.901794%, 0.87738%, 0.87738%)" offset="0.988281"/><stop stop-opacity="1" stop-color="rgb(0.596619%, 0.579834%, 0.579834%)" offset="0.992188"/><stop stop-opacity="1" stop-color="rgb(0.297546%, 0.289917%, 0.289917%)" offset="0.996094"/><stop stop-opacity="1" stop-color="rgb(0%, 0%, 0%)" offset="1"/></linearGradient><clipPath id="4e4006c6cf"><rect x="0" width="320" y="0" height="320"/></clipPath></defs><g clip-path="url(#ea5e70681d)"><g clip-path="url(#3b847e326d)"><g clip-path="url(#5e2f222b50)"><g transform="matrix(1, 0, 0, 1, 209, 319)"><g clip-path="url(#1d8687457b)"><g clip-path="url(#3f627579d4)"><g clip-path="url(#351efeeed1)"><g clip-path="url(#41e5cac486)"><path fill="#ffffff" d="M 6.578125 2.125 L 2.066406 6.925781 L -0.429688 4.578125 L 4.078125 -0.222656 Z M 6.578125 2.125 " fill-opacity="1" fill-rule="nonzero"/></g></g></g></g></g></g></g></g><g clip-path="url(#f7240265ec)"><g clip-path="url(#4173c3718c)"><g clip-path="url(#88ba6dd92e)"><g transform="matrix(1, 0, 0, 1, 204, 324)"><g clip-path="url(#07c7d4e53f)"><g clip-path="url(#fad6ded8a4)"><g clip-path="url(#718ce07289)"><g clip-path="url(#99928563f6)"><path fill="#ffffff" d="M 7.070312 1.921875 L 2.558594 6.722656 L 0.0625 4.378906 L 4.574219 -0.425781 Z M 7.070312 1.921875 " fill-opacity="1" fill-rule="nonzero"/></g></g></g></g></g></g></g></g><g clip-path="url(#a5895372cb)"><g clip-path="url(#1430eaea3d)"><g clip-path="url(#adec3dd7ba)"><g transform="matrix(1, 0, 0, 1, 200, 329)"><g clip-path="url(#c9e9ba99e2)"><g clip-path="url(#52775deac5)"><g clip-path="url(#a7c84b8714)"><g clip-path="url(#b74ff7e017)"><path fill="#ffffff" d="M 6.5625 1.71875 L 2.054688 6.523438 L -0.445312 4.175781 L 4.066406 -0.628906 Z M 6.5625 1.71875 " fill-opacity="1" fill-rule="nonzero"/></g></g></g></g></g></g></g></g><g clip-path="url(#fdcc8a1fda)"><g clip-path="url(#e7f8b33e18)"><g clip-path="url(#eb75af3472)"><g transform="matrix(1, 0, 0, 1, 195, 333)"><g clip-path="url(#da80ad10e9)"><g clip-path="url(#9ac47b09ed)"><g clip-path="url(#f31908667a)"><g clip-path="url(#8d5a58f42f)"><path fill="#ffffff" d="M 7.058594 2.515625 L 2.546875 7.320312 L 0.046875 4.972656 L 4.558594 0.167969 Z M 7.058594 2.515625 " fill-opacity="1" fill-rule="nonzero"/></g></g></g></g></g></g></g></g><g clip-path="url(#910130e6c5)"><g clip-path="url(#dceb1d9b09)"><g clip-path="url(#cbbfa5b3be)"><g transform="matrix(1, 0, 0, 1, 191, 338)"><g clip-path="url(#fb98a4832b)"><g clip-path="url(#72e4c507c5)"><g clip-path="url(#f89190c574)"><g clip-path="url(#98d74952d3)"><path fill="#ffffff" d="M 6.550781 2.3125 L 2.039062 7.117188 L -0.460938 4.769531 L 4.050781 -0.0351562 Z M 6.550781 2.3125 " fill-opacity="1" fill-rule="nonzero"/></g></g></g></g></g></g></g></g><g clip-path="url(#8811616a07)"><g clip-path="url(#fbf3fc81b2)"><g clip-path="url(#c7a95396ce)"><g transform="matrix(1, 0, 0, 1, 186, 343)"><g clip-path="url(#6bbbfc6f9b)"><g clip-path="url(#db71c03123)"><g clip-path="url(#fe27681436)"><g clip-path="url(#2e33a229ec)"><path fill="#ffffff" d="M 7.042969 2.109375 L 2.53125 6.914062 L 0.0351562 4.566406 L 4.542969 -0.238281 Z M 7.042969 2.109375 " fill-opacity="1" fill-rule="nonzero"/></g></g></g></g></g></g></g></g><g clip-path="url(#38fc01801a)"><g clip-path="url(#7fb8c71c94)"><g clip-path="url(#48626b023b)"><g transform="matrix(1, 0, 0, 1, 182, 348)"><g clip-path="url(#ece14bd0c1)"><g clip-path="url(#ad2e88d8f1)"><g clip-path="url(#4bb1f61839)"><g clip-path="url(#9078453600)"><path fill="#ffffff" d="M 6.535156 1.90625 L 2.023438 6.710938 L -0.472656 4.363281 L 4.039062 -0.4375 Z M 6.535156 1.90625 " fill-opacity="1" fill-rule="nonzero"/></g></g></g></g></g></g></g></g><g clip-path="url(#cd890d8394)"><g clip-path="url(#31a2eb6cb6)"><g clip-path="url(#d82454d04f)"><g transform="matrix(1, 0, 0, 1, 213, 312)"><g clip-path="url(#2d09ccfceb)"><g clip-path="url(#da84e90537)"><g clip-path="url(#b60089e02e)"><g clip-path="url(#30814edc1c)"><path fill="#ffffff" d="M 8.980469 -0.0703125 L 9.679688 9.058594 L 0.550781 9.753906 L -0.148438 0.625 Z M 8.980469 -0.0703125 " fill-opacity="1" fill-rule="nonzero"/></g></g></g></g></g></g></g></g><path stroke-linecap="butt" transform="matrix(0.749997, 0.00221815, -0.00221815, 0.749997, 158.523261, 345.598129)" fill="none" stroke-linejoin="miter" d="M 0.00241855 2.499374 L 81.242357 2.498688 " stroke="#ffffff" stroke-width="5" stroke-opacity="1" stroke-miterlimit="4"/><path stroke-linecap="butt" transform="matrix(0, -0.75, 0.75, 0, 187.105467, 379.007022)" fill="none" stroke-linejoin="miter" d="M -0.00105356 2.500002 L 81.243742 2.500002 " stroke="#ffffff" stroke-width="5" stroke-opacity="1" stroke-miterlimit="4"/><g clip-path="url(#65e316fecd)"><g clip-path="url(#a2c7c22276)"><g transform="matrix(1, 0, 0, 1, 184, 309)"><g clip-path="url(#8bf8daa8bf)"><g clip-path="url(#9ad42f77de)"><g clip-path="url(#9a11c4e2a7)"><path fill="#ffffff" d="M 0.40625 0.722656 L 9.5625 0.722656 L 9.5625 9.878906 L 0.40625 9.878906 Z M 0.40625 0.722656 " fill-opacity="1" fill-rule="nonzero"/></g></g></g></g></g></g><g clip-path="url(#d0c06c96ce)"><g clip-path="url(#1686b17147)"><g transform="matrix(1, 0, 0, 1, 179, 338)"><g clip-path="url(#a432808848)"><g clip-path="url(#196fae262d)"><g clip-path="url(#be514bcdf3)"><path fill="#ffffff" d="M 0.855469 0.582031 L 19.109375 0.582031 L 19.109375 18.835938 L 0.855469 18.835938 Z M 0.855469 0.582031 " fill-opacity="1" fill-rule="nonzero"/></g></g></g></g></g></g><g clip-path="url(#5e46a7a586)"><g clip-path="url(#11db2727c0)"><g transform="matrix(1, 0, 0, 1, 184, 378)"><g clip-path="url(#5de4b008f6)"><g clip-path="url(#021e5c2b57)"><g clip-path="url(#3ccfa12b3f)"><path fill="#ffffff" d="M 0.40625 0.699219 L 9.5625 0.699219 L 9.5625 9.855469 L 0.40625 9.855469 Z M 0.40625 0.699219 " fill-opacity="1" fill-rule="nonzero"/></g></g></g></g></g></g><g clip-path="url(#66a5d7122d)"><g clip-path="url(#43195e3a20)"><g transform="matrix(1, 0, 0, 1, 149, 342)"><g clip-path="url(#e84b225ed3)"><g clip-path="url(#47e92c7cd2)"><g clip-path="url(#1cd0fab804)"><path fill="#ffffff" d="M 0.976562 0.652344 L 10.132812 0.652344 L 10.132812 9.808594 L 0.976562 9.808594 Z M 0.976562 0.652344 " fill-opacity="1" fill-rule="nonzero"/></g></g></g></g></g></g><g clip-path="url(#439c7c224e)"><g clip-path="url(#149b907812)"><g transform="matrix(1, 0, 0, 1, 218, 342)"><g clip-path="url(#dabc833e6a)"><g clip-path="url(#41d8f34b6a)"><g clip-path="url(#67fdfd9ff1)"><path fill="#ffffff" d="M 0.105469 0.652344 L 9.261719 0.652344 L 9.261719 9.808594 L 0.105469 9.808594 Z M 0.105469 0.652344 " fill-opacity="1" fill-rule="nonzero"/></g></g></g></g></g></g><path stroke-linecap="butt" transform="matrix(0.529257, -0.531401, 0.531401, 0.529257, 159.339472, 375.373684)" fill="none" stroke-linejoin="miter" d="M -0.00125307 2.001379 L 61.185708 1.999837 " stroke="#ffffff" stroke-width="4" stroke-opacity="1" stroke-miterlimit="4"/><g clip-path="url(#28814765fb)"><g clip-path="url(#e8031e54d8)"><g transform="matrix(1, 0, 0, 1, 152, 375)"><g clip-path="url(#cca9cdb585)"><g clip-path="url(#dc2ce23d23)"><g clip-path="url(#039550f238)"><path fill="#ffffff" d="M 0.59375 0.101562 L 9.75 0.101562 L 9.75 9.257812 L 0.59375 9.257812 Z M 0.59375 0.101562 " fill-opacity="1" fill-rule="nonzero"/></g></g></g></g></g></g><g transform="matrix(1, 0, 0, 1, 249, 365)"><g clip-path="url(#0546a7bbb2)"><g clip-path="url(#de78e0259f)"><g fill="#ffffff" fill-opacity="1"><g transform="translate(0.473809, 18.05969)"><g><path d="M 3.375 -4.5625 L 7.875 -4.5625 L 5.640625 -10.265625 Z M 11.0625 0 L 9.6875 0 L 8.34375 -3.375 L 2.90625 -3.375 L 1.5625 0 L 0.1875 0 L 5.640625 -13.25 Z M 11.0625 0 "/></g></g></g></g><g fill="#ffffff" fill-opacity="1"><g transform="translate(15.348555, 18.05969)"><g><path d="M 8.734375 -11.21875 L 2.640625 -11.21875 L 2.640625 -6.796875 L 8.546875 -6.796875 L 8.546875 -5.59375 L 2.640625 -5.59375 L 2.640625 0 L 1.375 0 L 1.375 -12.40625 L 8.734375 -12.40625 Z M 8.734375 -11.21875 "/></g></g></g><g fill="#ffffff" fill-opacity="1"><g transform="translate(28.072474, 18.05969)"><g><path d="M 8.734375 -11.21875 L 2.640625 -11.21875 L 2.640625 -6.796875 L 8.546875 -6.796875 L 8.546875 -5.59375 L 2.640625 -5.59375 L 2.640625 0 L 1.375 0 L 1.375 -12.40625 L 8.734375 -12.40625 Z M 8.734375 -11.21875 "/></g></g></g><g fill="#ffffff" fill-opacity="1"><g transform="translate(40.796393, 18.05969)"><g><path d="M 12.296875 -6.234375 C 12.296875 -7.628906 11.796875 -8.828125 10.796875 -9.828125 C 9.796875 -10.828125 8.59375 -11.328125 7.1875 -11.328125 C 5.789062 -11.328125 4.59375 -10.828125 3.59375 -9.828125 C 2.59375 -8.828125 2.09375 -7.628906 2.09375 -6.234375 C 2.09375 -4.828125 2.59375 -3.625 3.59375 -2.625 C 4.59375 -1.625 5.789062 -1.125 7.1875 -1.125 C 8.59375 -1.125 9.796875 -1.625 10.796875 -2.625 C 11.796875 -3.625 12.296875 -4.828125 12.296875 -6.234375 Z M 13.5625 -6.234375 C 13.5625 -5.359375 13.398438 -4.53125 13.078125 -3.75 C 12.734375 -2.976562 12.273438 -2.304688 11.703125 -1.734375 C 11.117188 -1.148438 10.441406 -0.691406 9.671875 -0.359375 C 8.890625 -0.0234375 8.0625 0.140625 7.1875 0.140625 C 6.3125 0.140625 5.488281 -0.0234375 4.71875 -0.359375 C 3.945312 -0.691406 3.273438 -1.148438 2.703125 -1.734375 C 2.117188 -2.304688 1.660156 -2.976562 1.328125 -3.75 C 0.992188 -4.53125 0.828125 -5.359375 0.828125 -6.234375 C 0.828125 -7.109375 0.992188 -7.9375 1.328125 -8.71875 C 1.660156 -9.5 2.117188 -10.171875 2.703125 -10.734375 C 3.273438 -11.304688 3.945312 -11.765625 4.71875 -12.109375 C 5.488281 -12.429688 6.3125 -12.59375 7.1875 -12.59375 C 8.0625 -12.59375 8.890625 -12.429688 9.671875 -12.109375 C 10.441406 -11.765625 11.117188 -11.304688 11.703125 -10.734375 C 12.273438 -10.171875 12.734375 -9.5 13.078125 -8.71875 C 13.398438 -7.9375 13.5625 -7.109375 13.5625 -6.234375 Z M 13.5625 -6.234375 "/></g></g></g><g fill="#ffffff" fill-opacity="1"><g transform="translate(58.806244, 18.05969)"><g><path d="M 2.640625 -6.125 L 5.53125 -6.125 C 6.238281 -6.125 6.828125 -6.367188 7.296875 -6.859375 C 7.765625 -7.359375 8 -7.972656 8 -8.703125 C 8 -9.421875 7.773438 -10.015625 7.328125 -10.484375 C 6.878906 -10.941406 6.28125 -11.171875 5.53125 -11.171875 L 2.640625 -11.171875 Z M 9.28125 -8.65625 C 9.28125 -7.570312 8.894531 -6.675781 8.125 -5.96875 C 7.445312 -5.332031 6.628906 -4.984375 5.671875 -4.921875 L 9.484375 0 L 7.765625 0 L 4.140625 -4.90625 L 2.640625 -4.90625 L 2.640625 0 L 1.375 0 L 1.375 -12.40625 L 5.34375 -12.40625 C 6.445312 -12.40625 7.375 -12.054688 8.125 -11.359375 C 8.894531 -10.628906 9.28125 -9.726562 9.28125 -8.65625 Z M 9.28125 -8.65625 "/></g></g></g><g fill="#ffffff" fill-opacity="1"><g transform="translate(72.350392, 18.05969)"><g><path d="M 11 -6.203125 C 11 -5.296875 10.832031 -4.46875 10.5 -3.71875 C 10.164062 -2.957031 9.710938 -2.300781 9.140625 -1.75 C 8.566406 -1.207031 7.890625 -0.78125 7.109375 -0.46875 C 6.328125 -0.15625 5.492188 0 4.609375 0 L 1.375 0 L 1.375 -12.40625 L 4.609375 -12.40625 C 5.492188 -12.40625 6.328125 -12.25 7.109375 -11.9375 C 7.890625 -11.625 8.566406 -11.195312 9.140625 -10.65625 C 9.710938 -10.101562 10.164062 -9.453125 10.5 -8.703125 C 10.832031 -7.929688 11 -7.097656 11 -6.203125 Z M 9.75 -6.203125 C 9.75 -7.609375 9.253906 -8.785156 8.265625 -9.734375 C 7.285156 -10.660156 6.082031 -11.125 4.65625 -11.125 L 2.640625 -11.125 L 2.640625 -1.28125 L 4.65625 -1.28125 C 6.082031 -1.28125 7.285156 -1.738281 8.265625 -2.65625 C 9.253906 -3.601562 9.75 -4.785156 9.75 -6.203125 Z M 9.75 -6.203125 "/></g></g></g><g fill="#ffffff" fill-opacity="1"><g transform="translate(87.790187, 18.05969)"><g><path d="M 3.375 -4.5625 L 7.875 -4.5625 L 5.640625 -10.265625 Z M 11.0625 0 L 9.6875 0 L 8.34375 -3.375 L 2.90625 -3.375 L 1.5625 0 L 0.1875 0 L 5.640625 -13.25 Z M 11.0625 0 "/></g></g></g><g fill="#ffffff" fill-opacity="1"><g transform="translate(102.664934, 18.05969)"><g><path d="M 9.46875 -3.46875 C 9.46875 -2.957031 9.351562 -2.46875 9.125 -2 C 8.882812 -1.539062 8.570312 -1.164062 8.1875 -0.875 C 7.4375 -0.289062 6.425781 0 5.15625 0 L 1.375 0 L 1.375 -12.40625 L 4.71875 -12.40625 C 6.53125 -12.40625 7.710938 -11.84375 8.265625 -10.71875 C 8.453125 -10.320312 8.546875 -9.914062 8.546875 -9.5 C 8.546875 -9.082031 8.515625 -8.757812 8.453125 -8.53125 C 8.378906 -8.289062 8.285156 -8.0625 8.171875 -7.84375 C 7.890625 -7.363281 7.53125 -7.03125 7.09375 -6.84375 C 7.820312 -6.644531 8.398438 -6.253906 8.828125 -5.671875 C 9.253906 -5.078125 9.46875 -4.34375 9.46875 -3.46875 Z M 7.28125 -9.296875 C 7.28125 -10.546875 6.425781 -11.171875 4.71875 -11.171875 L 2.640625 -11.171875 L 2.640625 -7.3125 L 5.09375 -7.3125 C 5.75 -7.3125 6.273438 -7.472656 6.671875 -7.796875 C 7.078125 -8.128906 7.28125 -8.628906 7.28125 -9.296875 Z M 8.1875 -3.703125 C 8.1875 -4.066406 8.117188 -4.390625 7.984375 -4.671875 C 7.835938 -4.953125 7.65625 -5.191406 7.4375 -5.390625 C 6.945312 -5.816406 6.375 -6.03125 5.71875 -6.03125 L 2.640625 -6.03125 L 2.640625 -1.21875 L 5.53125 -1.21875 C 6.300781 -1.21875 6.9375 -1.441406 7.4375 -1.890625 C 7.9375 -2.359375 8.1875 -2.960938 8.1875 -3.703125 Z M 8.1875 -3.703125 "/></g></g></g><g fill="#ffffff" fill-opacity="1"><g transform="translate(116.117949, 18.05969)"><g><path d="M 2.640625 -1.28125 L 7.078125 -1.28125 L 7.078125 0 L 1.375 0 L 1.375 -12.40625 L 2.640625 -12.40625 Z M 2.640625 -1.28125 "/></g></g></g><g fill="#ffffff" fill-opacity="1"><g transform="translate(127.183173, 18.05969)"><g><path d="M 8.734375 0 L 1.375 0 L 1.375 -12.40625 L 8.734375 -12.40625 L 8.734375 -11.21875 L 2.640625 -11.21875 L 2.640625 -6.796875 L 8.546875 -6.796875 L 8.546875 -5.59375 L 2.640625 -5.59375 L 2.640625 -1.1875 L 8.734375 -1.1875 Z M 8.734375 0 "/></g></g></g><g fill="#ffffff" fill-opacity="1"><g transform="translate(140.909595, 18.05969)"><g/></g></g><g fill="#ffffff" fill-opacity="1"><g transform="translate(149.459443, 18.05969)"><g><path d="M 2.640625 0 L 1.375 0 L 1.375 -12.40625 L 2.640625 -12.40625 Z M 2.640625 0 "/></g></g></g><g fill="#ffffff" fill-opacity="1"><g transform="translate(157.097939, 18.05969)"><g><path d="M 2.640625 -9.140625 L 2.640625 0 L 1.375 0 L 1.375 -13.1875 L 8.328125 -3.28125 L 8.328125 -12.40625 L 9.609375 -12.40625 L 9.609375 0.765625 Z M 2.640625 -9.140625 "/></g></g></g><g fill="#ffffff" fill-opacity="1"><g transform="translate(171.699251, 18.05969)"><g><path d="M 0.359375 -11.25 L 0.359375 -12.4375 L 7.65625 -12.4375 L 7.65625 -11.25 L 4.65625 -11.25 L 4.65625 -0.03125 L 3.375 -0.03125 L 3.375 -11.25 Z M 0.359375 -11.25 "/></g></g></g><g fill="#ffffff" fill-opacity="1"><g transform="translate(183.34776, 18.05969)"><g><path d="M 8.734375 0 L 1.375 0 L 1.375 -12.40625 L 8.734375 -12.40625 L 8.734375 -11.21875 L 2.640625 -11.21875 L 2.640625 -6.796875 L 8.546875 -6.796875 L 8.546875 -5.59375 L 2.640625 -5.59375 L 2.640625 -1.1875 L 8.734375 -1.1875 Z M 8.734375 0 "/></g></g></g><g fill="#ffffff" fill-opacity="1"><g transform="translate(197.074182, 18.05969)"><g><path d="M 2.640625 -1.28125 L 7.078125 -1.28125 L 7.078125 0 L 1.375 0 L 1.375 -12.40625 L 2.640625 -12.40625 Z M 2.640625 -1.28125 "/></g></g></g><g fill="#ffffff" fill-opacity="1"><g transform="translate(208.139407, 18.05969)"><g><path d="M 2.640625 -1.28125 L 7.078125 -1.28125 L 7.078125 0 L 1.375 0 L 1.375 -12.40625 L 2.640625 -12.40625 Z M 2.640625 -1.28125 "/></g></g></g><g fill="#ffffff" fill-opacity="1"><g transform="translate(219.204631, 18.05969)"><g><path d="M 2.640625 0 L 1.375 0 L 1.375 -12.40625 L 2.640625 -12.40625 Z M 2.640625 0 "/></g></g></g><g fill="#ffffff" fill-opacity="1"><g transform="translate(226.843108, 18.05969)"><g><path d="M 13.609375 -5.796875 L 13.46875 -5.03125 C 13.207031 -3.519531 12.472656 -2.28125 11.265625 -1.3125 C 10.066406 -0.34375 8.710938 0.140625 7.203125 0.140625 C 6.328125 0.140625 5.5 -0.0234375 4.71875 -0.359375 C 3.945312 -0.691406 3.273438 -1.148438 2.703125 -1.734375 C 2.117188 -2.304688 1.660156 -2.976562 1.328125 -3.75 C 0.992188 -4.53125 0.828125 -5.363281 0.828125 -6.25 C 0.828125 -7.125 0.992188 -7.953125 1.328125 -8.734375 C 1.660156 -9.515625 2.117188 -10.195312 2.703125 -10.78125 C 3.273438 -11.351562 3.945312 -11.804688 4.71875 -12.140625 C 5.5 -12.472656 6.285156 -12.640625 7.078125 -12.640625 C 8.554688 -12.640625 9.863281 -12.21875 11 -11.375 C 12.132812 -10.539062 12.910156 -9.4375 13.328125 -8.0625 L 11.984375 -8.0625 C 11.585938 -9.070312 10.960938 -9.875 10.109375 -10.46875 C 9.222656 -11.0625 8.253906 -11.359375 7.203125 -11.359375 C 5.796875 -11.359375 4.59375 -10.859375 3.59375 -9.859375 C 2.59375 -8.867188 2.09375 -7.664062 2.09375 -6.25 C 2.09375 -4.851562 2.59375 -3.648438 3.59375 -2.640625 C 4.570312 -1.628906 5.773438 -1.125 7.203125 -1.125 C 8.316406 -1.125 9.335938 -1.445312 10.265625 -2.09375 C 11.179688 -2.75 11.820312 -3.613281 12.1875 -4.6875 L 7.140625 -4.6875 L 7.140625 -5.796875 Z M 13.609375 -5.796875 "/></g></g></g><g fill="#ffffff" fill-opacity="1"><g transform="translate(244.889422, 18.05969)"><g><path d="M 8.734375 0 L 1.375 0 L 1.375 -12.40625 L 8.734375 -12.40625 L 8.734375 -11.21875 L 2.640625 -11.21875 L 2.640625 -6.796875 L 8.546875 -6.796875 L 8.546875 -5.59375 L 2.640625 -5.59375 L 2.640625 -1.1875 L 8.734375 -1.1875 Z M 8.734375 0 "/></g></g></g><g fill="#ffffff" fill-opacity="1"><g transform="translate(258.615843, 18.05969)"><g><path d="M 2.640625 -9.140625 L 2.640625 0 L 1.375 0 L 1.375 -13.1875 L 8.328125 -3.28125 L 8.328125 -12.40625 L 9.609375 -12.40625 L 9.609375 0.765625 Z M 2.640625 -9.140625 "/></g></g></g><g fill="#ffffff" fill-opacity="1"><g transform="translate(273.217174, 18.05969)"><g><path d="M 12.75 -3.796875 C 12.28125 -2.597656 11.523438 -1.644531 10.484375 -0.9375 C 9.421875 -0.1875 8.257812 0.1875 7 0.1875 C 5.289062 0.1875 3.828125 -0.445312 2.609375 -1.71875 C 1.421875 -2.957031 0.828125 -4.445312 0.828125 -6.1875 C 0.828125 -7.039062 0.984375 -7.859375 1.296875 -8.640625 C 1.609375 -9.410156 2.046875 -10.085938 2.609375 -10.671875 C 3.828125 -11.929688 5.289062 -12.5625 7 -12.5625 C 8.257812 -12.5625 9.414062 -12.203125 10.46875 -11.484375 C 11.507812 -10.753906 12.265625 -9.800781 12.734375 -8.625 L 11.328125 -8.625 C 10.660156 -9.851562 9.660156 -10.664062 8.328125 -11.0625 C 7.890625 -11.1875 7.382812 -11.25 6.8125 -11.25 C 6.25 -11.25 5.664062 -11.113281 5.0625 -10.84375 C 4.46875 -10.570312 3.953125 -10.203125 3.515625 -9.734375 C 2.566406 -8.753906 2.09375 -7.570312 2.09375 -6.1875 C 2.09375 -4.8125 2.566406 -3.628906 3.515625 -2.640625 C 4.472656 -1.628906 5.632812 -1.125 7 -1.125 C 7.925781 -1.125 8.78125 -1.367188 9.5625 -1.859375 C 10.320312 -2.347656 10.914062 -2.992188 11.34375 -3.796875 Z M 12.75 -3.796875 "/></g></g></g><g fill="#ffffff" fill-opacity="1"><g transform="translate(290.13339, 18.05969)"><g><path d="M 8.734375 0 L 1.375 0 L 1.375 -12.40625 L 8.734375 -12.40625 L 8.734375 -11.21875 L 2.640625 -11.21875 L 2.640625 -6.796875 L 8.546875 -6.796875 L 8.546875 -5.59375 L 2.640625 -5.59375 L 2.640625 -1.1875 L 8.734375 -1.1875 Z M 8.734375 0 "/></g></g></g></g></g><g transform="matrix(1, 0, 0, 1, 242, 290)"><g clip-path="url(#a9e766df4a)"><g fill="#ffffff" fill-opacity="1"><g transform="translate(0.933516, 60.718809)"><g><path d="M 14.265625 0 L 7.125 0 L 7.125 -39.734375 L 19.8125 -39.734375 L 46.046875 -4.390625 L 46.21875 -4.390625 L 46.21875 -39.734375 L 53.359375 -39.734375 L 53.359375 0 L 40.671875 0 L 14.4375 -35.359375 L 14.265625 -35.359375 Z M 14.265625 0 "/></g></g></g><g fill="#ffffff" fill-opacity="1"><g transform="translate(61.407398, 60.718809)"><g><path d="M 11.046875 -12.15625 L 11.046875 -4.84375 C 17.898438 -4.84375 23.507812 -4.929688 27.875 -5.109375 C 32.238281 -5.285156 37.070312 -5.609375 42.375 -6.078125 L 42.140625 0 C 34.066406 0.46875 26.972656 0.703125 20.859375 0.703125 C 16.109375 0.703125 12.523438 0.292969 10.109375 -0.515625 C 7.691406 -1.335938 6.003906 -2.769531 5.046875 -4.8125 C 4.097656 -6.863281 3.625 -9.9375 3.625 -14.03125 C 3.625 -18.425781 4.1875 -21.734375 5.3125 -23.953125 C 6.445312 -26.179688 8.445312 -27.734375 11.3125 -28.609375 C 14.175781 -29.484375 18.453125 -29.921875 24.140625 -29.921875 C 29.785156 -29.921875 34.039062 -29.5 36.90625 -28.65625 C 39.769531 -27.820312 41.765625 -26.351562 42.890625 -24.25 C 44.023438 -22.144531 44.59375 -18.988281 44.59375 -14.78125 C 44.59375 -13.726562 44.53125 -12.851562 44.40625 -12.15625 Z M 24.140625 -24.078125 C 19.578125 -24.078125 15.210938 -23.820312 11.046875 -23.3125 L 11.046875 -17.359375 L 37.171875 -17.359375 L 37.171875 -23.3125 C 32.992188 -23.820312 28.648438 -24.078125 24.140625 -24.078125 Z M 24.140625 -24.078125 "/></g></g></g><g fill="#ffffff" fill-opacity="1"><g transform="translate(108.793213, 60.718809)"><g><path d="M 36 -29.21875 L 42.828125 -29.21875 L 42.828125 0 L 38.046875 0 L 36.171875 -3.859375 C 32.234375 -2.492188 28.257812 -1.390625 24.25 -0.546875 C 20.238281 0.285156 16.789062 0.703125 13.90625 0.703125 C 10.863281 0.703125 8.628906 -0.0234375 7.203125 -1.484375 C 5.785156 -2.953125 5.078125 -5.300781 5.078125 -8.53125 L 5.078125 -29.21875 L 11.921875 -29.21875 L 11.921875 -5.140625 C 15.429688 -5.140625 19.335938 -5.566406 23.640625 -6.421875 C 27.941406 -7.285156 32.0625 -8.4375 36 -9.875 Z M 36 -29.21875 "/></g></g></g><g fill="#ffffff" fill-opacity="1"><g transform="translate(156.997042, 60.718809)"><g><path d="M 41.140625 -29.921875 C 42.035156 -29.921875 42.816406 -29.878906 43.484375 -29.796875 L 43.484375 -23.84375 C 43.015625 -23.882812 42.289062 -23.90625 41.3125 -23.90625 C 38.082031 -23.90625 35.015625 -23.335938 32.109375 -22.203125 C 29.210938 -21.078125 25.304688 -19.148438 20.390625 -16.421875 L 20.390625 -5.609375 L 38.5625 -5.609375 L 38.5625 0 L 3.625 0 L 3.625 -5.609375 L 13.5625 -5.609375 L 13.5625 -23.609375 L 3.625 -23.609375 L 3.625 -29.21875 L 18.46875 -29.21875 L 20.34375 -22.796875 C 24.695312 -25.171875 28.53125 -26.953125 31.84375 -28.140625 C 35.15625 -29.328125 38.253906 -29.921875 41.140625 -29.921875 Z M 41.140625 -29.921875 "/></g></g></g><g fill="#ffffff" fill-opacity="1"><g transform="translate(201.461406, 60.718809)"><g><path d="M 29.859375 -29.921875 C 33.328125 -29.921875 36.015625 -29.617188 37.921875 -29.015625 C 39.835938 -28.410156 41.179688 -27.414062 41.953125 -26.03125 C 42.734375 -24.644531 43.125 -22.707031 43.125 -20.21875 L 43.125 0 L 38.390625 0 L 36.9375 -2.34375 L 16.53125 0.40625 C 15.175781 0.601562 13.753906 0.703125 12.265625 0.703125 C 9.109375 0.703125 6.78125 -0.0546875 5.28125 -1.578125 C 3.78125 -3.097656 3.03125 -5.457031 3.03125 -8.65625 C 3.03125 -11.375 3.867188 -13.425781 5.546875 -14.8125 C 7.222656 -16.195312 9.910156 -17.046875 13.609375 -17.359375 L 36.34375 -19.40625 L 36.34375 -24.421875 C 32.445312 -24.421875 27.8125 -24.273438 22.4375 -23.984375 C 17.0625 -23.691406 12.054688 -23.3125 7.421875 -22.84375 L 7.65625 -28.984375 C 12.875 -29.253906 17.320312 -29.476562 21 -29.65625 C 24.6875 -29.832031 27.640625 -29.921875 29.859375 -29.921875 Z M 9.8125 -11.796875 L 10.40625 -4.328125 L 36.34375 -7.359375 L 36.34375 -14.203125 Z M 9.8125 -11.796875 "/></g></g></g></g></g><g clip-path="url(#fc7cce159b)"><g clip-path="url(#b027669743)"><g transform="matrix(1, 0, 0, 1, 247, 246)"><g clip-path="url(#4e4006c6cf)"><g clip-path="url(#f85479ef70)"><g clip-path="url(#c5ac31e8f0)"><g clip-path="url(#265c11d879)"><g clip-path="url(#a52453e4d0)"><g clip-path="url(#1fe60e2d47)"><path fill="url(#fdc9d04985)" d="M 159.777344 0.335938 L 319.503906 160.0625 L 159.777344 319.789062 L 0.046875 160.0625 Z M 159.777344 0.335938 " fill-rule="nonzero"/></g></g></g></g></g></g></g></g></g></svg>