<svg xmlns="http://www.w3.org/2000/svg" xmlns:xlink="http://www.w3.org/1999/xlink" width="1000" zoomAndPan="magnify" viewBox="0 0 750 749.999995" height="1000" preserveAspectRatio="xMidYMid meet" version="1.0"><defs><clipPath id="9b7229d9d8"><path d="M 238 39 L 262 39 L 262 63 L 238 63 Z M 238 39 " clip-rule="nonzero"/></clipPath><clipPath id="d406d2d799"><path d="M 264.121094 46.050781 L 246.03125 65.308594 L 236.011719 55.894531 L 254.101562 36.636719 Z M 264.121094 46.050781 " clip-rule="nonzero"/></clipPath><clipPath id="194ef9fbdb"><path d="M 259.414062 51.0625 L 250.753906 60.28125 C 248.15625 63.046875 243.804688 63.183594 241.039062 60.582031 C 238.269531 57.984375 238.136719 53.632812 240.734375 50.867188 L 249.394531 41.648438 C 251.996094 38.882812 256.34375 38.746094 259.113281 41.34375 C 261.878906 43.945312 262.015625 48.296875 259.414062 51.0625 Z M 259.414062 51.0625 " clip-rule="nonzero"/></clipPath><clipPath id="c7d14d18ca"><path d="M 0 0 L 24 0 L 24 24 L 0 24 Z M 0 0 " clip-rule="nonzero"/></clipPath><clipPath id="3f3b376923"><path d="M 26.121094 7.050781 L 8.03125 26.308594 L -1.988281 16.894531 L 16.101562 -2.363281 Z M 26.121094 7.050781 " clip-rule="nonzero"/></clipPath><clipPath id="ac99f4fb38"><path d="M 21.414062 12.0625 L 12.753906 21.28125 C 10.15625 24.046875 5.804688 24.183594 3.039062 21.582031 C 0.269531 18.984375 0.136719 14.632812 2.734375 11.867188 L 11.394531 2.648438 C 13.996094 -0.117188 18.34375 -0.253906 21.113281 2.34375 C 23.878906 4.945312 24.015625 9.296875 21.414062 12.0625 Z M 21.414062 12.0625 " clip-rule="nonzero"/></clipPath><clipPath id="3d7fb0907e"><rect x="0" width="24" y="0" height="24"/></clipPath><clipPath id="273c1fc191"><path d="M 220 58 L 244 58 L 244 82 L 220 82 Z M 220 58 " clip-rule="nonzero"/></clipPath><clipPath id="f7fe30a3d3"><path d="M 246.046875 65.289062 L 227.957031 84.546875 L 217.9375 75.132812 L 236.027344 55.875 Z M 246.046875 65.289062 " clip-rule="nonzero"/></clipPath><clipPath id="41d826b493"><path d="M 241.339844 70.300781 L 232.679688 79.515625 C 230.082031 82.285156 225.730469 82.417969 222.964844 79.820312 C 220.195312 77.21875 220.0625 72.871094 222.660156 70.101562 L 231.320312 60.886719 C 233.921875 58.117188 238.269531 57.984375 241.039062 60.582031 C 243.804688 63.183594 243.941406 67.53125 241.339844 70.300781 Z M 241.339844 70.300781 " clip-rule="nonzero"/></clipPath><clipPath id="0d61dea049"><path d="M 0 0 L 23.960938 0 L 23.960938 24 L 0 24 Z M 0 0 " clip-rule="nonzero"/></clipPath><clipPath id="b4b9d2c8e7"><path d="M 26.046875 7.289062 L 7.957031 26.546875 L -2.0625 17.132812 L 16.027344 -2.125 Z M 26.046875 7.289062 " clip-rule="nonzero"/></clipPath><clipPath id="2c3c2856fc"><path d="M 21.339844 12.300781 L 12.679688 21.515625 C 10.082031 24.285156 5.730469 24.417969 2.964844 21.820312 C 0.195312 19.21875 0.0625 14.871094 2.660156 12.101562 L 11.320312 2.886719 C 13.921875 0.117188 18.269531 -0.015625 21.039062 2.582031 C 23.804688 5.183594 23.941406 9.53125 21.339844 12.300781 Z M 21.339844 12.300781 " clip-rule="nonzero"/></clipPath><clipPath id="79093400f0"><rect x="0" width="24" y="0" height="24"/></clipPath><clipPath id="9a2a8c427f"><path d="M 202 77 L 226 77 L 226 101 L 202 101 Z M 202 77 " clip-rule="nonzero"/></clipPath><clipPath id="2ab74806af"><path d="M 227.972656 84.527344 L 209.882812 103.785156 L 199.863281 94.371094 L 217.953125 75.113281 Z M 227.972656 84.527344 " clip-rule="nonzero"/></clipPath><clipPath id="731e1452de"><path d="M 223.265625 89.535156 L 214.605469 98.753906 C 212.007812 101.523438 207.65625 101.65625 204.890625 99.058594 C 202.121094 96.457031 201.988281 92.109375 204.585938 89.339844 L 213.246094 80.121094 C 215.847656 77.355469 220.195312 77.21875 222.964844 79.820312 C 225.730469 82.417969 225.867188 86.769531 223.265625 89.535156 Z M 223.265625 89.535156 " clip-rule="nonzero"/></clipPath><clipPath id="c97cc5b27b"><path d="M 0 0.199219 L 23.960938 0.199219 L 23.960938 24 L 0 24 Z M 0 0.199219 " clip-rule="nonzero"/></clipPath><clipPath id="ffbca13baf"><path d="M 25.972656 7.527344 L 7.882812 26.785156 L -2.136719 17.371094 L 15.953125 -1.886719 Z M 25.972656 7.527344 " clip-rule="nonzero"/></clipPath><clipPath id="8c53acad98"><path d="M 21.265625 12.535156 L 12.605469 21.753906 C 10.007812 24.523438 5.65625 24.65625 2.890625 22.058594 C 0.121094 19.457031 -0.0117188 15.109375 2.585938 12.339844 L 11.246094 3.121094 C 13.847656 0.355469 18.195312 0.21875 20.964844 2.820312 C 23.730469 5.417969 23.867188 9.769531 21.265625 12.535156 Z M 21.265625 12.535156 " clip-rule="nonzero"/></clipPath><clipPath id="b96cea430a"><rect x="0" width="24" y="0" height="24"/></clipPath><clipPath id="0d14421365"><path d="M 184 97 L 208 97 L 208 121 L 184 121 Z M 184 97 " clip-rule="nonzero"/></clipPath><clipPath id="f43c6c33f3"><path d="M 209.898438 103.765625 L 191.808594 123.019531 L 181.789062 113.605469 L 199.878906 94.351562 Z M 209.898438 103.765625 " clip-rule="nonzero"/></clipPath><clipPath id="4872e5101a"><path d="M 205.191406 108.773438 L 196.53125 117.992188 C 193.933594 120.757812 189.582031 120.894531 186.816406 118.296875 C 184.046875 115.695312 183.914062 111.34375 186.511719 108.578125 L 195.171875 99.359375 C 197.773438 96.59375 202.121094 96.457031 204.890625 99.058594 C 207.65625 101.65625 207.792969 106.007812 205.191406 108.773438 Z M 205.191406 108.773438 " clip-rule="nonzero"/></clipPath><clipPath id="31ef0fb85e"><path d="M 0 0 L 23.960938 0 L 23.960938 24 L 0 24 Z M 0 0 " clip-rule="nonzero"/></clipPath><clipPath id="8f8293436d"><path d="M 25.898438 6.765625 L 7.808594 26.019531 L -2.210938 16.605469 L 15.878906 -2.648438 Z M 25.898438 6.765625 " clip-rule="nonzero"/></clipPath><clipPath id="5b25fad93b"><path d="M 21.191406 11.773438 L 12.53125 20.992188 C 9.933594 23.757812 5.582031 23.894531 2.816406 21.296875 C 0.046875 18.695312 -0.0859375 14.34375 2.511719 11.578125 L 11.171875 2.359375 C 13.773438 -0.40625 18.121094 -0.542969 20.890625 2.058594 C 23.65625 4.65625 23.792969 9.007812 21.191406 11.773438 Z M 21.191406 11.773438 " clip-rule="nonzero"/></clipPath><clipPath id="276fd8455a"><rect x="0" width="24" y="0" height="24"/></clipPath><clipPath id="d7f24f39d5"><path d="M 166 116 L 189 116 L 189 140 L 166 140 Z M 166 116 " clip-rule="nonzero"/></clipPath><clipPath id="6bf8eee6a3"><path d="M 191.824219 123.003906 L 173.730469 142.257812 L 163.710938 132.84375 L 181.804688 113.589844 Z M 191.824219 123.003906 " clip-rule="nonzero"/></clipPath><clipPath id="1d38ff3fd2"><path d="M 187.117188 128.011719 L 178.457031 137.230469 C 175.855469 139.996094 171.507812 140.132812 168.738281 137.53125 C 165.972656 134.933594 165.835938 130.582031 168.4375 127.816406 L 177.097656 118.597656 C 179.699219 115.832031 184.046875 115.695312 186.816406 118.296875 C 189.582031 120.894531 189.71875 125.246094 187.117188 128.011719 Z M 187.117188 128.011719 " clip-rule="nonzero"/></clipPath><clipPath id="eda1fb83eb"><path d="M 0 0 L 23 0 L 23 24 L 0 24 Z M 0 0 " clip-rule="nonzero"/></clipPath><clipPath id="6eaefca8a1"><path d="M 25.824219 7.003906 L 7.730469 26.257812 L -2.289062 16.84375 L 15.804688 -2.410156 Z M 25.824219 7.003906 " clip-rule="nonzero"/></clipPath><clipPath id="88c3c5faae"><path d="M 21.117188 12.011719 L 12.457031 21.230469 C 9.855469 23.996094 5.507812 24.132812 2.738281 21.53125 C -0.0273438 18.933594 -0.164062 14.582031 2.4375 11.816406 L 11.097656 2.597656 C 13.699219 -0.167969 18.046875 -0.304688 20.816406 2.296875 C 23.582031 4.894531 23.71875 9.246094 21.117188 12.011719 Z M 21.117188 12.011719 " clip-rule="nonzero"/></clipPath><clipPath id="24a67fb7a3"><rect x="0" width="23" y="0" height="24"/></clipPath><clipPath id="83753a7c1d"><path d="M 148 135 L 171 135 L 171 159 L 148 159 Z M 148 135 " clip-rule="nonzero"/></clipPath><clipPath id="da08960dbd"><path d="M 173.75 142.238281 L 155.65625 161.496094 L 145.636719 152.082031 L 163.730469 132.824219 Z M 173.75 142.238281 " clip-rule="nonzero"/></clipPath><clipPath id="2e6ee6d620"><path d="M 169.042969 147.25 L 160.382812 156.46875 C 157.78125 159.234375 153.433594 159.371094 150.664062 156.769531 C 147.898438 154.171875 147.761719 149.820312 150.363281 147.054688 L 159.023438 137.835938 C 161.625 135.070312 165.972656 134.933594 168.738281 137.53125 C 171.507812 140.132812 171.644531 144.484375 169.042969 147.25 Z M 169.042969 147.25 " clip-rule="nonzero"/></clipPath><clipPath id="9dd729a28f"><path d="M 0 0 L 23 0 L 23 24 L 0 24 Z M 0 0 " clip-rule="nonzero"/></clipPath><clipPath id="89993eb9e9"><path d="M 25.75 7.238281 L 7.65625 26.496094 L -2.363281 17.082031 L 15.730469 -2.175781 Z M 25.75 7.238281 " clip-rule="nonzero"/></clipPath><clipPath id="7b6999c311"><path d="M 21.042969 12.25 L 12.382812 21.46875 C 9.78125 24.234375 5.433594 24.371094 2.664062 21.769531 C -0.101562 19.171875 -0.238281 14.820312 2.363281 12.054688 L 11.023438 2.835938 C 13.625 0.0703125 17.972656 -0.0664062 20.738281 2.53125 C 23.507812 5.132812 23.644531 9.484375 21.042969 12.25 Z M 21.042969 12.25 " clip-rule="nonzero"/></clipPath><clipPath id="4ba4b7ac4b"><rect x="0" width="23" y="0" height="24"/></clipPath><clipPath id="9fda844c88"><path d="M 130 154 L 153 154 L 153 178 L 130 178 Z M 130 154 " clip-rule="nonzero"/></clipPath><clipPath id="4732fd70d2"><path d="M 155.675781 161.476562 L 137.582031 180.734375 L 127.5625 171.320312 L 145.65625 152.0625 Z M 155.675781 161.476562 " clip-rule="nonzero"/></clipPath><clipPath id="ffb0d84009"><path d="M 150.96875 166.488281 L 142.308594 175.703125 C 139.707031 178.472656 135.359375 178.605469 132.589844 176.007812 C 129.824219 173.40625 129.6875 169.058594 132.289062 166.289062 L 140.949219 157.074219 C 143.546875 154.304688 147.898438 154.171875 150.664062 156.769531 C 153.433594 159.371094 153.566406 163.71875 150.96875 166.488281 Z M 150.96875 166.488281 " clip-rule="nonzero"/></clipPath><clipPath id="5c7ad711c2"><path d="M 0 0 L 23 0 L 23 24 L 0 24 Z M 0 0 " clip-rule="nonzero"/></clipPath><clipPath id="9347d32a27"><path d="M 25.675781 7.476562 L 7.582031 26.734375 L -2.4375 17.320312 L 15.65625 -1.9375 Z M 25.675781 7.476562 " clip-rule="nonzero"/></clipPath><clipPath id="d07be3e73a"><path d="M 20.96875 12.488281 L 12.308594 21.703125 C 9.707031 24.472656 5.359375 24.605469 2.589844 22.007812 C -0.175781 19.40625 -0.3125 15.058594 2.289062 12.289062 L 10.949219 3.074219 C 13.546875 0.304688 17.898438 0.171875 20.664062 2.769531 C 23.433594 5.371094 23.566406 9.71875 20.96875 12.488281 Z M 20.96875 12.488281 " clip-rule="nonzero"/></clipPath><clipPath id="9a8202e1eb"><rect x="0" width="23" y="0" height="24"/></clipPath><clipPath id="4442e67750"><path d="M 254 10 L 292 10 L 292 48 L 254 48 Z M 254 10 " clip-rule="nonzero"/></clipPath><clipPath id="27275c9528"><path d="M 289.800781 9.183594 L 292.59375 45.792969 L 255.984375 48.589844 L 253.1875 11.976562 Z M 289.800781 9.183594 " clip-rule="nonzero"/></clipPath><clipPath id="f574c1032e"><path d="M 291.199219 27.488281 C 290.425781 17.378906 281.605469 9.808594 271.496094 10.578125 C 261.382812 11.351562 253.8125 20.171875 254.585938 30.28125 C 255.359375 40.394531 264.179688 47.964844 274.289062 47.191406 C 284.398438 46.417969 291.96875 37.597656 291.199219 27.488281 Z M 291.199219 27.488281 " clip-rule="nonzero"/></clipPath><clipPath id="70124d5451"><path d="M 0 0 L 38 0 L 38 38 L 0 38 Z M 0 0 " clip-rule="nonzero"/></clipPath><clipPath id="40acf09660"><path d="M 35.800781 -0.816406 L 38.59375 35.792969 L 1.984375 38.589844 L -0.8125 1.976562 Z M 35.800781 -0.816406 " clip-rule="nonzero"/></clipPath><clipPath id="5bc7bf8457"><path d="M 37.199219 17.488281 C 36.425781 7.378906 27.605469 -0.191406 17.496094 0.578125 C 7.382812 1.351562 -0.1875 10.171875 0.585938 20.28125 C 1.359375 30.394531 10.179688 37.964844 20.289062 37.191406 C 30.398438 36.417969 37.96875 27.597656 37.199219 17.488281 Z M 37.199219 17.488281 " clip-rule="nonzero"/></clipPath><clipPath id="d85c4fd5b2"><rect x="0" width="38" y="0" height="38"/></clipPath><clipPath id="2402b9d15c"><path d="M 0.839844 70 L 311.160156 70 L 311.160156 235 L 0.839844 235 Z M 0.839844 70 " clip-rule="nonzero"/></clipPath><clipPath id="758da29b37"><path d="M 139.101562 0.332031 L 175.820312 0.332031 L 175.820312 37.050781 L 139.101562 37.050781 Z M 139.101562 0.332031 " clip-rule="nonzero"/></clipPath><clipPath id="3efe1b3d2f"><path d="M 157.460938 0.332031 C 147.324219 0.332031 139.101562 8.550781 139.101562 18.691406 C 139.101562 28.832031 147.324219 37.050781 157.460938 37.050781 C 167.601562 37.050781 175.820312 28.832031 175.820312 18.691406 C 175.820312 8.550781 167.601562 0.332031 157.460938 0.332031 Z M 157.460938 0.332031 " clip-rule="nonzero"/></clipPath><clipPath id="f8988e1b26"><path d="M 0.101562 0.332031 L 36.820312 0.332031 L 36.820312 37.050781 L 0.101562 37.050781 Z M 0.101562 0.332031 " clip-rule="nonzero"/></clipPath><clipPath id="fde7ac9e79"><path d="M 18.460938 0.332031 C 8.324219 0.332031 0.101562 8.550781 0.101562 18.691406 C 0.101562 28.832031 8.324219 37.050781 18.460938 37.050781 C 28.601562 37.050781 36.820312 28.832031 36.820312 18.691406 C 36.820312 8.550781 28.601562 0.332031 18.460938 0.332031 Z M 18.460938 0.332031 " clip-rule="nonzero"/></clipPath><clipPath id="77fe4aa5e1"><rect x="0" width="37" y="0" height="38"/></clipPath><clipPath id="88c8e80f91"><path d="M 120.859375 116.066406 L 194.066406 116.066406 L 194.066406 189.269531 L 120.859375 189.269531 Z M 120.859375 116.066406 " clip-rule="nonzero"/></clipPath><clipPath id="ee2d3222d1"><path d="M 157.460938 116.066406 C 137.246094 116.066406 120.859375 132.453125 120.859375 152.667969 C 120.859375 172.882812 137.246094 189.269531 157.460938 189.269531 C 177.675781 189.269531 194.066406 172.882812 194.066406 152.667969 C 194.066406 132.453125 177.675781 116.066406 157.460938 116.066406 Z M 157.460938 116.066406 " clip-rule="nonzero"/></clipPath><clipPath id="ae95de23a0"><path d="M 0.859375 0.0664062 L 74.066406 0.0664062 L 74.066406 73.269531 L 0.859375 73.269531 Z M 0.859375 0.0664062 " clip-rule="nonzero"/></clipPath><clipPath id="a9741df81b"><path d="M 37.460938 0.0664062 C 17.246094 0.0664062 0.859375 16.453125 0.859375 36.667969 C 0.859375 56.882812 17.246094 73.269531 37.460938 73.269531 C 57.675781 73.269531 74.066406 56.882812 74.066406 36.667969 C 74.066406 16.453125 57.675781 0.0664062 37.460938 0.0664062 Z M 37.460938 0.0664062 " clip-rule="nonzero"/></clipPath><clipPath id="dec82150e0"><rect x="0" width="75" y="0" height="74"/></clipPath><clipPath id="b68f152760"><path d="M 139.101562 276.949219 L 175.820312 276.949219 L 175.820312 313.667969 L 139.101562 313.667969 Z M 139.101562 276.949219 " clip-rule="nonzero"/></clipPath><clipPath id="a8bce01a1b"><path d="M 157.460938 276.949219 C 147.324219 276.949219 139.101562 285.167969 139.101562 295.308594 C 139.101562 305.449219 147.324219 313.667969 157.460938 313.667969 C 167.601562 313.667969 175.820312 305.449219 175.820312 295.308594 C 175.820312 285.167969 167.601562 276.949219 157.460938 276.949219 Z M 157.460938 276.949219 " clip-rule="nonzero"/></clipPath><clipPath id="09c4de854a"><path d="M 0.101562 0.949219 L 36.820312 0.949219 L 36.820312 37.667969 L 0.101562 37.667969 Z M 0.101562 0.949219 " clip-rule="nonzero"/></clipPath><clipPath id="fffb54563f"><path d="M 18.460938 0.949219 C 8.324219 0.949219 0.101562 9.167969 0.101562 19.308594 C 0.101562 29.449219 8.324219 37.667969 18.460938 37.667969 C 28.601562 37.667969 36.820312 29.449219 36.820312 19.308594 C 36.820312 9.167969 28.601562 0.949219 18.460938 0.949219 Z M 18.460938 0.949219 " clip-rule="nonzero"/></clipPath><clipPath id="7a458bda00"><rect x="0" width="37" y="0" height="38"/></clipPath><clipPath id="21b4fda7df"><path d="M 1.035156 132.382812 L 37.753906 132.382812 L 37.753906 169.101562 L 1.035156 169.101562 Z M 1.035156 132.382812 " clip-rule="nonzero"/></clipPath><clipPath id="85dbb80c11"><path d="M 19.394531 132.382812 C 9.257812 132.382812 1.035156 140.605469 1.035156 150.742188 C 1.035156 160.882812 9.257812 169.101562 19.394531 169.101562 C 29.535156 169.101562 37.753906 160.882812 37.753906 150.742188 C 37.753906 140.605469 29.535156 132.382812 19.394531 132.382812 Z M 19.394531 132.382812 " clip-rule="nonzero"/></clipPath><clipPath id="11541243b2"><path d="M 0.0351562 0.382812 L 36.753906 0.382812 L 36.753906 37.101562 L 0.0351562 37.101562 Z M 0.0351562 0.382812 " clip-rule="nonzero"/></clipPath><clipPath id="d40742982d"><path d="M 18.394531 0.382812 C 8.257812 0.382812 0.0351562 8.605469 0.0351562 18.742188 C 0.0351562 28.882812 8.257812 37.101562 18.394531 37.101562 C 28.535156 37.101562 36.753906 28.882812 36.753906 18.742188 C 36.753906 8.605469 28.535156 0.382812 18.394531 0.382812 Z M 18.394531 0.382812 " clip-rule="nonzero"/></clipPath><clipPath id="aab735c216"><rect x="0" width="37" y="0" height="38"/></clipPath><clipPath id="5f91a38063"><path d="M 274.246094 132.382812 L 310.964844 132.382812 L 310.964844 169.101562 L 274.246094 169.101562 Z M 274.246094 132.382812 " clip-rule="nonzero"/></clipPath><clipPath id="7dd4f0c54c"><path d="M 292.605469 132.382812 C 282.464844 132.382812 274.246094 140.605469 274.246094 150.742188 C 274.246094 160.882812 282.464844 169.101562 292.605469 169.101562 C 302.742188 169.101562 310.964844 160.882812 310.964844 150.742188 C 310.964844 140.605469 302.742188 132.382812 292.605469 132.382812 Z M 292.605469 132.382812 " clip-rule="nonzero"/></clipPath><clipPath id="696cc30d75"><path d="M 0.246094 0.382812 L 36.964844 0.382812 L 36.964844 37.101562 L 0.246094 37.101562 Z M 0.246094 0.382812 " clip-rule="nonzero"/></clipPath><clipPath id="a3e1df790a"><path d="M 18.605469 0.382812 C 8.464844 0.382812 0.246094 8.605469 0.246094 18.742188 C 0.246094 28.882812 8.464844 37.101562 18.605469 37.101562 C 28.742188 37.101562 36.964844 28.882812 36.964844 18.742188 C 36.964844 8.605469 28.742188 0.382812 18.605469 0.382812 Z M 18.605469 0.382812 " clip-rule="nonzero"/></clipPath><clipPath id="e0a2394058"><rect x="0" width="37" y="0" height="38"/></clipPath><clipPath id="da430c85cd"><path d="M 0.839844 69 L 241 69 L 241 313.839844 L 0.839844 313.839844 Z M 0.839844 69 " clip-rule="nonzero"/></clipPath><clipPath id="e6858fd11e"><path d="M 11.53125 262.515625 L 48.25 262.515625 L 48.25 299.234375 L 11.53125 299.234375 Z M 11.53125 262.515625 " clip-rule="nonzero"/></clipPath><clipPath id="1644ad4090"><path d="M 29.890625 262.515625 C 19.753906 262.515625 11.53125 270.734375 11.53125 280.875 C 11.53125 291.015625 19.753906 299.234375 29.890625 299.234375 C 40.03125 299.234375 48.25 291.015625 48.25 280.875 C 48.25 270.734375 40.03125 262.515625 29.890625 262.515625 Z M 29.890625 262.515625 " clip-rule="nonzero"/></clipPath><clipPath id="550385278f"><path d="M 0.53125 0.515625 L 37.25 0.515625 L 37.25 37.234375 L 0.53125 37.234375 Z M 0.53125 0.515625 " clip-rule="nonzero"/></clipPath><clipPath id="ad22fdb577"><path d="M 18.890625 0.515625 C 8.753906 0.515625 0.53125 8.734375 0.53125 18.875 C 0.53125 29.015625 8.753906 37.234375 18.890625 37.234375 C 29.03125 37.234375 37.25 29.015625 37.25 18.875 C 37.25 8.734375 29.03125 0.515625 18.890625 0.515625 Z M 18.890625 0.515625 " clip-rule="nonzero"/></clipPath><clipPath id="2dd66015d9"><rect x="0" width="38" y="0" height="38"/></clipPath><clipPath id="0d8e1ac591"><rect x="0" width="312" y="0" height="314"/></clipPath></defs><g transform="matrix(1, 0, 0, 1, 219, 218)"><g clip-path="url(#0d8e1ac591)"><g clip-path="url(#9b7229d9d8)"><g clip-path="url(#d406d2d799)"><g clip-path="url(#194ef9fbdb)"><g transform="matrix(1, 0, 0, 1, 238, 39)"><g clip-path="url(#3d7fb0907e)"><g clip-path="url(#c7d14d18ca)"><g clip-path="url(#3f3b376923)"><g clip-path="url(#ac99f4fb38)"><path fill="#000000" d="M 26.121094 7.050781 L 8.03125 26.308594 L -1.988281 16.894531 L 16.101562 -2.363281 Z M 26.121094 7.050781 " fill-opacity="1" fill-rule="nonzero"/></g></g></g></g></g></g></g></g><g clip-path="url(#273c1fc191)"><g clip-path="url(#f7fe30a3d3)"><g clip-path="url(#41d826b493)"><g transform="matrix(1, 0, 0, 1, 220, 58)"><g clip-path="url(#79093400f0)"><g clip-path="url(#0d61dea049)"><g clip-path="url(#b4b9d2c8e7)"><g clip-path="url(#2c3c2856fc)"><path fill="#000000" d="M 26.046875 7.289062 L 7.957031 26.546875 L -2.0625 17.132812 L 16.027344 -2.125 Z M 26.046875 7.289062 " fill-opacity="1" fill-rule="nonzero"/></g></g></g></g></g></g></g></g><g clip-path="url(#9a2a8c427f)"><g clip-path="url(#2ab74806af)"><g clip-path="url(#731e1452de)"><g transform="matrix(1, 0, 0, 1, 202, 77)"><g clip-path="url(#b96cea430a)"><g clip-path="url(#c97cc5b27b)"><g clip-path="url(#ffbca13baf)"><g clip-path="url(#8c53acad98)"><path fill="#000000" d="M 25.972656 7.527344 L 7.882812 26.785156 L -2.136719 17.371094 L 15.953125 -1.886719 Z M 25.972656 7.527344 " fill-opacity="1" fill-rule="nonzero"/></g></g></g></g></g></g></g></g><g clip-path="url(#0d14421365)"><g clip-path="url(#f43c6c33f3)"><g clip-path="url(#4872e5101a)"><g transform="matrix(1, 0, 0, 1, 184, 97)"><g clip-path="url(#276fd8455a)"><g clip-path="url(#31ef0fb85e)"><g clip-path="url(#8f8293436d)"><g clip-path="url(#5b25fad93b)"><path fill="#000000" d="M 25.898438 6.765625 L 7.808594 26.019531 L -2.210938 16.605469 L 15.878906 -2.648438 Z M 25.898438 6.765625 " fill-opacity="1" fill-rule="nonzero"/></g></g></g></g></g></g></g></g><g clip-path="url(#d7f24f39d5)"><g clip-path="url(#6bf8eee6a3)"><g clip-path="url(#1d38ff3fd2)"><g transform="matrix(1, 0, 0, 1, 166, 116)"><g clip-path="url(#24a67fb7a3)"><g clip-path="url(#eda1fb83eb)"><g clip-path="url(#6eaefca8a1)"><g clip-path="url(#88c3c5faae)"><path fill="#000000" d="M 25.824219 7.003906 L 7.730469 26.257812 L -2.289062 16.84375 L 15.804688 -2.410156 Z M 25.824219 7.003906 " fill-opacity="1" fill-rule="nonzero"/></g></g></g></g></g></g></g></g><g clip-path="url(#83753a7c1d)"><g clip-path="url(#da08960dbd)"><g clip-path="url(#2e6ee6d620)"><g transform="matrix(1, 0, 0, 1, 148, 135)"><g clip-path="url(#4ba4b7ac4b)"><g clip-path="url(#9dd729a28f)"><g clip-path="url(#89993eb9e9)"><g clip-path="url(#7b6999c311)"><path fill="#000000" d="M 25.75 7.238281 L 7.65625 26.496094 L -2.363281 17.082031 L 15.730469 -2.175781 Z M 25.75 7.238281 " fill-opacity="1" fill-rule="nonzero"/></g></g></g></g></g></g></g></g><g clip-path="url(#9fda844c88)"><g clip-path="url(#4732fd70d2)"><g clip-path="url(#ffb0d84009)"><g transform="matrix(1, 0, 0, 1, 130, 154)"><g clip-path="url(#9a8202e1eb)"><g clip-path="url(#5c7ad711c2)"><g clip-path="url(#9347d32a27)"><g clip-path="url(#d07be3e73a)"><path fill="#000000" d="M 25.675781 7.476562 L 7.582031 26.734375 L -2.4375 17.320312 L 15.65625 -1.9375 Z M 25.675781 7.476562 " fill-opacity="1" fill-rule="nonzero"/></g></g></g></g></g></g></g></g><g clip-path="url(#4442e67750)"><g clip-path="url(#27275c9528)"><g clip-path="url(#f574c1032e)"><g transform="matrix(1, 0, 0, 1, 254, 10)"><g clip-path="url(#d85c4fd5b2)"><g clip-path="url(#70124d5451)"><g clip-path="url(#40acf09660)"><g clip-path="url(#5bc7bf8457)"><path fill="#000000" d="M 35.800781 -0.816406 L 38.59375 35.792969 L 1.984375 38.589844 L -0.8125 1.976562 Z M 35.800781 -0.816406 " fill-opacity="1" fill-rule="nonzero"/></g></g></g></g></g></g></g></g><g clip-path="url(#2402b9d15c)"><path stroke-linecap="butt" transform="matrix(2.404728, 0.00711209, -0.00711209, 2.404728, 35.3075, 144.508958)" fill="none" stroke-linejoin="miter" d="M -0.000419559 2.9998 L 101.612558 2.999789 " stroke="#000000" stroke-width="6" stroke-opacity="1" stroke-miterlimit="4"/></g><path stroke-linecap="butt" transform="matrix(0, -2.404738, 2.404738, 0, 150.243383, 278.190211)" fill="none" stroke-linejoin="miter" d="M -0.000497032 2.999764 L 101.613661 2.999764 " stroke="#000000" stroke-width="6" stroke-opacity="1" stroke-miterlimit="4"/><g clip-path="url(#758da29b37)"><g clip-path="url(#3efe1b3d2f)"><g transform="matrix(1, 0, 0, 1, 139, -0.000000000000085265)"><g clip-path="url(#77fe4aa5e1)"><g clip-path="url(#f8988e1b26)"><g clip-path="url(#fde7ac9e79)"><path fill="#000000" d="M 0.101562 0.332031 L 36.820312 0.332031 L 36.820312 37.050781 L 0.101562 37.050781 Z M 0.101562 0.332031 " fill-opacity="1" fill-rule="nonzero"/></g></g></g></g></g></g><g clip-path="url(#88c8e80f91)"><g clip-path="url(#ee2d3222d1)"><g transform="matrix(1, 0, 0, 1, 120, 116)"><g clip-path="url(#dec82150e0)"><g clip-path="url(#ae95de23a0)"><g clip-path="url(#a9741df81b)"><path fill="#000000" d="M 0.859375 0.0664062 L 74.066406 0.0664062 L 74.066406 73.269531 L 0.859375 73.269531 Z M 0.859375 0.0664062 " fill-opacity="1" fill-rule="nonzero"/></g></g></g></g></g></g><g clip-path="url(#b68f152760)"><g clip-path="url(#a8bce01a1b)"><g transform="matrix(1, 0, 0, 1, 139, 276)"><g clip-path="url(#7a458bda00)"><g clip-path="url(#09c4de854a)"><g clip-path="url(#fffb54563f)"><path fill="#000000" d="M 0.101562 0.949219 L 36.820312 0.949219 L 36.820312 37.667969 L 0.101562 37.667969 Z M 0.101562 0.949219 " fill-opacity="1" fill-rule="nonzero"/></g></g></g></g></g></g><g clip-path="url(#21b4fda7df)"><g clip-path="url(#85dbb80c11)"><g transform="matrix(1, 0, 0, 1, 1, 132)"><g clip-path="url(#aab735c216)"><g clip-path="url(#11541243b2)"><g clip-path="url(#d40742982d)"><path fill="#000000" d="M 0.0351562 0.382812 L 36.753906 0.382812 L 36.753906 37.101562 L 0.0351562 37.101562 Z M 0.0351562 0.382812 " fill-opacity="1" fill-rule="nonzero"/></g></g></g></g></g></g><g clip-path="url(#5f91a38063)"><g clip-path="url(#7dd4f0c54c)"><g transform="matrix(1, 0, 0, 1, 274, 132)"><g clip-path="url(#e0a2394058)"><g clip-path="url(#696cc30d75)"><g clip-path="url(#a3e1df790a)"><path fill="#000000" d="M 0.246094 0.382812 L 36.964844 0.382812 L 36.964844 37.101562 L 0.246094 37.101562 Z M 0.246094 0.382812 " fill-opacity="1" fill-rule="nonzero"/></g></g></g></g></g></g><g clip-path="url(#da430c85cd)"><path stroke-linecap="butt" transform="matrix(1.696966, -1.70384, 1.70384, 1.696966, 38.58623, 263.618943)" fill="none" stroke-linejoin="miter" d="M -0.000030787 2.501102 L 76.522482 2.500709 " stroke="#000000" stroke-width="5" stroke-opacity="1" stroke-miterlimit="4"/></g><g clip-path="url(#e6858fd11e)"><g clip-path="url(#1644ad4090)"><g transform="matrix(1, 0, 0, 1, 11, 262)"><g clip-path="url(#2dd66015d9)"><g clip-path="url(#550385278f)"><g clip-path="url(#ad22fdb577)"><path fill="#000000" d="M 0.53125 0.515625 L 37.25 0.515625 L 37.25 37.234375 L 0.53125 37.234375 Z M 0.53125 0.515625 " fill-opacity="1" fill-rule="nonzero"/></g></g></g></g></g></g></g></g></svg>