<svg xmlns="http://www.w3.org/2000/svg" xmlns:xlink="http://www.w3.org/1999/xlink" width="1000" zoomAndPan="magnify" viewBox="0 0 750 749.999995" height="1000" preserveAspectRatio="xMidYMid meet" version="1.0"><defs><clipPath id="7db68d896a"><path d="M 457 257 L 481 257 L 481 281 L 457 281 Z M 457 257 " clip-rule="nonzero"/></clipPath><clipPath id="d761add410"><path d="M 483.144531 264.074219 L 465.054688 283.328125 L 455.035156 273.917969 L 473.125 254.660156 Z M 483.144531 264.074219 " clip-rule="nonzero"/></clipPath><clipPath id="955fc2ba97"><path d="M 478.4375 269.082031 L 469.777344 278.300781 C 467.179688 281.066406 462.828125 281.203125 460.0625 278.605469 C 457.292969 276.003906 457.160156 271.65625 459.757812 268.886719 L 468.417969 259.667969 C 471.019531 256.902344 475.367188 256.765625 478.136719 259.367188 C 480.902344 261.964844 481.039062 266.316406 478.4375 269.082031 Z M 478.4375 269.082031 " clip-rule="nonzero"/></clipPath><clipPath id="5905cf72db"><path d="M 0 0 L 24 0 L 24 24 L 0 24 Z M 0 0 " clip-rule="nonzero"/></clipPath><clipPath id="ac659282e0"><path d="M 26.144531 7.074219 L 8.054688 26.328125 L -1.964844 16.917969 L 16.125 -2.339844 Z M 26.144531 7.074219 " clip-rule="nonzero"/></clipPath><clipPath id="b8112f19a0"><path d="M 21.4375 12.082031 L 12.777344 21.300781 C 10.179688 24.066406 5.828125 24.203125 3.0625 21.605469 C 0.292969 19.003906 0.160156 14.65625 2.757812 11.886719 L 11.417969 2.667969 C 14.019531 -0.0976562 18.367188 -0.234375 21.136719 2.367188 C 23.902344 4.964844 24.039062 9.316406 21.4375 12.082031 Z M 21.4375 12.082031 " clip-rule="nonzero"/></clipPath><clipPath id="d428c03471"><rect x="0" width="24" y="0" height="24"/></clipPath><clipPath id="6d31d5e6a1"><path d="M 439 276 L 463 276 L 463 300 L 439 300 Z M 439 276 " clip-rule="nonzero"/></clipPath><clipPath id="483cd22550"><path d="M 465.070312 283.3125 L 446.980469 302.566406 L 436.960938 293.152344 L 455.050781 273.898438 Z M 465.070312 283.3125 " clip-rule="nonzero"/></clipPath><clipPath id="fb34cb208a"><path d="M 460.363281 288.320312 L 451.703125 297.539062 C 449.105469 300.304688 444.753906 300.441406 441.988281 297.839844 C 439.21875 295.242188 439.085938 290.890625 441.683594 288.125 L 450.34375 278.90625 C 452.945312 276.140625 457.292969 276.003906 460.0625 278.605469 C 462.828125 281.203125 462.964844 285.554688 460.363281 288.320312 Z M 460.363281 288.320312 " clip-rule="nonzero"/></clipPath><clipPath id="98371f7a01"><path d="M 0 0 L 24 0 L 24 24 L 0 24 Z M 0 0 " clip-rule="nonzero"/></clipPath><clipPath id="fceb1fed5d"><path d="M 26.070312 7.3125 L 7.980469 26.566406 L -2.039062 17.152344 L 16.050781 -2.101562 Z M 26.070312 7.3125 " clip-rule="nonzero"/></clipPath><clipPath id="d3c0fffd7e"><path d="M 21.363281 12.320312 L 12.703125 21.539062 C 10.105469 24.304688 5.753906 24.441406 2.988281 21.839844 C 0.21875 19.242188 0.0859375 14.890625 2.683594 12.125 L 11.34375 2.90625 C 13.945312 0.140625 18.292969 0.00390625 21.0625 2.605469 C 23.828125 5.203125 23.964844 9.554688 21.363281 12.320312 Z M 21.363281 12.320312 " clip-rule="nonzero"/></clipPath><clipPath id="3780827471"><rect x="0" width="24" y="0" height="24"/></clipPath><clipPath id="1febaeef37"><path d="M 421 295 L 445 295 L 445 319 L 421 319 Z M 421 295 " clip-rule="nonzero"/></clipPath><clipPath id="c015047d10"><path d="M 446.996094 302.546875 L 428.902344 321.804688 L 418.882812 312.390625 L 436.976562 293.136719 Z M 446.996094 302.546875 " clip-rule="nonzero"/></clipPath><clipPath id="00541cda43"><path d="M 442.289062 307.558594 L 433.628906 316.777344 C 431.027344 319.542969 426.679688 319.679688 423.910156 317.078125 C 421.144531 314.480469 421.007812 310.128906 423.609375 307.363281 L 432.269531 298.144531 C 434.871094 295.378906 439.21875 295.242188 441.988281 297.839844 C 444.753906 300.441406 444.890625 304.792969 442.289062 307.558594 Z M 442.289062 307.558594 " clip-rule="nonzero"/></clipPath><clipPath id="eb39bd6f20"><path d="M 0 0.199219 L 23.960938 0.199219 L 23.960938 24 L 0 24 Z M 0 0.199219 " clip-rule="nonzero"/></clipPath><clipPath id="1bcd920028"><path d="M 25.996094 7.546875 L 7.902344 26.804688 L -2.117188 17.390625 L 15.976562 -1.863281 Z M 25.996094 7.546875 " clip-rule="nonzero"/></clipPath><clipPath id="bbbf94db66"><path d="M 21.289062 12.558594 L 12.628906 21.777344 C 10.027344 24.542969 5.679688 24.679688 2.910156 22.078125 C 0.144531 19.480469 0.0078125 15.128906 2.609375 12.363281 L 11.269531 3.144531 C 13.871094 0.378906 18.21875 0.242188 20.988281 2.839844 C 23.753906 5.441406 23.890625 9.792969 21.289062 12.558594 Z M 21.289062 12.558594 " clip-rule="nonzero"/></clipPath><clipPath id="ccb3386d86"><rect x="0" width="24" y="0" height="24"/></clipPath><clipPath id="ac545780d0"><path d="M 403 315 L 427 315 L 427 339 L 403 339 Z M 403 315 " clip-rule="nonzero"/></clipPath><clipPath id="4723a167be"><path d="M 428.921875 321.785156 L 410.828125 341.042969 L 400.808594 331.628906 L 418.902344 312.371094 Z M 428.921875 321.785156 " clip-rule="nonzero"/></clipPath><clipPath id="5b5a1fadee"><path d="M 424.214844 326.796875 L 415.554688 336.015625 C 412.953125 338.78125 408.605469 338.917969 405.835938 336.316406 C 403.070312 333.71875 402.933594 329.367188 405.535156 326.601562 L 414.195312 317.382812 C 416.792969 314.617188 421.144531 314.480469 423.910156 317.078125 C 426.679688 319.679688 426.8125 324.027344 424.214844 326.796875 Z M 424.214844 326.796875 " clip-rule="nonzero"/></clipPath><clipPath id="2171008c87"><path d="M 0 0 L 23.960938 0 L 23.960938 24 L 0 24 Z M 0 0 " clip-rule="nonzero"/></clipPath><clipPath id="73e3249bc6"><path d="M 25.921875 6.785156 L 7.828125 26.042969 L -2.191406 16.628906 L 15.902344 -2.628906 Z M 25.921875 6.785156 " clip-rule="nonzero"/></clipPath><clipPath id="6f32b9ed17"><path d="M 21.214844 11.796875 L 12.554688 21.015625 C 9.953125 23.78125 5.605469 23.917969 2.835938 21.316406 C 0.0703125 18.71875 -0.0664062 14.367188 2.535156 11.601562 L 11.195312 2.382812 C 13.792969 -0.382812 18.144531 -0.519531 20.910156 2.078125 C 23.679688 4.679688 23.8125 9.027344 21.214844 11.796875 Z M 21.214844 11.796875 " clip-rule="nonzero"/></clipPath><clipPath id="641e78b69c"><rect x="0" width="24" y="0" height="24"/></clipPath><clipPath id="4b9a2e1536"><path d="M 385 334 L 409 334 L 409 358 L 385 358 Z M 385 334 " clip-rule="nonzero"/></clipPath><clipPath id="cda254f68e"><path d="M 410.847656 341.023438 L 392.753906 360.28125 L 382.734375 350.867188 L 400.828125 331.609375 Z M 410.847656 341.023438 " clip-rule="nonzero"/></clipPath><clipPath id="9ab8df35b8"><path d="M 406.140625 346.035156 L 397.480469 355.25 C 394.878906 358.019531 390.53125 358.152344 387.761719 355.554688 C 384.996094 352.953125 384.859375 348.605469 387.460938 345.835938 L 396.121094 336.621094 C 398.71875 333.851562 403.070312 333.71875 405.835938 336.316406 C 408.605469 338.917969 408.738281 343.265625 406.140625 346.035156 Z M 406.140625 346.035156 " clip-rule="nonzero"/></clipPath><clipPath id="81ef300b43"><path d="M 0 0 L 23.960938 0 L 23.960938 24 L 0 24 Z M 0 0 " clip-rule="nonzero"/></clipPath><clipPath id="7aac1daf53"><path d="M 25.847656 7.023438 L 7.753906 26.28125 L -2.265625 16.867188 L 15.828125 -2.390625 Z M 25.847656 7.023438 " clip-rule="nonzero"/></clipPath><clipPath id="37c9019feb"><path d="M 21.140625 12.035156 L 12.480469 21.25 C 9.878906 24.019531 5.53125 24.152344 2.761719 21.554688 C -0.00390625 18.953125 -0.140625 14.605469 2.460938 11.835938 L 11.121094 2.621094 C 13.71875 -0.148438 18.070312 -0.28125 20.835938 2.316406 C 23.605469 4.917969 23.738281 9.265625 21.140625 12.035156 Z M 21.140625 12.035156 " clip-rule="nonzero"/></clipPath><clipPath id="384af97da1"><rect x="0" width="24" y="0" height="24"/></clipPath><clipPath id="e572dcec0d"><path d="M 367 353 L 390 353 L 390 377 L 367 377 Z M 367 353 " clip-rule="nonzero"/></clipPath><clipPath id="797f31386f"><path d="M 392.773438 360.261719 L 374.679688 379.515625 L 364.660156 370.105469 L 382.753906 350.847656 Z M 392.773438 360.261719 " clip-rule="nonzero"/></clipPath><clipPath id="855fb3d502"><path d="M 388.066406 365.269531 L 379.40625 374.488281 C 376.804688 377.253906 372.457031 377.390625 369.6875 374.792969 C 366.921875 372.191406 366.785156 367.84375 369.386719 365.074219 L 378.046875 355.855469 C 380.644531 353.089844 384.996094 352.953125 387.761719 355.554688 C 390.53125 358.152344 390.664062 362.503906 388.066406 365.269531 Z M 388.066406 365.269531 " clip-rule="nonzero"/></clipPath><clipPath id="6a78e2008c"><path d="M 0 0 L 23 0 L 23 24 L 0 24 Z M 0 0 " clip-rule="nonzero"/></clipPath><clipPath id="fdc658f298"><path d="M 25.773438 7.261719 L 7.679688 26.515625 L -2.339844 17.105469 L 15.753906 -2.152344 Z M 25.773438 7.261719 " clip-rule="nonzero"/></clipPath><clipPath id="3fb474e9e6"><path d="M 21.066406 12.269531 L 12.40625 21.488281 C 9.804688 24.253906 5.457031 24.390625 2.6875 21.792969 C -0.078125 19.191406 -0.214844 14.84375 2.386719 12.074219 L 11.046875 2.855469 C 13.644531 0.0898438 17.996094 -0.046875 20.761719 2.554688 C 23.53125 5.152344 23.664062 9.503906 21.066406 12.269531 Z M 21.066406 12.269531 " clip-rule="nonzero"/></clipPath><clipPath id="3b96deb8f6"><rect x="0" width="23" y="0" height="24"/></clipPath><clipPath id="e2950685ef"><path d="M 349 372 L 372 372 L 372 396 L 349 396 Z M 349 372 " clip-rule="nonzero"/></clipPath><clipPath id="cefc22e5af"><path d="M 374.699219 379.5 L 356.605469 398.753906 L 346.585938 389.339844 L 364.679688 370.085938 Z M 374.699219 379.5 " clip-rule="nonzero"/></clipPath><clipPath id="243834d9ec"><path d="M 369.992188 384.507812 L 361.332031 393.726562 C 358.730469 396.492188 354.382812 396.628906 351.613281 394.027344 C 348.847656 391.429688 348.710938 387.078125 351.3125 384.3125 L 359.972656 375.09375 C 362.570312 372.328125 366.921875 372.191406 369.6875 374.792969 C 372.457031 377.390625 372.589844 381.742188 369.992188 384.507812 Z M 369.992188 384.507812 " clip-rule="nonzero"/></clipPath><clipPath id="65a6b1ac5f"><path d="M 0 0 L 23 0 L 23 24 L 0 24 Z M 0 0 " clip-rule="nonzero"/></clipPath><clipPath id="dc05ee6043"><path d="M 25.699219 7.5 L 7.605469 26.753906 L -2.414062 17.339844 L 15.679688 -1.914062 Z M 25.699219 7.5 " clip-rule="nonzero"/></clipPath><clipPath id="bacf3bc1e2"><path d="M 20.992188 12.507812 L 12.332031 21.726562 C 9.730469 24.492188 5.382812 24.628906 2.613281 22.027344 C -0.152344 19.429688 -0.289062 15.078125 2.3125 12.3125 L 10.972656 3.09375 C 13.570312 0.328125 17.921875 0.191406 20.6875 2.792969 C 23.457031 5.390625 23.589844 9.742188 20.992188 12.507812 Z M 20.992188 12.507812 " clip-rule="nonzero"/></clipPath><clipPath id="3fe6d853db"><rect x="0" width="23" y="0" height="24"/></clipPath><clipPath id="78f6c06273"><path d="M 473 228 L 511 228 L 511 266 L 473 266 Z M 473 228 " clip-rule="nonzero"/></clipPath><clipPath id="f9c68b1aee"><path d="M 508.804688 227.183594 L 511.601562 263.792969 L 474.988281 266.589844 L 472.195312 229.976562 Z M 508.804688 227.183594 " clip-rule="nonzero"/></clipPath><clipPath id="25113af6cf"><path d="M 510.203125 245.488281 C 509.429688 235.378906 500.609375 227.808594 490.5 228.578125 C 480.390625 229.351562 472.820312 238.171875 473.589844 248.28125 C 474.363281 258.394531 483.183594 265.964844 493.292969 265.191406 C 503.40625 264.417969 510.976562 255.597656 510.203125 245.488281 Z M 510.203125 245.488281 " clip-rule="nonzero"/></clipPath><clipPath id="937a97a0c5"><path d="M 0 0 L 38 0 L 38 38 L 0 38 Z M 0 0 " clip-rule="nonzero"/></clipPath><clipPath id="4156f0c4ee"><path d="M 35.804688 -0.816406 L 38.601562 35.792969 L 1.988281 38.589844 L -0.804688 1.976562 Z M 35.804688 -0.816406 " clip-rule="nonzero"/></clipPath><clipPath id="fbc030fb31"><path d="M 37.203125 17.488281 C 36.429688 7.378906 27.609375 -0.191406 17.5 0.578125 C 7.390625 1.351562 -0.179688 10.171875 0.589844 20.28125 C 1.363281 30.394531 10.183594 37.964844 20.292969 37.191406 C 30.40625 36.417969 37.976562 27.597656 37.203125 17.488281 Z M 37.203125 17.488281 " clip-rule="nonzero"/></clipPath><clipPath id="9201996332"><rect x="0" width="38" y="0" height="38"/></clipPath><clipPath id="aa642b535f"><path d="M 358.101562 218.332031 L 394.820312 218.332031 L 394.820312 255.050781 L 358.101562 255.050781 Z M 358.101562 218.332031 " clip-rule="nonzero"/></clipPath><clipPath id="bfa8b79509"><path d="M 376.460938 218.332031 C 366.324219 218.332031 358.101562 226.550781 358.101562 236.691406 C 358.101562 246.832031 366.324219 255.050781 376.460938 255.050781 C 386.601562 255.050781 394.820312 246.832031 394.820312 236.691406 C 394.820312 226.550781 386.601562 218.332031 376.460938 218.332031 Z M 376.460938 218.332031 " clip-rule="nonzero"/></clipPath><clipPath id="cf276538ee"><path d="M 0.101562 0.332031 L 36.820312 0.332031 L 36.820312 37.050781 L 0.101562 37.050781 Z M 0.101562 0.332031 " clip-rule="nonzero"/></clipPath><clipPath id="a038a68e07"><path d="M 18.460938 0.332031 C 8.324219 0.332031 0.101562 8.550781 0.101562 18.691406 C 0.101562 28.832031 8.324219 37.050781 18.460938 37.050781 C 28.601562 37.050781 36.820312 28.832031 36.820312 18.691406 C 36.820312 8.550781 28.601562 0.332031 18.460938 0.332031 Z M 18.460938 0.332031 " clip-rule="nonzero"/></clipPath><clipPath id="dff3ab02f3"><rect x="0" width="37" y="0" height="38"/></clipPath><clipPath id="2ba1f448a8"><path d="M 339.859375 334.066406 L 413.066406 334.066406 L 413.066406 407.269531 L 339.859375 407.269531 Z M 339.859375 334.066406 " clip-rule="nonzero"/></clipPath><clipPath id="929c833d6c"><path d="M 376.460938 334.066406 C 356.246094 334.066406 339.859375 350.453125 339.859375 370.667969 C 339.859375 390.882812 356.246094 407.269531 376.460938 407.269531 C 396.675781 407.269531 413.066406 390.882812 413.066406 370.667969 C 413.066406 350.453125 396.675781 334.066406 376.460938 334.066406 Z M 376.460938 334.066406 " clip-rule="nonzero"/></clipPath><clipPath id="5ed41d2c24"><path d="M 0.859375 0.0664062 L 74.066406 0.0664062 L 74.066406 73.269531 L 0.859375 73.269531 Z M 0.859375 0.0664062 " clip-rule="nonzero"/></clipPath><clipPath id="486ec61ea2"><path d="M 37.460938 0.0664062 C 17.246094 0.0664062 0.859375 16.453125 0.859375 36.667969 C 0.859375 56.882812 17.246094 73.269531 37.460938 73.269531 C 57.675781 73.269531 74.066406 56.882812 74.066406 36.667969 C 74.066406 16.453125 57.675781 0.0664062 37.460938 0.0664062 Z M 37.460938 0.0664062 " clip-rule="nonzero"/></clipPath><clipPath id="b2041a07fe"><rect x="0" width="75" y="0" height="74"/></clipPath><clipPath id="e2ddf9f414"><path d="M 358.101562 494.949219 L 394.820312 494.949219 L 394.820312 531.667969 L 358.101562 531.667969 Z M 358.101562 494.949219 " clip-rule="nonzero"/></clipPath><clipPath id="9de1ba0c23"><path d="M 376.460938 494.949219 C 366.324219 494.949219 358.101562 503.167969 358.101562 513.308594 C 358.101562 523.449219 366.324219 531.667969 376.460938 531.667969 C 386.601562 531.667969 394.820312 523.449219 394.820312 513.308594 C 394.820312 503.167969 386.601562 494.949219 376.460938 494.949219 Z M 376.460938 494.949219 " clip-rule="nonzero"/></clipPath><clipPath id="affb3727f3"><path d="M 0.101562 0.949219 L 36.820312 0.949219 L 36.820312 37.667969 L 0.101562 37.667969 Z M 0.101562 0.949219 " clip-rule="nonzero"/></clipPath><clipPath id="06fd3aa247"><path d="M 18.460938 0.949219 C 8.324219 0.949219 0.101562 9.167969 0.101562 19.308594 C 0.101562 29.449219 8.324219 37.667969 18.460938 37.667969 C 28.601562 37.667969 36.820312 29.449219 36.820312 19.308594 C 36.820312 9.167969 28.601562 0.949219 18.460938 0.949219 Z M 18.460938 0.949219 " clip-rule="nonzero"/></clipPath><clipPath id="fb3a2ed6c6"><rect x="0" width="37" y="0" height="38"/></clipPath><clipPath id="deb7729547"><path d="M 220.035156 350.382812 L 256.753906 350.382812 L 256.753906 387.101562 L 220.035156 387.101562 Z M 220.035156 350.382812 " clip-rule="nonzero"/></clipPath><clipPath id="4fddb71226"><path d="M 238.394531 350.382812 C 228.257812 350.382812 220.035156 358.605469 220.035156 368.742188 C 220.035156 378.882812 228.257812 387.101562 238.394531 387.101562 C 248.535156 387.101562 256.753906 378.882812 256.753906 368.742188 C 256.753906 358.605469 248.535156 350.382812 238.394531 350.382812 Z M 238.394531 350.382812 " clip-rule="nonzero"/></clipPath><clipPath id="e848996981"><path d="M 0.0351562 0.382812 L 36.753906 0.382812 L 36.753906 37.101562 L 0.0351562 37.101562 Z M 0.0351562 0.382812 " clip-rule="nonzero"/></clipPath><clipPath id="3c503c30e1"><path d="M 18.394531 0.382812 C 8.257812 0.382812 0.0351562 8.605469 0.0351562 18.742188 C 0.0351562 28.882812 8.257812 37.101562 18.394531 37.101562 C 28.535156 37.101562 36.753906 28.882812 36.753906 18.742188 C 36.753906 8.605469 28.535156 0.382812 18.394531 0.382812 Z M 18.394531 0.382812 " clip-rule="nonzero"/></clipPath><clipPath id="a38d692688"><rect x="0" width="37" y="0" height="38"/></clipPath><clipPath id="132cb5cc3b"><path d="M 493.246094 350.382812 L 529.964844 350.382812 L 529.964844 387.101562 L 493.246094 387.101562 Z M 493.246094 350.382812 " clip-rule="nonzero"/></clipPath><clipPath id="2fcbb050b0"><path d="M 511.605469 350.382812 C 501.464844 350.382812 493.246094 358.605469 493.246094 368.742188 C 493.246094 378.882812 501.464844 387.101562 511.605469 387.101562 C 521.742188 387.101562 529.964844 378.882812 529.964844 368.742188 C 529.964844 358.605469 521.742188 350.382812 511.605469 350.382812 Z M 511.605469 350.382812 " clip-rule="nonzero"/></clipPath><clipPath id="09ca2b0eb5"><path d="M 0.246094 0.382812 L 36.964844 0.382812 L 36.964844 37.101562 L 0.246094 37.101562 Z M 0.246094 0.382812 " clip-rule="nonzero"/></clipPath><clipPath id="0c8b5b0998"><path d="M 18.605469 0.382812 C 8.464844 0.382812 0.246094 8.605469 0.246094 18.742188 C 0.246094 28.882812 8.464844 37.101562 18.605469 37.101562 C 28.742188 37.101562 36.964844 28.882812 36.964844 18.742188 C 36.964844 8.605469 28.742188 0.382812 18.605469 0.382812 Z M 18.605469 0.382812 " clip-rule="nonzero"/></clipPath><clipPath id="8c683069b3"><rect x="0" width="37" y="0" height="38"/></clipPath><clipPath id="6e5fcb0434"><path d="M 230.53125 480.515625 L 267.25 480.515625 L 267.25 517.234375 L 230.53125 517.234375 Z M 230.53125 480.515625 " clip-rule="nonzero"/></clipPath><clipPath id="111ba9b3e7"><path d="M 248.890625 480.515625 C 238.753906 480.515625 230.53125 488.734375 230.53125 498.875 C 230.53125 509.015625 238.753906 517.234375 248.890625 517.234375 C 259.03125 517.234375 267.25 509.015625 267.25 498.875 C 267.25 488.734375 259.03125 480.515625 248.890625 480.515625 Z M 248.890625 480.515625 " clip-rule="nonzero"/></clipPath><clipPath id="ed678262cb"><path d="M 0.53125 0.515625 L 37.25 0.515625 L 37.25 37.234375 L 0.53125 37.234375 Z M 0.53125 0.515625 " clip-rule="nonzero"/></clipPath><clipPath id="12e9f58d80"><path d="M 18.890625 0.515625 C 8.753906 0.515625 0.53125 8.734375 0.53125 18.875 C 0.53125 29.015625 8.753906 37.234375 18.890625 37.234375 C 29.03125 37.234375 37.25 29.015625 37.25 18.875 C 37.25 8.734375 29.03125 0.515625 18.890625 0.515625 Z M 18.890625 0.515625 " clip-rule="nonzero"/></clipPath><clipPath id="efe20fa9c6"><rect x="0" width="38" y="0" height="38"/></clipPath></defs><g clip-path="url(#7db68d896a)"><g clip-path="url(#d761add410)"><g clip-path="url(#955fc2ba97)"><g transform="matrix(1, 0, 0, 1, 457, 257)"><g clip-path="url(#d428c03471)"><g clip-path="url(#5905cf72db)"><g clip-path="url(#ac659282e0)"><g clip-path="url(#b8112f19a0)"><path fill="#ffffff" d="M 26.144531 7.074219 L 8.054688 26.328125 L -1.964844 16.917969 L 16.125 -2.339844 Z M 26.144531 7.074219 " fill-opacity="1" fill-rule="nonzero"/></g></g></g></g></g></g></g></g><g clip-path="url(#6d31d5e6a1)"><g clip-path="url(#483cd22550)"><g clip-path="url(#fb34cb208a)"><g transform="matrix(1, 0, 0, 1, 439, 276)"><g clip-path="url(#3780827471)"><g clip-path="url(#98371f7a01)"><g clip-path="url(#fceb1fed5d)"><g clip-path="url(#d3c0fffd7e)"><path fill="#ffffff" d="M 26.070312 7.3125 L 7.980469 26.566406 L -2.039062 17.152344 L 16.050781 -2.101562 Z M 26.070312 7.3125 " fill-opacity="1" fill-rule="nonzero"/></g></g></g></g></g></g></g></g><g clip-path="url(#1febaeef37)"><g clip-path="url(#c015047d10)"><g clip-path="url(#00541cda43)"><g transform="matrix(1, 0, 0, 1, 421, 295)"><g clip-path="url(#ccb3386d86)"><g clip-path="url(#eb39bd6f20)"><g clip-path="url(#1bcd920028)"><g clip-path="url(#bbbf94db66)"><path fill="#ffffff" d="M 25.996094 7.546875 L 7.902344 26.804688 L -2.117188 17.390625 L 15.976562 -1.863281 Z M 25.996094 7.546875 " fill-opacity="1" fill-rule="nonzero"/></g></g></g></g></g></g></g></g><g clip-path="url(#ac545780d0)"><g clip-path="url(#4723a167be)"><g clip-path="url(#5b5a1fadee)"><g transform="matrix(1, 0, 0, 1, 403, 315)"><g clip-path="url(#641e78b69c)"><g clip-path="url(#2171008c87)"><g clip-path="url(#73e3249bc6)"><g clip-path="url(#6f32b9ed17)"><path fill="#ffffff" d="M 25.921875 6.785156 L 7.828125 26.042969 L -2.191406 16.628906 L 15.902344 -2.628906 Z M 25.921875 6.785156 " fill-opacity="1" fill-rule="nonzero"/></g></g></g></g></g></g></g></g><g clip-path="url(#4b9a2e1536)"><g clip-path="url(#cda254f68e)"><g clip-path="url(#9ab8df35b8)"><g transform="matrix(1, 0, 0, 1, 385, 334)"><g clip-path="url(#384af97da1)"><g clip-path="url(#81ef300b43)"><g clip-path="url(#7aac1daf53)"><g clip-path="url(#37c9019feb)"><path fill="#ffffff" d="M 25.847656 7.023438 L 7.753906 26.28125 L -2.265625 16.867188 L 15.828125 -2.390625 Z M 25.847656 7.023438 " fill-opacity="1" fill-rule="nonzero"/></g></g></g></g></g></g></g></g><g clip-path="url(#e572dcec0d)"><g clip-path="url(#797f31386f)"><g clip-path="url(#855fb3d502)"><g transform="matrix(1, 0, 0, 1, 367, 353)"><g clip-path="url(#3b96deb8f6)"><g clip-path="url(#6a78e2008c)"><g clip-path="url(#fdc658f298)"><g clip-path="url(#3fb474e9e6)"><path fill="#ffffff" d="M 25.773438 7.261719 L 7.679688 26.515625 L -2.339844 17.105469 L 15.753906 -2.152344 Z M 25.773438 7.261719 " fill-opacity="1" fill-rule="nonzero"/></g></g></g></g></g></g></g></g><g clip-path="url(#e2950685ef)"><g clip-path="url(#cefc22e5af)"><g clip-path="url(#243834d9ec)"><g transform="matrix(1, 0, 0, 1, 349, 372)"><g clip-path="url(#3fe6d853db)"><g clip-path="url(#65a6b1ac5f)"><g clip-path="url(#dc05ee6043)"><g clip-path="url(#bacf3bc1e2)"><path fill="#ffffff" d="M 25.699219 7.5 L 7.605469 26.753906 L -2.414062 17.339844 L 15.679688 -1.914062 Z M 25.699219 7.5 " fill-opacity="1" fill-rule="nonzero"/></g></g></g></g></g></g></g></g><g clip-path="url(#78f6c06273)"><g clip-path="url(#f9c68b1aee)"><g clip-path="url(#25113af6cf)"><g transform="matrix(1, 0, 0, 1, 473, 228)"><g clip-path="url(#9201996332)"><g clip-path="url(#937a97a0c5)"><g clip-path="url(#4156f0c4ee)"><g clip-path="url(#fbc030fb31)"><path fill="#ffffff" d="M 35.804688 -0.816406 L 38.601562 35.792969 L 1.988281 38.589844 L -0.804688 1.976562 Z M 35.804688 -0.816406 " fill-opacity="1" fill-rule="nonzero"/></g></g></g></g></g></g></g></g><path stroke-linecap="butt" transform="matrix(0.749997, 0.00221815, -0.00221815, 0.749997, 254.307237, 362.598166)" fill="none" stroke-linejoin="miter" d="M -0.00134694 9.499367 L 325.80217 9.499334 " stroke="#ffffff" stroke-width="19" stroke-opacity="1" stroke-miterlimit="4"/><path stroke-linecap="butt" transform="matrix(0, -0.75, 0.75, 0, 369.334437, 496.192076)" fill="none" stroke-linejoin="miter" d="M 0.000892759 9.502002 L 325.802992 9.502002 " stroke="#ffffff" stroke-width="19" stroke-opacity="1" stroke-miterlimit="4"/><g clip-path="url(#aa642b535f)"><g clip-path="url(#bfa8b79509)"><g transform="matrix(1, 0, 0, 1, 358, 218)"><g clip-path="url(#dff3ab02f3)"><g clip-path="url(#cf276538ee)"><g clip-path="url(#a038a68e07)"><path fill="#ffffff" d="M 0.101562 0.332031 L 36.820312 0.332031 L 36.820312 37.050781 L 0.101562 37.050781 Z M 0.101562 0.332031 " fill-opacity="1" fill-rule="nonzero"/></g></g></g></g></g></g><g clip-path="url(#2ba1f448a8)"><g clip-path="url(#929c833d6c)"><g transform="matrix(1, 0, 0, 1, 339, 334)"><g clip-path="url(#b2041a07fe)"><g clip-path="url(#5ed41d2c24)"><g clip-path="url(#486ec61ea2)"><path fill="#ffffff" d="M 0.859375 0.0664062 L 74.066406 0.0664062 L 74.066406 73.269531 L 0.859375 73.269531 Z M 0.859375 0.0664062 " fill-opacity="1" fill-rule="nonzero"/></g></g></g></g></g></g><g clip-path="url(#e2ddf9f414)"><g clip-path="url(#9de1ba0c23)"><g transform="matrix(1, 0, 0, 1, 358, 494)"><g clip-path="url(#fb3a2ed6c6)"><g clip-path="url(#affb3727f3)"><g clip-path="url(#06fd3aa247)"><path fill="#ffffff" d="M 0.101562 0.949219 L 36.820312 0.949219 L 36.820312 37.667969 L 0.101562 37.667969 Z M 0.101562 0.949219 " fill-opacity="1" fill-rule="nonzero"/></g></g></g></g></g></g><g clip-path="url(#deb7729547)"><g clip-path="url(#4fddb71226)"><g transform="matrix(1, 0, 0, 1, 220, 350)"><g clip-path="url(#a38d692688)"><g clip-path="url(#e848996981)"><g clip-path="url(#3c503c30e1)"><path fill="#ffffff" d="M 0.0351562 0.382812 L 36.753906 0.382812 L 36.753906 37.101562 L 0.0351562 37.101562 Z M 0.0351562 0.382812 " fill-opacity="1" fill-rule="nonzero"/></g></g></g></g></g></g><g clip-path="url(#132cb5cc3b)"><g clip-path="url(#2fcbb050b0)"><g transform="matrix(1, 0, 0, 1, 493, 350)"><g clip-path="url(#8c683069b3)"><g clip-path="url(#09ca2b0eb5)"><g clip-path="url(#0c8b5b0998)"><path fill="#ffffff" d="M 0.246094 0.382812 L 36.964844 0.382812 L 36.964844 37.101562 L 0.246094 37.101562 Z M 0.246094 0.382812 " fill-opacity="1" fill-rule="nonzero"/></g></g></g></g></g></g><path stroke-linecap="butt" transform="matrix(0.529257, -0.531401, 0.531401, 0.529257, 257.595751, 481.630053)" fill="none" stroke-linejoin="miter" d="M 0.00143865 7.99988 L 245.356945 7.998624 " stroke="#ffffff" stroke-width="16" stroke-opacity="1" stroke-miterlimit="4"/><g clip-path="url(#6e5fcb0434)"><g clip-path="url(#111ba9b3e7)"><g transform="matrix(1, 0, 0, 1, 230, 480)"><g clip-path="url(#efe20fa9c6)"><g clip-path="url(#ed678262cb)"><g clip-path="url(#12e9f58d80)"><path fill="#ffffff" d="M 0.53125 0.515625 L 37.25 0.515625 L 37.25 37.234375 L 0.53125 37.234375 Z M 0.53125 0.515625 " fill-opacity="1" fill-rule="nonzero"/></g></g></g></g></g></g></svg>