<svg xmlns="http://www.w3.org/2000/svg" xmlns:xlink="http://www.w3.org/1999/xlink" width="1000" zoomAndPan="magnify" viewBox="0 0 750 749.999995" height="1000" preserveAspectRatio="xMidYMid meet" version="1.0"><defs><g/><clipPath id="16eeb7d75e"><path d="M 60 73 L 66 73 L 66 80 L 60 80 Z M 60 73 " clip-rule="nonzero"/></clipPath><clipPath id="734a2600ee"><path d="M 66.550781 75.605469 L 62.039062 80.410156 L 59.539062 78.0625 L 64.050781 73.261719 Z M 66.550781 75.605469 " clip-rule="nonzero"/></clipPath><clipPath id="4b7e5013e0"><path d="M 65.375 76.855469 L 63.214844 79.15625 C 62.566406 79.84375 61.484375 79.878906 60.792969 79.230469 C 60.101562 78.582031 60.070312 77.496094 60.71875 76.808594 L 62.878906 74.507812 C 63.527344 73.820312 64.609375 73.785156 65.300781 74.433594 C 65.988281 75.082031 66.023438 76.167969 65.375 76.855469 Z M 65.375 76.855469 " clip-rule="nonzero"/></clipPath><clipPath id="f684624c62"><path d="M 0 0.71875 L 6 0.71875 L 6 6.960938 L 0 6.960938 Z M 0 0.71875 " clip-rule="nonzero"/></clipPath><clipPath id="71c3188a39"><path d="M 6.550781 2.605469 L 2.039062 7.410156 L -0.460938 5.0625 L 4.050781 0.261719 Z M 6.550781 2.605469 " clip-rule="nonzero"/></clipPath><clipPath id="2dfd101bd5"><path d="M 5.375 3.855469 L 3.214844 6.15625 C 2.566406 6.84375 1.484375 6.878906 0.792969 6.230469 C 0.101562 5.582031 0.0703125 4.496094 0.71875 3.808594 L 2.878906 1.507812 C 3.527344 0.820312 4.609375 0.785156 5.300781 1.433594 C 5.988281 2.082031 6.023438 3.167969 5.375 3.855469 Z M 5.375 3.855469 " clip-rule="nonzero"/></clipPath><clipPath id="00dc3ee879"><rect x="0" width="6" y="0" height="7"/></clipPath><clipPath id="aa46c4efb0"><path d="M 55 78 L 62 78 L 62 85 L 55 85 Z M 55 78 " clip-rule="nonzero"/></clipPath><clipPath id="be7bc58544"><path d="M 62.042969 80.40625 L 57.53125 85.207031 L 55.03125 82.859375 L 59.542969 78.058594 Z M 62.042969 80.40625 " clip-rule="nonzero"/></clipPath><clipPath id="73e31776f4"><path d="M 60.867188 81.652344 L 58.707031 83.953125 C 58.0625 84.640625 56.976562 84.675781 56.285156 84.027344 C 55.597656 83.378906 55.5625 82.292969 56.210938 81.605469 L 58.371094 79.304688 C 59.019531 78.617188 60.101562 78.582031 60.792969 79.230469 C 61.484375 79.878906 61.515625 80.964844 60.867188 81.652344 Z M 60.867188 81.652344 " clip-rule="nonzero"/></clipPath><clipPath id="5aec0f28ac"><path d="M 0.519531 0.519531 L 6.519531 0.519531 L 6.519531 6.761719 L 0.519531 6.761719 Z M 0.519531 0.519531 " clip-rule="nonzero"/></clipPath><clipPath id="1003363f52"><path d="M 7.042969 2.40625 L 2.53125 7.207031 L 0.03125 4.859375 L 4.542969 0.0585938 Z M 7.042969 2.40625 " clip-rule="nonzero"/></clipPath><clipPath id="3d156fe013"><path d="M 5.867188 3.652344 L 3.707031 5.953125 C 3.0625 6.640625 1.976562 6.675781 1.285156 6.027344 C 0.597656 5.378906 0.5625 4.292969 1.210938 3.605469 L 3.371094 1.304688 C 4.019531 0.617188 5.101562 0.582031 5.792969 1.230469 C 6.484375 1.878906 6.515625 2.964844 5.867188 3.652344 Z M 5.867188 3.652344 " clip-rule="nonzero"/></clipPath><clipPath id="13da2f8b02"><rect x="0" width="7" y="0" height="7"/></clipPath><clipPath id="79604cc2a7"><path d="M 51 83 L 57 83 L 57 90 L 51 90 Z M 51 83 " clip-rule="nonzero"/></clipPath><clipPath id="b8e81b6138"><path d="M 57.535156 85.203125 L 53.023438 90.003906 L 50.523438 87.65625 L 55.035156 82.855469 Z M 57.535156 85.203125 " clip-rule="nonzero"/></clipPath><clipPath id="031ccb3ccb"><path d="M 56.363281 86.449219 L 54.203125 88.75 C 53.554688 89.4375 52.46875 89.472656 51.777344 88.824219 C 51.089844 88.175781 51.054688 87.09375 51.703125 86.402344 L 53.863281 84.101562 C 54.511719 83.414062 55.597656 83.378906 56.285156 84.027344 C 56.976562 84.675781 57.007812 85.761719 56.363281 86.449219 Z M 56.363281 86.449219 " clip-rule="nonzero"/></clipPath><clipPath id="fb99788c62"><path d="M 0 0.320312 L 6 0.320312 L 6 6.558594 L 0 6.558594 Z M 0 0.320312 " clip-rule="nonzero"/></clipPath><clipPath id="75937ca924"><path d="M 6.535156 2.203125 L 2.023438 7.003906 L -0.476562 4.65625 L 4.035156 -0.144531 Z M 6.535156 2.203125 " clip-rule="nonzero"/></clipPath><clipPath id="477060517a"><path d="M 5.363281 3.449219 L 3.203125 5.75 C 2.554688 6.4375 1.46875 6.472656 0.777344 5.824219 C 0.0898438 5.175781 0.0546875 4.09375 0.703125 3.402344 L 2.863281 1.101562 C 3.511719 0.414062 4.597656 0.378906 5.285156 1.027344 C 5.976562 1.675781 6.007812 2.761719 5.363281 3.449219 Z M 5.363281 3.449219 " clip-rule="nonzero"/></clipPath><clipPath id="d252c5bda2"><rect x="0" width="6" y="0" height="7"/></clipPath><clipPath id="f7ed42c224"><path d="M 46 88 L 53 88 L 53 95 L 46 95 Z M 46 88 " clip-rule="nonzero"/></clipPath><clipPath id="6115664e64"><path d="M 53.027344 90 L 48.515625 94.800781 L 46.019531 92.453125 L 50.53125 87.652344 Z M 53.027344 90 " clip-rule="nonzero"/></clipPath><clipPath id="6e349e25bf"><path d="M 51.855469 91.246094 L 49.695312 93.546875 C 49.046875 94.234375 47.960938 94.269531 47.273438 93.621094 C 46.582031 92.972656 46.546875 91.890625 47.195312 91.199219 L 49.355469 88.898438 C 50.003906 88.210938 51.089844 88.175781 51.777344 88.824219 C 52.46875 89.472656 52.503906 90.558594 51.855469 91.246094 Z M 51.855469 91.246094 " clip-rule="nonzero"/></clipPath><clipPath id="b0b4b56b0f"><path d="M 0.398438 0.121094 L 6.640625 0.121094 L 6.640625 6.359375 L 0.398438 6.359375 Z M 0.398438 0.121094 " clip-rule="nonzero"/></clipPath><clipPath id="d97da7fc57"><path d="M 7.027344 2 L 2.515625 6.800781 L 0.0195312 4.453125 L 4.53125 -0.347656 Z M 7.027344 2 " clip-rule="nonzero"/></clipPath><clipPath id="869df927d1"><path d="M 5.855469 3.246094 L 3.695312 5.546875 C 3.046875 6.234375 1.960938 6.269531 1.273438 5.621094 C 0.582031 4.972656 0.546875 3.890625 1.195312 3.199219 L 3.355469 0.898438 C 4.003906 0.210938 5.089844 0.175781 5.777344 0.824219 C 6.46875 1.472656 6.503906 2.558594 5.855469 3.246094 Z M 5.855469 3.246094 " clip-rule="nonzero"/></clipPath><clipPath id="278b9068a3"><rect x="0" width="7" y="0" height="7"/></clipPath><clipPath id="ef1be060aa"><path d="M 42 93 L 48 93 L 48 99 L 42 99 Z M 42 93 " clip-rule="nonzero"/></clipPath><clipPath id="2dde76055f"><path d="M 48.519531 94.796875 L 44.007812 99.597656 L 41.511719 97.25 L 46.023438 92.449219 Z M 48.519531 94.796875 " clip-rule="nonzero"/></clipPath><clipPath id="9c02723a67"><path d="M 47.347656 96.042969 L 45.1875 98.34375 C 44.539062 99.035156 43.453125 99.066406 42.765625 98.417969 C 42.074219 97.769531 42.042969 96.6875 42.6875 95.996094 L 44.847656 93.699219 C 45.496094 93.007812 46.582031 92.972656 47.273438 93.621094 C 47.960938 94.269531 47.996094 95.355469 47.347656 96.042969 Z M 47.347656 96.042969 " clip-rule="nonzero"/></clipPath><clipPath id="08e4c2db14"><path d="M 0 0 L 6 0 L 6 6 L 0 6 Z M 0 0 " clip-rule="nonzero"/></clipPath><clipPath id="b9ebe4551c"><path d="M 6.519531 1.796875 L 2.007812 6.597656 L -0.488281 4.25 L 4.023438 -0.550781 Z M 6.519531 1.796875 " clip-rule="nonzero"/></clipPath><clipPath id="ecb25ea600"><path d="M 5.347656 3.042969 L 3.1875 5.34375 C 2.539062 6.035156 1.453125 6.066406 0.765625 5.417969 C 0.0742188 4.769531 0.0429688 3.6875 0.6875 2.996094 L 2.847656 0.699219 C 3.496094 0.0078125 4.582031 -0.0273438 5.273438 0.621094 C 5.960938 1.269531 5.996094 2.355469 5.347656 3.042969 Z M 5.347656 3.042969 " clip-rule="nonzero"/></clipPath><clipPath id="2e20874580"><rect x="0" width="6" y="0" height="6"/></clipPath><clipPath id="3a456c2b52"><path d="M 37 97 L 44 97 L 44 104 L 37 104 Z M 37 97 " clip-rule="nonzero"/></clipPath><clipPath id="3b7e6f0040"><path d="M 44.015625 99.59375 L 39.503906 104.394531 L 37.003906 102.046875 L 41.515625 97.246094 Z M 44.015625 99.59375 " clip-rule="nonzero"/></clipPath><clipPath id="f104410dee"><path d="M 42.839844 100.84375 L 40.679688 103.140625 C 40.03125 103.832031 38.949219 103.863281 38.257812 103.214844 C 37.566406 102.566406 37.535156 101.484375 38.183594 100.792969 L 40.34375 98.496094 C 40.988281 97.804688 42.074219 97.769531 42.765625 98.417969 C 43.453125 99.066406 43.488281 100.152344 42.839844 100.84375 Z M 42.839844 100.84375 " clip-rule="nonzero"/></clipPath><clipPath id="1f9508ff1f"><path d="M 0.519531 0.71875 L 6.519531 0.71875 L 6.519531 6.960938 L 0.519531 6.960938 Z M 0.519531 0.71875 " clip-rule="nonzero"/></clipPath><clipPath id="f938b46626"><path d="M 7.015625 2.59375 L 2.503906 7.394531 L 0.00390625 5.046875 L 4.515625 0.246094 Z M 7.015625 2.59375 " clip-rule="nonzero"/></clipPath><clipPath id="f552bb7139"><path d="M 5.839844 3.84375 L 3.679688 6.140625 C 3.03125 6.832031 1.949219 6.863281 1.257812 6.214844 C 0.566406 5.566406 0.535156 4.484375 1.183594 3.792969 L 3.34375 1.496094 C 3.988281 0.804688 5.074219 0.769531 5.765625 1.417969 C 6.453125 2.066406 6.488281 3.152344 5.839844 3.84375 Z M 5.839844 3.84375 " clip-rule="nonzero"/></clipPath><clipPath id="3c37211e45"><rect x="0" width="7" y="0" height="7"/></clipPath><clipPath id="a1dcf62d33"><path d="M 33 102 L 39 102 L 39 109 L 33 109 Z M 33 102 " clip-rule="nonzero"/></clipPath><clipPath id="6e50897d8d"><path d="M 39.507812 104.390625 L 34.996094 109.191406 L 32.496094 106.84375 L 37.007812 102.042969 Z M 39.507812 104.390625 " clip-rule="nonzero"/></clipPath><clipPath id="9c5fc5c2be"><path d="M 38.332031 105.640625 L 36.171875 107.9375 C 35.527344 108.628906 34.441406 108.660156 33.75 108.011719 C 33.0625 107.363281 33.027344 106.28125 33.675781 105.589844 L 35.835938 103.292969 C 36.484375 102.601562 37.566406 102.566406 38.257812 103.214844 C 38.949219 103.863281 38.980469 104.949219 38.332031 105.640625 Z M 38.332031 105.640625 " clip-rule="nonzero"/></clipPath><clipPath id="6b7a9f83da"><path d="M 0 0.519531 L 6 0.519531 L 6 6.761719 L 0 6.761719 Z M 0 0.519531 " clip-rule="nonzero"/></clipPath><clipPath id="72aad539ab"><path d="M 6.507812 2.390625 L 1.996094 7.191406 L -0.503906 4.84375 L 4.007812 0.0429688 Z M 6.507812 2.390625 " clip-rule="nonzero"/></clipPath><clipPath id="df0063e72b"><path d="M 5.332031 3.640625 L 3.171875 5.9375 C 2.527344 6.628906 1.441406 6.660156 0.75 6.011719 C 0.0625 5.363281 0.0273438 4.28125 0.675781 3.589844 L 2.835938 1.292969 C 3.484375 0.601562 4.566406 0.566406 5.257812 1.214844 C 5.949219 1.863281 5.980469 2.949219 5.332031 3.640625 Z M 5.332031 3.640625 " clip-rule="nonzero"/></clipPath><clipPath id="4822e3d5dc"><rect x="0" width="6" y="0" height="7"/></clipPath><clipPath id="3a96d7e1dc"><path d="M 64 66 L 74 66 L 74 76 L 64 76 Z M 64 66 " clip-rule="nonzero"/></clipPath><clipPath id="4a992d3ad1"><path d="M 72.953125 66.414062 L 73.648438 75.542969 L 64.519531 76.238281 L 63.824219 67.109375 Z M 72.953125 66.414062 " clip-rule="nonzero"/></clipPath><clipPath id="64c52616cf"><path d="M 73.300781 70.976562 C 73.109375 68.457031 70.910156 66.570312 68.386719 66.761719 C 65.867188 66.953125 63.980469 69.152344 64.171875 71.675781 C 64.363281 74.195312 66.5625 76.082031 69.085938 75.890625 C 71.605469 75.699219 73.492188 73.5 73.300781 70.976562 Z M 73.300781 70.976562 " clip-rule="nonzero"/></clipPath><clipPath id="0a71b35893"><path d="M 0 0.519531 L 9.519531 0.519531 L 9.519531 10 L 0 10 Z M 0 0.519531 " clip-rule="nonzero"/></clipPath><clipPath id="d1d3c19df2"><path d="M 8.953125 0.414062 L 9.648438 9.542969 L 0.519531 10.238281 L -0.175781 1.109375 Z M 8.953125 0.414062 " clip-rule="nonzero"/></clipPath><clipPath id="1d16a3dec8"><path d="M 9.300781 4.976562 C 9.109375 2.457031 6.910156 0.570312 4.386719 0.761719 C 1.867188 0.953125 -0.0195312 3.152344 0.171875 5.675781 C 0.363281 8.195312 2.5625 10.082031 5.085938 9.890625 C 7.605469 9.699219 9.492188 7.5 9.300781 4.976562 Z M 9.300781 4.976562 " clip-rule="nonzero"/></clipPath><clipPath id="92c7227814"><rect x="0" width="10" y="0" height="10"/></clipPath><clipPath id="5720a62e0a"><path d="M 0.800781 81 L 91 81 L 91 123 L 0.800781 123 Z M 0.800781 81 " clip-rule="nonzero"/></clipPath><clipPath id="3049042a9c"><path d="M 35.375 64.207031 L 44.53125 64.207031 L 44.53125 73.363281 L 35.375 73.363281 Z M 35.375 64.207031 " clip-rule="nonzero"/></clipPath><clipPath id="e9ed4ef88e"><path d="M 39.953125 64.207031 C 37.425781 64.207031 35.375 66.257812 35.375 68.785156 C 35.375 71.3125 37.425781 73.363281 39.953125 73.363281 C 42.480469 73.363281 44.53125 71.3125 44.53125 68.785156 C 44.53125 66.257812 42.480469 64.207031 39.953125 64.207031 Z M 39.953125 64.207031 " clip-rule="nonzero"/></clipPath><clipPath id="ec40c11f89"><path d="M 0.375 0.207031 L 9.53125 0.207031 L 9.53125 9.363281 L 0.375 9.363281 Z M 0.375 0.207031 " clip-rule="nonzero"/></clipPath><clipPath id="e1aa52d52d"><path d="M 4.953125 0.207031 C 2.425781 0.207031 0.375 2.257812 0.375 4.785156 C 0.375 7.3125 2.425781 9.363281 4.953125 9.363281 C 7.480469 9.363281 9.53125 7.3125 9.53125 4.785156 C 9.53125 2.257812 7.480469 0.207031 4.953125 0.207031 Z M 4.953125 0.207031 " clip-rule="nonzero"/></clipPath><clipPath id="b5ff56eab0"><rect x="0" width="10" y="0" height="10"/></clipPath><clipPath id="047210327a"><path d="M 30.824219 93.066406 L 49.078125 93.066406 L 49.078125 111.320312 L 30.824219 111.320312 Z M 30.824219 93.066406 " clip-rule="nonzero"/></clipPath><clipPath id="26d8d6dcf1"><path d="M 39.953125 93.066406 C 34.910156 93.066406 30.824219 97.152344 30.824219 102.191406 C 30.824219 107.234375 34.910156 111.320312 39.953125 111.320312 C 44.992188 111.320312 49.078125 107.234375 49.078125 102.191406 C 49.078125 97.152344 44.992188 93.066406 39.953125 93.066406 Z M 39.953125 93.066406 " clip-rule="nonzero"/></clipPath><clipPath id="83ccd81c68"><path d="M 0.824219 0.0664062 L 19.078125 0.0664062 L 19.078125 18.320312 L 0.824219 18.320312 Z M 0.824219 0.0664062 " clip-rule="nonzero"/></clipPath><clipPath id="83b0bc2b24"><path d="M 9.953125 0.0664062 C 4.910156 0.0664062 0.824219 4.152344 0.824219 9.191406 C 0.824219 14.234375 4.910156 18.320312 9.953125 18.320312 C 14.992188 18.320312 19.078125 14.234375 19.078125 9.191406 C 19.078125 4.152344 14.992188 0.0664062 9.953125 0.0664062 Z M 9.953125 0.0664062 " clip-rule="nonzero"/></clipPath><clipPath id="db43354bf9"><rect x="0" width="20" y="0" height="19"/></clipPath><clipPath id="55fa0824ed"><path d="M 35.375 133.183594 L 44.53125 133.183594 L 44.53125 142.339844 L 35.375 142.339844 Z M 35.375 133.183594 " clip-rule="nonzero"/></clipPath><clipPath id="1b8bf2a6ee"><path d="M 39.953125 133.183594 C 37.425781 133.183594 35.375 135.234375 35.375 137.761719 C 35.375 140.289062 37.425781 142.339844 39.953125 142.339844 C 42.480469 142.339844 44.53125 140.289062 44.53125 137.761719 C 44.53125 135.234375 42.480469 133.183594 39.953125 133.183594 Z M 39.953125 133.183594 " clip-rule="nonzero"/></clipPath><clipPath id="7c867036a5"><path d="M 0.375 0.183594 L 9.53125 0.183594 L 9.53125 9.339844 L 0.375 9.339844 Z M 0.375 0.183594 " clip-rule="nonzero"/></clipPath><clipPath id="e582df77d0"><path d="M 4.953125 0.183594 C 2.425781 0.183594 0.375 2.234375 0.375 4.761719 C 0.375 7.289062 2.425781 9.339844 4.953125 9.339844 C 7.480469 9.339844 9.53125 7.289062 9.53125 4.761719 C 9.53125 2.234375 7.480469 0.183594 4.953125 0.183594 Z M 4.953125 0.183594 " clip-rule="nonzero"/></clipPath><clipPath id="5405628bd7"><rect x="0" width="10" y="0" height="10"/></clipPath><clipPath id="201268517d"><path d="M 0.945312 97.136719 L 10.101562 97.136719 L 10.101562 106.292969 L 0.945312 106.292969 Z M 0.945312 97.136719 " clip-rule="nonzero"/></clipPath><clipPath id="9a027e7060"><path d="M 5.523438 97.136719 C 2.996094 97.136719 0.945312 99.183594 0.945312 101.714844 C 0.945312 104.242188 2.996094 106.292969 5.523438 106.292969 C 8.050781 106.292969 10.101562 104.242188 10.101562 101.714844 C 10.101562 99.183594 8.050781 97.136719 5.523438 97.136719 Z M 5.523438 97.136719 " clip-rule="nonzero"/></clipPath><clipPath id="8bef7f32d5"><path d="M 0.945312 0.136719 L 10.101562 0.136719 L 10.101562 9.292969 L 0.945312 9.292969 Z M 0.945312 0.136719 " clip-rule="nonzero"/></clipPath><clipPath id="5245d8e63b"><path d="M 5.523438 0.136719 C 2.996094 0.136719 0.945312 2.183594 0.945312 4.714844 C 0.945312 7.242188 2.996094 9.292969 5.523438 9.292969 C 8.050781 9.292969 10.101562 7.242188 10.101562 4.714844 C 10.101562 2.183594 8.050781 0.136719 5.523438 0.136719 Z M 5.523438 0.136719 " clip-rule="nonzero"/></clipPath><clipPath id="0d504d7ed4"><rect x="0" width="11" y="0" height="10"/></clipPath><clipPath id="a20099cf7d"><path d="M 69.074219 97.136719 L 78.230469 97.136719 L 78.230469 106.292969 L 69.074219 106.292969 Z M 69.074219 97.136719 " clip-rule="nonzero"/></clipPath><clipPath id="45eb1437ad"><path d="M 73.652344 97.136719 C 71.125 97.136719 69.074219 99.183594 69.074219 101.714844 C 69.074219 104.242188 71.125 106.292969 73.652344 106.292969 C 76.179688 106.292969 78.230469 104.242188 78.230469 101.714844 C 78.230469 99.183594 76.179688 97.136719 73.652344 97.136719 Z M 73.652344 97.136719 " clip-rule="nonzero"/></clipPath><clipPath id="3dcd66c327"><path d="M 0.0742188 0.136719 L 9.230469 0.136719 L 9.230469 9.292969 L 0.0742188 9.292969 Z M 0.0742188 0.136719 " clip-rule="nonzero"/></clipPath><clipPath id="95b7ad9435"><path d="M 4.652344 0.136719 C 2.125 0.136719 0.0742188 2.183594 0.0742188 4.714844 C 0.0742188 7.242188 2.125 9.292969 4.652344 9.292969 C 7.179688 9.292969 9.230469 7.242188 9.230469 4.714844 C 9.230469 2.183594 7.179688 0.136719 4.652344 0.136719 Z M 4.652344 0.136719 " clip-rule="nonzero"/></clipPath><clipPath id="e2a6d3d855"><rect x="0" width="10" y="0" height="10"/></clipPath><clipPath id="29238a4b89"><path d="M 0.800781 81 L 61 81 L 61 148 L 0.800781 148 Z M 0.800781 81 " clip-rule="nonzero"/></clipPath><clipPath id="0416571fbe"><path d="M 3.5625 129.585938 L 12.71875 129.585938 L 12.71875 138.742188 L 3.5625 138.742188 Z M 3.5625 129.585938 " clip-rule="nonzero"/></clipPath><clipPath id="3843dc701e"><path d="M 8.140625 129.585938 C 5.613281 129.585938 3.5625 131.632812 3.5625 134.164062 C 3.5625 136.691406 5.613281 138.742188 8.140625 138.742188 C 10.671875 138.742188 12.71875 136.691406 12.71875 134.164062 C 12.71875 131.632812 10.671875 129.585938 8.140625 129.585938 Z M 8.140625 129.585938 " clip-rule="nonzero"/></clipPath><clipPath id="0e24c10bae"><path d="M 0.5625 0.585938 L 9.71875 0.585938 L 9.71875 9.742188 L 0.5625 9.742188 Z M 0.5625 0.585938 " clip-rule="nonzero"/></clipPath><clipPath id="0fed2d2fbf"><path d="M 5.140625 0.585938 C 2.613281 0.585938 0.5625 2.632812 0.5625 5.164062 C 0.5625 7.691406 2.613281 9.742188 5.140625 9.742188 C 7.671875 9.742188 9.71875 7.691406 9.71875 5.164062 C 9.71875 2.632812 7.671875 0.585938 5.140625 0.585938 Z M 5.140625 0.585938 " clip-rule="nonzero"/></clipPath><clipPath id="04d4237441"><rect x="0" width="10" y="0" height="10"/></clipPath><clipPath id="6d6b05e8a8"><path d="M 0.398438 4 L 12 4 L 12 18 L 0.398438 18 Z M 0.398438 4 " clip-rule="nonzero"/></clipPath><clipPath id="189c31e848"><rect x="0" width="305" y="0" height="23"/></clipPath><clipPath id="52f4aa879e"><rect x="0" width="250" y="0" height="83"/></clipPath><clipPath id="bbd0d4ff8d"><path d="M 97 0.761719 L 418 0.761719 L 418 321 L 97 321 Z M 97 0.761719 " clip-rule="nonzero"/></clipPath><clipPath id="4ec0ec38db"><path d="M 417.429688 160.5 L 257.574219 320.351562 L 97.722656 160.5 L 257.574219 0.644531 Z M 417.429688 160.5 " clip-rule="nonzero"/></clipPath><clipPath id="0a0691d966"><path d="M 3 158 L 318 158 L 318 164 L 3 164 Z M 3 158 " clip-rule="nonzero"/></clipPath><clipPath id="7f39452195"><path d="M 320.429688 160.5 L 160.574219 320.351562 L 0.722656 160.5 L 160.574219 0.644531 Z M 320.429688 160.5 " clip-rule="nonzero"/></clipPath><clipPath id="dcb37dbffb"><path d="M 160.746094 0.816406 L 0.894531 160.671875 L 160.746094 320.527344 L 320.601562 160.671875 Z M 160.746094 0.816406 " clip-rule="nonzero"/></clipPath><clipPath id="2dc44b2524"><path d="M 160.746094 0.816406 L 0.894531 160.671875 L 160.746094 320.527344 L 320.601562 160.671875 Z M 160.746094 0.816406 " clip-rule="nonzero"/></clipPath><clipPath id="ec406148fb"><path d="M 317.996094 158.070312 L 317.898438 163.027344 L 3.59375 163.027344 L 3.496094 158.070312 Z M 317.996094 158.070312 " clip-rule="nonzero"/></clipPath><linearGradient x1="-0.000000000000028422" gradientTransform="matrix(-0.972481, 0.972481, 0.972481, 0.972481, 160.746819, 0.818191)" y1="82.112999" x2="164.249997" gradientUnits="userSpaceOnUse" y2="82.112999" id="f6163c4a64"><stop stop-opacity="1" stop-color="rgb(100%, 100%, 100%)" offset="0"/><stop stop-opacity="1" stop-color="rgb(99.519348%, 99.519348%, 99.519348%)" offset="0.00390625"/><stop stop-opacity="1" stop-color="rgb(99.038696%, 99.038696%, 99.038696%)" offset="0.0078125"/><stop stop-opacity="1" stop-color="rgb(98.558044%, 98.558044%, 98.558044%)" offset="0.0117188"/><stop stop-opacity="1" stop-color="rgb(98.077393%, 98.077393%, 98.077393%)" offset="0.015625"/><stop stop-opacity="1" stop-color="rgb(97.596741%, 97.596741%, 97.596741%)" offset="0.0195312"/><stop stop-opacity="1" stop-color="rgb(97.116089%, 97.116089%, 97.116089%)" offset="0.0234375"/><stop stop-opacity="1" stop-color="rgb(96.635437%, 96.635437%, 96.635437%)" offset="0.0273438"/><stop stop-opacity="1" stop-color="rgb(96.154785%, 96.154785%, 96.154785%)" offset="0.03125"/><stop stop-opacity="1" stop-color="rgb(95.674133%, 95.674133%, 95.674133%)" offset="0.0351562"/><stop stop-opacity="1" stop-color="rgb(95.195007%, 95.195007%, 95.195007%)" offset="0.0390625"/><stop stop-opacity="1" stop-color="rgb(94.714355%, 94.714355%, 94.714355%)" offset="0.0429688"/><stop stop-opacity="1" stop-color="rgb(94.233704%, 94.233704%, 94.233704%)" offset="0.046875"/><stop stop-opacity="1" stop-color="rgb(93.753052%, 93.753052%, 93.753052%)" offset="0.0507812"/><stop stop-opacity="1" stop-color="rgb(93.2724%, 93.2724%, 93.2724%)" offset="0.0546875"/><stop stop-opacity="1" stop-color="rgb(92.791748%, 92.791748%, 92.791748%)" offset="0.0585937"/><stop stop-opacity="1" stop-color="rgb(92.311096%, 92.311096%, 92.311096%)" offset="0.0625"/><stop stop-opacity="1" stop-color="rgb(91.830444%, 91.830444%, 91.830444%)" offset="0.0664062"/><stop stop-opacity="1" stop-color="rgb(91.349792%, 91.349792%, 91.349792%)" offset="0.0703125"/><stop stop-opacity="1" stop-color="rgb(90.869141%, 90.869141%, 90.869141%)" offset="0.0742187"/><stop stop-opacity="1" stop-color="rgb(90.390015%, 90.390015%, 90.390015%)" offset="0.078125"/><stop stop-opacity="1" stop-color="rgb(89.909363%, 89.909363%, 89.909363%)" offset="0.0820312"/><stop stop-opacity="1" stop-color="rgb(89.428711%, 89.428711%, 89.428711%)" offset="0.0859375"/><stop stop-opacity="1" stop-color="rgb(88.948059%, 88.948059%, 88.948059%)" offset="0.0898437"/><stop stop-opacity="1" stop-color="rgb(88.467407%, 88.467407%, 88.467407%)" offset="0.09375"/><stop stop-opacity="1" stop-color="rgb(87.986755%, 87.986755%, 87.986755%)" offset="0.0976562"/><stop stop-opacity="1" stop-color="rgb(87.506104%, 87.506104%, 87.506104%)" offset="0.101562"/><stop stop-opacity="1" stop-color="rgb(87.025452%, 87.025452%, 87.025452%)" offset="0.105469"/><stop stop-opacity="1" stop-color="rgb(86.5448%, 86.5448%, 86.5448%)" offset="0.109375"/><stop stop-opacity="1" stop-color="rgb(86.064148%, 86.064148%, 86.064148%)" offset="0.113281"/><stop stop-opacity="1" stop-color="rgb(85.585022%, 85.585022%, 85.585022%)" offset="0.117187"/><stop stop-opacity="1" stop-color="rgb(85.10437%, 85.10437%, 85.10437%)" offset="0.121094"/><stop stop-opacity="1" stop-color="rgb(84.623718%, 84.623718%, 84.623718%)" offset="0.125"/><stop stop-opacity="1" stop-color="rgb(84.143066%, 84.143066%, 84.143066%)" offset="0.128906"/><stop stop-opacity="1" stop-color="rgb(83.662415%, 83.662415%, 83.662415%)" offset="0.132812"/><stop stop-opacity="1" stop-color="rgb(83.181763%, 83.181763%, 83.181763%)" offset="0.136719"/><stop stop-opacity="1" stop-color="rgb(82.701111%, 82.701111%, 82.701111%)" offset="0.140625"/><stop stop-opacity="1" stop-color="rgb(82.220459%, 82.220459%, 82.220459%)" offset="0.144531"/><stop stop-opacity="1" stop-color="rgb(81.739807%, 81.739807%, 81.739807%)" offset="0.148437"/><stop stop-opacity="1" stop-color="rgb(81.259155%, 81.259155%, 81.259155%)" offset="0.152344"/><stop stop-opacity="1" stop-color="rgb(80.780029%, 80.780029%, 80.780029%)" offset="0.15625"/><stop stop-opacity="1" stop-color="rgb(80.299377%, 80.299377%, 80.299377%)" offset="0.160156"/><stop stop-opacity="1" stop-color="rgb(79.818726%, 79.818726%, 79.818726%)" offset="0.164062"/><stop stop-opacity="1" stop-color="rgb(79.338074%, 79.338074%, 79.338074%)" offset="0.167969"/><stop stop-opacity="1" stop-color="rgb(78.857422%, 78.857422%, 78.857422%)" offset="0.171875"/><stop stop-opacity="1" stop-color="rgb(78.37677%, 78.37677%, 78.37677%)" offset="0.175781"/><stop stop-opacity="1" stop-color="rgb(77.896118%, 77.896118%, 77.896118%)" offset="0.179687"/><stop stop-opacity="1" stop-color="rgb(77.415466%, 77.415466%, 77.415466%)" offset="0.183594"/><stop stop-opacity="1" stop-color="rgb(76.934814%, 76.934814%, 76.934814%)" offset="0.1875"/><stop stop-opacity="1" stop-color="rgb(76.454163%, 76.454163%, 76.454163%)" offset="0.191406"/><stop stop-opacity="1" stop-color="rgb(75.975037%, 75.975037%, 75.975037%)" offset="0.195312"/><stop stop-opacity="1" stop-color="rgb(75.494385%, 75.494385%, 75.494385%)" offset="0.199219"/><stop stop-opacity="1" stop-color="rgb(75.013733%, 75.013733%, 75.013733%)" offset="0.203125"/><stop stop-opacity="1" stop-color="rgb(74.533081%, 74.533081%, 74.533081%)" offset="0.207031"/><stop stop-opacity="1" stop-color="rgb(74.052429%, 74.052429%, 74.052429%)" offset="0.210937"/><stop stop-opacity="1" stop-color="rgb(73.571777%, 73.571777%, 73.571777%)" offset="0.214844"/><stop stop-opacity="1" stop-color="rgb(73.091125%, 73.091125%, 73.091125%)" offset="0.21875"/><stop stop-opacity="1" stop-color="rgb(72.610474%, 72.610474%, 72.610474%)" offset="0.222656"/><stop stop-opacity="1" stop-color="rgb(72.131348%, 72.131348%, 72.131348%)" offset="0.226562"/><stop stop-opacity="1" stop-color="rgb(71.650696%, 71.650696%, 71.650696%)" offset="0.230469"/><stop stop-opacity="1" stop-color="rgb(71.170044%, 71.170044%, 71.170044%)" offset="0.234375"/><stop stop-opacity="1" stop-color="rgb(70.689392%, 70.689392%, 70.689392%)" offset="0.238281"/><stop stop-opacity="1" stop-color="rgb(70.20874%, 70.20874%, 70.20874%)" offset="0.242187"/><stop stop-opacity="1" stop-color="rgb(69.728088%, 69.728088%, 69.728088%)" offset="0.246094"/><stop stop-opacity="1" stop-color="rgb(69.247437%, 69.247437%, 69.247437%)" offset="0.25"/><stop stop-opacity="1" stop-color="rgb(68.766785%, 68.766785%, 68.766785%)" offset="0.253906"/><stop stop-opacity="1" stop-color="rgb(68.286133%, 68.286133%, 68.286133%)" offset="0.257812"/><stop stop-opacity="1" stop-color="rgb(67.805481%, 67.805481%, 67.805481%)" offset="0.261719"/><stop stop-opacity="1" stop-color="rgb(67.326355%, 67.326355%, 67.326355%)" offset="0.265625"/><stop stop-opacity="1" stop-color="rgb(66.845703%, 66.845703%, 66.845703%)" offset="0.269531"/><stop stop-opacity="1" stop-color="rgb(66.365051%, 66.365051%, 66.365051%)" offset="0.273437"/><stop stop-opacity="1" stop-color="rgb(65.884399%, 65.884399%, 65.884399%)" offset="0.277344"/><stop stop-opacity="1" stop-color="rgb(65.403748%, 65.403748%, 65.403748%)" offset="0.28125"/><stop stop-opacity="1" stop-color="rgb(64.923096%, 64.923096%, 64.923096%)" offset="0.285156"/><stop stop-opacity="1" stop-color="rgb(64.442444%, 64.442444%, 64.442444%)" offset="0.289062"/><stop stop-opacity="1" stop-color="rgb(63.961792%, 63.961792%, 63.961792%)" offset="0.292969"/><stop stop-opacity="1" stop-color="rgb(63.48114%, 63.48114%, 63.48114%)" offset="0.296875"/><stop stop-opacity="1" stop-color="rgb(63.000488%, 63.000488%, 63.000488%)" offset="0.300781"/><stop stop-opacity="1" stop-color="rgb(62.521362%, 62.521362%, 62.521362%)" offset="0.304687"/><stop stop-opacity="1" stop-color="rgb(62.04071%, 62.04071%, 62.04071%)" offset="0.308594"/><stop stop-opacity="1" stop-color="rgb(61.560059%, 61.560059%, 61.560059%)" offset="0.3125"/><stop stop-opacity="1" stop-color="rgb(61.079407%, 61.079407%, 61.079407%)" offset="0.316406"/><stop stop-opacity="1" stop-color="rgb(60.598755%, 60.598755%, 60.598755%)" offset="0.320312"/><stop stop-opacity="1" stop-color="rgb(60.118103%, 60.118103%, 60.118103%)" offset="0.324219"/><stop stop-opacity="1" stop-color="rgb(59.637451%, 59.637451%, 59.637451%)" offset="0.328125"/><stop stop-opacity="1" stop-color="rgb(59.156799%, 59.156799%, 59.156799%)" offset="0.332031"/><stop stop-opacity="1" stop-color="rgb(58.676147%, 58.676147%, 58.676147%)" offset="0.335937"/><stop stop-opacity="1" stop-color="rgb(58.195496%, 58.195496%, 58.195496%)" offset="0.339844"/><stop stop-opacity="1" stop-color="rgb(57.71637%, 57.71637%, 57.71637%)" offset="0.34375"/><stop stop-opacity="1" stop-color="rgb(57.235718%, 57.235718%, 57.235718%)" offset="0.347656"/><stop stop-opacity="1" stop-color="rgb(56.755066%, 56.755066%, 56.755066%)" offset="0.351562"/><stop stop-opacity="1" stop-color="rgb(56.274414%, 56.274414%, 56.274414%)" offset="0.355469"/><stop stop-opacity="1" stop-color="rgb(55.793762%, 55.793762%, 55.793762%)" offset="0.359375"/><stop stop-opacity="1" stop-color="rgb(55.31311%, 55.31311%, 55.31311%)" offset="0.363281"/><stop stop-opacity="1" stop-color="rgb(54.832458%, 54.832458%, 54.832458%)" offset="0.367187"/><stop stop-opacity="1" stop-color="rgb(54.351807%, 54.351807%, 54.351807%)" offset="0.371094"/><stop stop-opacity="1" stop-color="rgb(53.871155%, 53.871155%, 53.871155%)" offset="0.375"/><stop stop-opacity="1" stop-color="rgb(53.390503%, 53.390503%, 53.390503%)" offset="0.378906"/><stop stop-opacity="1" stop-color="rgb(52.911377%, 52.911377%, 52.911377%)" offset="0.382812"/><stop stop-opacity="1" stop-color="rgb(52.430725%, 52.430725%, 52.430725%)" offset="0.386719"/><stop stop-opacity="1" stop-color="rgb(51.950073%, 51.950073%, 51.950073%)" offset="0.390625"/><stop stop-opacity="1" stop-color="rgb(51.469421%, 51.469421%, 51.469421%)" offset="0.394531"/><stop stop-opacity="1" stop-color="rgb(50.98877%, 50.98877%, 50.98877%)" offset="0.398437"/><stop stop-opacity="1" stop-color="rgb(50.508118%, 50.508118%, 50.508118%)" offset="0.402344"/><stop stop-opacity="1" stop-color="rgb(50.027466%, 50.027466%, 50.027466%)" offset="0.40625"/><stop stop-opacity="1" stop-color="rgb(49.546814%, 49.546814%, 49.546814%)" offset="0.410156"/><stop stop-opacity="1" stop-color="rgb(49.067688%, 49.067688%, 49.067688%)" offset="0.414062"/><stop stop-opacity="1" stop-color="rgb(48.587036%, 48.587036%, 48.587036%)" offset="0.417969"/><stop stop-opacity="1" stop-color="rgb(48.106384%, 48.106384%, 48.106384%)" offset="0.421875"/><stop stop-opacity="1" stop-color="rgb(47.625732%, 47.625732%, 47.625732%)" offset="0.425781"/><stop stop-opacity="1" stop-color="rgb(47.145081%, 47.145081%, 47.145081%)" offset="0.429687"/><stop stop-opacity="1" stop-color="rgb(46.664429%, 46.664429%, 46.664429%)" offset="0.433594"/><stop stop-opacity="1" stop-color="rgb(46.183777%, 46.183777%, 46.183777%)" offset="0.4375"/><stop stop-opacity="1" stop-color="rgb(45.703125%, 45.703125%, 45.703125%)" offset="0.441406"/><stop stop-opacity="1" stop-color="rgb(45.222473%, 45.222473%, 45.222473%)" offset="0.445312"/><stop stop-opacity="1" stop-color="rgb(44.877625%, 44.874573%, 44.874573%)" offset="0.449219"/><stop stop-opacity="1" stop-color="rgb(44.534302%, 44.526672%, 44.526672%)" offset="0.453125"/><stop stop-opacity="1" stop-color="rgb(44.20929%, 44.198608%, 44.198608%)" offset="0.457031"/><stop stop-opacity="1" stop-color="rgb(43.885803%, 43.870544%, 43.870544%)" offset="0.460937"/><stop stop-opacity="1" stop-color="rgb(43.560791%, 43.54248%, 43.54248%)" offset="0.464844"/><stop stop-opacity="1" stop-color="rgb(43.237305%, 43.214417%, 43.214417%)" offset="0.46875"/><stop stop-opacity="1" stop-color="rgb(42.912292%, 42.884827%, 42.884827%)" offset="0.472656"/><stop stop-opacity="1" stop-color="rgb(42.588806%, 42.556763%, 42.556763%)" offset="0.476562"/><stop stop-opacity="1" stop-color="rgb(42.263794%, 42.228699%, 42.228699%)" offset="0.480469"/><stop stop-opacity="1" stop-color="rgb(41.940308%, 41.900635%, 41.900635%)" offset="0.484375"/><stop stop-opacity="1" stop-color="rgb(41.615295%, 41.572571%, 41.572571%)" offset="0.488281"/><stop stop-opacity="1" stop-color="rgb(41.291809%, 41.244507%, 41.244507%)" offset="0.492187"/><stop stop-opacity="1" stop-color="rgb(40.966797%, 40.914917%, 40.914917%)" offset="0.496094"/><stop stop-opacity="1" stop-color="rgb(40.643311%, 40.586853%, 40.586853%)" offset="0.5"/><stop stop-opacity="1" stop-color="rgb(40.318298%, 40.258789%, 40.258789%)" offset="0.503906"/><stop stop-opacity="1" stop-color="rgb(39.994812%, 39.930725%, 39.930725%)" offset="0.507812"/><stop stop-opacity="1" stop-color="rgb(39.6698%, 39.602661%, 39.602661%)" offset="0.511719"/><stop stop-opacity="1" stop-color="rgb(39.346313%, 39.274597%, 39.274597%)" offset="0.515625"/><stop stop-opacity="1" stop-color="rgb(39.021301%, 38.945007%, 38.945007%)" offset="0.519531"/><stop stop-opacity="1" stop-color="rgb(38.697815%, 38.616943%, 38.616943%)" offset="0.523438"/><stop stop-opacity="1" stop-color="rgb(38.372803%, 38.288879%, 38.288879%)" offset="0.527344"/><stop stop-opacity="1" stop-color="rgb(38.049316%, 37.960815%, 37.960815%)" offset="0.53125"/><stop stop-opacity="1" stop-color="rgb(37.724304%, 37.632751%, 37.632751%)" offset="0.535156"/><stop stop-opacity="1" stop-color="rgb(37.400818%, 37.304688%, 37.304688%)" offset="0.539062"/><stop stop-opacity="1" stop-color="rgb(37.075806%, 36.975098%, 36.975098%)" offset="0.542969"/><stop stop-opacity="1" stop-color="rgb(36.752319%, 36.647034%, 36.647034%)" offset="0.546875"/><stop stop-opacity="1" stop-color="rgb(36.427307%, 36.31897%, 36.31897%)" offset="0.550781"/><stop stop-opacity="1" stop-color="rgb(36.103821%, 35.990906%, 35.990906%)" offset="0.554688"/><stop stop-opacity="1" stop-color="rgb(35.778809%, 35.662842%, 35.662842%)" offset="0.558594"/><stop stop-opacity="1" stop-color="rgb(35.455322%, 35.334778%, 35.334778%)" offset="0.5625"/><stop stop-opacity="1" stop-color="rgb(35.13031%, 35.005188%, 35.005188%)" offset="0.566406"/><stop stop-opacity="1" stop-color="rgb(34.806824%, 34.677124%, 34.677124%)" offset="0.570312"/><stop stop-opacity="1" stop-color="rgb(34.481812%, 34.34906%, 34.34906%)" offset="0.574219"/><stop stop-opacity="1" stop-color="rgb(34.158325%, 34.020996%, 34.020996%)" offset="0.578125"/><stop stop-opacity="1" stop-color="rgb(33.833313%, 33.692932%, 33.692932%)" offset="0.582031"/><stop stop-opacity="1" stop-color="rgb(33.509827%, 33.364868%, 33.364868%)" offset="0.585938"/><stop stop-opacity="1" stop-color="rgb(33.184814%, 33.035278%, 33.035278%)" offset="0.589844"/><stop stop-opacity="1" stop-color="rgb(32.861328%, 32.707214%, 32.707214%)" offset="0.59375"/><stop stop-opacity="1" stop-color="rgb(32.536316%, 32.37915%, 32.37915%)" offset="0.597656"/><stop stop-opacity="1" stop-color="rgb(32.21283%, 32.051086%, 32.051086%)" offset="0.601562"/><stop stop-opacity="1" stop-color="rgb(31.887817%, 31.723022%, 31.723022%)" offset="0.605469"/><stop stop-opacity="1" stop-color="rgb(31.564331%, 31.394958%, 31.394958%)" offset="0.609375"/><stop stop-opacity="1" stop-color="rgb(31.239319%, 31.065369%, 31.065369%)" offset="0.613281"/><stop stop-opacity="1" stop-color="rgb(30.915833%, 30.737305%, 30.737305%)" offset="0.617188"/><stop stop-opacity="1" stop-color="rgb(30.59082%, 30.409241%, 30.409241%)" offset="0.621094"/><stop stop-opacity="1" stop-color="rgb(30.267334%, 30.081177%, 30.081177%)" offset="0.625"/><stop stop-opacity="1" stop-color="rgb(29.942322%, 29.753113%, 29.753113%)" offset="0.628906"/><stop stop-opacity="1" stop-color="rgb(29.618835%, 29.425049%, 29.425049%)" offset="0.632812"/><stop stop-opacity="1" stop-color="rgb(29.293823%, 29.095459%, 29.095459%)" offset="0.636719"/><stop stop-opacity="1" stop-color="rgb(28.970337%, 28.767395%, 28.767395%)" offset="0.640625"/><stop stop-opacity="1" stop-color="rgb(28.645325%, 28.439331%, 28.439331%)" offset="0.644531"/><stop stop-opacity="1" stop-color="rgb(28.321838%, 28.111267%, 28.111267%)" offset="0.648438"/><stop stop-opacity="1" stop-color="rgb(27.996826%, 27.783203%, 27.783203%)" offset="0.652344"/><stop stop-opacity="1" stop-color="rgb(27.67334%, 27.455139%, 27.455139%)" offset="0.65625"/><stop stop-opacity="1" stop-color="rgb(27.348328%, 27.125549%, 27.125549%)" offset="0.660156"/><stop stop-opacity="1" stop-color="rgb(27.024841%, 26.797485%, 26.797485%)" offset="0.664062"/><stop stop-opacity="1" stop-color="rgb(26.699829%, 26.469421%, 26.469421%)" offset="0.667969"/><stop stop-opacity="1" stop-color="rgb(26.376343%, 26.141357%, 26.141357%)" offset="0.671875"/><stop stop-opacity="1" stop-color="rgb(26.051331%, 25.813293%, 25.813293%)" offset="0.675781"/><stop stop-opacity="1" stop-color="rgb(25.727844%, 25.485229%, 25.485229%)" offset="0.679688"/><stop stop-opacity="1" stop-color="rgb(25.402832%, 25.15564%, 25.15564%)" offset="0.683594"/><stop stop-opacity="1" stop-color="rgb(25.079346%, 24.827576%, 24.827576%)" offset="0.6875"/><stop stop-opacity="1" stop-color="rgb(24.754333%, 24.499512%, 24.499512%)" offset="0.691406"/><stop stop-opacity="1" stop-color="rgb(24.430847%, 24.171448%, 24.171448%)" offset="0.695312"/><stop stop-opacity="1" stop-color="rgb(24.105835%, 23.843384%, 23.843384%)" offset="0.699219"/><stop stop-opacity="1" stop-color="rgb(23.782349%, 23.51532%, 23.51532%)" offset="0.703125"/><stop stop-opacity="1" stop-color="rgb(23.457336%, 23.18573%, 23.18573%)" offset="0.707031"/><stop stop-opacity="1" stop-color="rgb(23.13385%, 22.857666%, 22.857666%)" offset="0.710938"/><stop stop-opacity="1" stop-color="rgb(22.810364%, 22.529602%, 22.529602%)" offset="0.714844"/><stop stop-opacity="1" stop-color="rgb(22.486877%, 22.201538%, 22.201538%)" offset="0.71875"/><stop stop-opacity="1" stop-color="rgb(22.161865%, 21.873474%, 21.873474%)" offset="0.722656"/><stop stop-opacity="1" stop-color="rgb(21.838379%, 21.54541%, 21.54541%)" offset="0.726562"/><stop stop-opacity="1" stop-color="rgb(21.513367%, 21.21582%, 21.21582%)" offset="0.730469"/><stop stop-opacity="1" stop-color="rgb(21.18988%, 20.887756%, 20.887756%)" offset="0.734375"/><stop stop-opacity="1" stop-color="rgb(20.864868%, 20.559692%, 20.559692%)" offset="0.738281"/><stop stop-opacity="1" stop-color="rgb(20.541382%, 20.231628%, 20.231628%)" offset="0.742188"/><stop stop-opacity="1" stop-color="rgb(20.21637%, 19.903564%, 19.903564%)" offset="0.746094"/><stop stop-opacity="1" stop-color="rgb(19.892883%, 19.5755%, 19.5755%)" offset="0.75"/><stop stop-opacity="1" stop-color="rgb(19.567871%, 19.245911%, 19.245911%)" offset="0.753906"/><stop stop-opacity="1" stop-color="rgb(19.244385%, 18.917847%, 18.917847%)" offset="0.757812"/><stop stop-opacity="1" stop-color="rgb(18.919373%, 18.589783%, 18.589783%)" offset="0.761719"/><stop stop-opacity="1" stop-color="rgb(18.595886%, 18.261719%, 18.261719%)" offset="0.765625"/><stop stop-opacity="1" stop-color="rgb(18.270874%, 17.933655%, 17.933655%)" offset="0.769531"/><stop stop-opacity="1" stop-color="rgb(17.947388%, 17.605591%, 17.605591%)" offset="0.773437"/><stop stop-opacity="1" stop-color="rgb(17.622375%, 17.276001%, 17.276001%)" offset="0.777344"/><stop stop-opacity="1" stop-color="rgb(17.298889%, 16.947937%, 16.947937%)" offset="0.78125"/><stop stop-opacity="1" stop-color="rgb(16.973877%, 16.619873%, 16.619873%)" offset="0.785156"/><stop stop-opacity="1" stop-color="rgb(16.650391%, 16.291809%, 16.291809%)" offset="0.789062"/><stop stop-opacity="1" stop-color="rgb(16.325378%, 15.963745%, 15.963745%)" offset="0.792969"/><stop stop-opacity="1" stop-color="rgb(16.001892%, 15.635681%, 15.635681%)" offset="0.796875"/><stop stop-opacity="1" stop-color="rgb(15.67688%, 15.306091%, 15.306091%)" offset="0.800781"/><stop stop-opacity="1" stop-color="rgb(15.353394%, 14.978027%, 14.978027%)" offset="0.804688"/><stop stop-opacity="1" stop-color="rgb(15.028381%, 14.649963%, 14.649963%)" offset="0.808594"/><stop stop-opacity="1" stop-color="rgb(14.704895%, 14.321899%, 14.321899%)" offset="0.8125"/><stop stop-opacity="1" stop-color="rgb(14.381409%, 13.996887%, 13.996887%)" offset="0.816406"/><stop stop-opacity="1" stop-color="rgb(14.059448%, 13.671875%, 13.671875%)" offset="0.820312"/><stop stop-opacity="1" stop-color="rgb(13.752747%, 13.374329%, 13.374329%)" offset="0.824219"/><stop stop-opacity="1" stop-color="rgb(13.447571%, 13.076782%, 13.076782%)" offset="0.828125"/><stop stop-opacity="1" stop-color="rgb(13.140869%, 12.779236%, 12.779236%)" offset="0.832031"/><stop stop-opacity="1" stop-color="rgb(12.835693%, 12.481689%, 12.481689%)" offset="0.835938"/><stop stop-opacity="1" stop-color="rgb(12.528992%, 12.184143%, 12.184143%)" offset="0.839844"/><stop stop-opacity="1" stop-color="rgb(12.223816%, 11.886597%, 11.886597%)" offset="0.84375"/><stop stop-opacity="1" stop-color="rgb(11.917114%, 11.58905%, 11.58905%)" offset="0.847656"/><stop stop-opacity="1" stop-color="rgb(11.611938%, 11.291504%, 11.291504%)" offset="0.851562"/><stop stop-opacity="1" stop-color="rgb(11.305237%, 10.993958%, 10.993958%)" offset="0.855469"/><stop stop-opacity="1" stop-color="rgb(11.000061%, 10.696411%, 10.696411%)" offset="0.859375"/><stop stop-opacity="1" stop-color="rgb(10.693359%, 10.398865%, 10.398865%)" offset="0.863281"/><stop stop-opacity="1" stop-color="rgb(10.388184%, 10.101318%, 10.101318%)" offset="0.867187"/><stop stop-opacity="1" stop-color="rgb(10.081482%, 9.803772%, 9.803772%)" offset="0.871094"/><stop stop-opacity="1" stop-color="rgb(9.776306%, 9.506226%, 9.506226%)" offset="0.875"/><stop stop-opacity="1" stop-color="rgb(9.469604%, 9.208679%, 9.208679%)" offset="0.878906"/><stop stop-opacity="1" stop-color="rgb(9.164429%, 8.911133%, 8.911133%)" offset="0.882812"/><stop stop-opacity="1" stop-color="rgb(8.857727%, 8.613586%, 8.613586%)" offset="0.886719"/><stop stop-opacity="1" stop-color="rgb(8.552551%, 8.31604%, 8.31604%)" offset="0.890625"/><stop stop-opacity="1" stop-color="rgb(8.24585%, 8.018494%, 8.018494%)" offset="0.894531"/><stop stop-opacity="1" stop-color="rgb(7.940674%, 7.720947%, 7.720947%)" offset="0.898438"/><stop stop-opacity="1" stop-color="rgb(7.633972%, 7.423401%, 7.423401%)" offset="0.902344"/><stop stop-opacity="1" stop-color="rgb(7.328796%, 7.125854%, 7.125854%)" offset="0.90625"/><stop stop-opacity="1" stop-color="rgb(7.022095%, 6.828308%, 6.828308%)" offset="0.910156"/><stop stop-opacity="1" stop-color="rgb(6.716919%, 6.530762%, 6.530762%)" offset="0.914062"/><stop stop-opacity="1" stop-color="rgb(6.410217%, 6.233215%, 6.233215%)" offset="0.917969"/><stop stop-opacity="1" stop-color="rgb(6.105042%, 5.935669%, 5.935669%)" offset="0.921875"/><stop stop-opacity="1" stop-color="rgb(5.79834%, 5.638123%, 5.638123%)" offset="0.925781"/><stop stop-opacity="1" stop-color="rgb(5.491638%, 5.340576%, 5.340576%)" offset="0.929688"/><stop stop-opacity="1" stop-color="rgb(5.184937%, 5.04303%, 5.04303%)" offset="0.933594"/><stop stop-opacity="1" stop-color="rgb(4.879761%, 4.745483%, 4.745483%)" offset="0.9375"/><stop stop-opacity="1" stop-color="rgb(4.573059%, 4.447937%, 4.447937%)" offset="0.941406"/><stop stop-opacity="1" stop-color="rgb(4.267883%, 4.150391%, 4.150391%)" offset="0.945312"/><stop stop-opacity="1" stop-color="rgb(3.961182%, 3.852844%, 3.852844%)" offset="0.949219"/><stop stop-opacity="1" stop-color="rgb(3.656006%, 3.555298%, 3.555298%)" offset="0.953125"/><stop stop-opacity="1" stop-color="rgb(3.349304%, 3.257751%, 3.257751%)" offset="0.957031"/><stop stop-opacity="1" stop-color="rgb(3.044128%, 2.960205%, 2.960205%)" offset="0.960937"/><stop stop-opacity="1" stop-color="rgb(2.737427%, 2.662659%, 2.662659%)" offset="0.964844"/><stop stop-opacity="1" stop-color="rgb(2.432251%, 2.365112%, 2.365112%)" offset="0.96875"/><stop stop-opacity="1" stop-color="rgb(2.125549%, 2.067566%, 2.067566%)" offset="0.972656"/><stop stop-opacity="1" stop-color="rgb(1.820374%, 1.77002%, 1.77002%)" offset="0.976562"/><stop stop-opacity="1" stop-color="rgb(1.513672%, 1.472473%, 1.472473%)" offset="0.980469"/><stop stop-opacity="1" stop-color="rgb(1.208496%, 1.174927%, 1.174927%)" offset="0.984375"/><stop stop-opacity="1" stop-color="rgb(0.901794%, 0.87738%, 0.87738%)" offset="0.988281"/><stop stop-opacity="1" stop-color="rgb(0.596619%, 0.579834%, 0.579834%)" offset="0.992188"/><stop stop-opacity="1" stop-color="rgb(0.297546%, 0.289917%, 0.289917%)" offset="0.996094"/><stop stop-opacity="1" stop-color="rgb(0%, 0%, 0%)" offset="1"/></linearGradient><clipPath id="7e4bac5409"><rect x="0" width="321" y="0" height="321"/></clipPath><clipPath id="cc0463d57b"><rect x="0" width="419" y="0" height="322"/></clipPath></defs><g transform="matrix(1, 0, 0, 1, 160, 251)"><g clip-path="url(#cc0463d57b)"><g clip-path="url(#16eeb7d75e)"><g clip-path="url(#734a2600ee)"><g clip-path="url(#4b7e5013e0)"><g transform="matrix(1, 0, 0, 1, 60, 73)"><g clip-path="url(#00dc3ee879)"><g clip-path="url(#f684624c62)"><g clip-path="url(#71c3188a39)"><g clip-path="url(#2dfd101bd5)"><path fill="#000000" d="M 6.550781 2.605469 L 2.039062 7.410156 L -0.460938 5.0625 L 4.050781 0.261719 Z M 6.550781 2.605469 " fill-opacity="1" fill-rule="nonzero"/></g></g></g></g></g></g></g></g><g clip-path="url(#aa46c4efb0)"><g clip-path="url(#be7bc58544)"><g clip-path="url(#73e31776f4)"><g transform="matrix(1, 0, 0, 1, 55, 78)"><g clip-path="url(#13da2f8b02)"><g clip-path="url(#5aec0f28ac)"><g clip-path="url(#1003363f52)"><g clip-path="url(#3d156fe013)"><path fill="#000000" d="M 7.042969 2.40625 L 2.53125 7.207031 L 0.03125 4.859375 L 4.542969 0.0585938 Z M 7.042969 2.40625 " fill-opacity="1" fill-rule="nonzero"/></g></g></g></g></g></g></g></g><g clip-path="url(#79604cc2a7)"><g clip-path="url(#b8e81b6138)"><g clip-path="url(#031ccb3ccb)"><g transform="matrix(1, 0, 0, 1, 51, 83)"><g clip-path="url(#d252c5bda2)"><g clip-path="url(#fb99788c62)"><g clip-path="url(#75937ca924)"><g clip-path="url(#477060517a)"><path fill="#000000" d="M 6.535156 2.203125 L 2.023438 7.003906 L -0.476562 4.65625 L 4.035156 -0.144531 Z M 6.535156 2.203125 " fill-opacity="1" fill-rule="nonzero"/></g></g></g></g></g></g></g></g><g clip-path="url(#f7ed42c224)"><g clip-path="url(#6115664e64)"><g clip-path="url(#6e349e25bf)"><g transform="matrix(1, 0, 0, 1, 46, 88)"><g clip-path="url(#278b9068a3)"><g clip-path="url(#b0b4b56b0f)"><g clip-path="url(#d97da7fc57)"><g clip-path="url(#869df927d1)"><path fill="#000000" d="M 7.027344 2 L 2.515625 6.800781 L 0.0195312 4.453125 L 4.53125 -0.347656 Z M 7.027344 2 " fill-opacity="1" fill-rule="nonzero"/></g></g></g></g></g></g></g></g><g clip-path="url(#ef1be060aa)"><g clip-path="url(#2dde76055f)"><g clip-path="url(#9c02723a67)"><g transform="matrix(1, 0, 0, 1, 42, 93)"><g clip-path="url(#2e20874580)"><g clip-path="url(#08e4c2db14)"><g clip-path="url(#b9ebe4551c)"><g clip-path="url(#ecb25ea600)"><path fill="#000000" d="M 6.519531 1.796875 L 2.007812 6.597656 L -0.488281 4.25 L 4.023438 -0.550781 Z M 6.519531 1.796875 " fill-opacity="1" fill-rule="nonzero"/></g></g></g></g></g></g></g></g><g clip-path="url(#3a456c2b52)"><g clip-path="url(#3b7e6f0040)"><g clip-path="url(#f104410dee)"><g transform="matrix(1, 0, 0, 1, 37, 97)"><g clip-path="url(#3c37211e45)"><g clip-path="url(#1f9508ff1f)"><g clip-path="url(#f938b46626)"><g clip-path="url(#f552bb7139)"><path fill="#000000" d="M 7.015625 2.59375 L 2.503906 7.394531 L 0.00390625 5.046875 L 4.515625 0.246094 Z M 7.015625 2.59375 " fill-opacity="1" fill-rule="nonzero"/></g></g></g></g></g></g></g></g><g clip-path="url(#a1dcf62d33)"><g clip-path="url(#6e50897d8d)"><g clip-path="url(#9c5fc5c2be)"><g transform="matrix(1, 0, 0, 1, 33, 102)"><g clip-path="url(#4822e3d5dc)"><g clip-path="url(#6b7a9f83da)"><g clip-path="url(#72aad539ab)"><g clip-path="url(#df0063e72b)"><path fill="#000000" d="M 6.507812 2.390625 L 1.996094 7.191406 L -0.503906 4.84375 L 4.007812 0.0429688 Z M 6.507812 2.390625 " fill-opacity="1" fill-rule="nonzero"/></g></g></g></g></g></g></g></g><g clip-path="url(#3a96d7e1dc)"><g clip-path="url(#4a992d3ad1)"><g clip-path="url(#64c52616cf)"><g transform="matrix(1, 0, 0, 1, 64, 66)"><g clip-path="url(#92c7227814)"><g clip-path="url(#0a71b35893)"><g clip-path="url(#d1d3c19df2)"><g clip-path="url(#1d16a3dec8)"><path fill="#000000" d="M 8.953125 0.414062 L 9.648438 9.542969 L 0.519531 10.238281 L -0.175781 1.109375 Z M 8.953125 0.414062 " fill-opacity="1" fill-rule="nonzero"/></g></g></g></g></g></g></g></g><g clip-path="url(#5720a62e0a)"><path stroke-linecap="butt" transform="matrix(0.599645, 0.00177348, -0.00177348, 0.599645, 9.491952, 100.158616)" fill="none" stroke-linejoin="miter" d="M 0.00274772 2.999124 L 101.612317 2.998265 " stroke="#000000" stroke-width="6" stroke-opacity="1" stroke-miterlimit="4"/></g><path stroke-linecap="butt" transform="matrix(0, -0.599648, 0.599648, 0, 38.152469, 133.493477)" fill="none" stroke-linejoin="miter" d="M 0.00215087 3.002857 L 101.61128 3.002857 " stroke="#000000" stroke-width="6" stroke-opacity="1" stroke-miterlimit="4"/><g clip-path="url(#3049042a9c)"><g clip-path="url(#e9ed4ef88e)"><g transform="matrix(1, 0, 0, 1, 35, 64)"><g clip-path="url(#b5ff56eab0)"><g clip-path="url(#ec40c11f89)"><g clip-path="url(#e1aa52d52d)"><path fill="#000000" d="M 0.375 0.207031 L 9.53125 0.207031 L 9.53125 9.363281 L 0.375 9.363281 Z M 0.375 0.207031 " fill-opacity="1" fill-rule="nonzero"/></g></g></g></g></g></g><g clip-path="url(#047210327a)"><g clip-path="url(#26d8d6dcf1)"><g transform="matrix(1, 0, 0, 1, 30, 93)"><g clip-path="url(#db43354bf9)"><g clip-path="url(#83ccd81c68)"><g clip-path="url(#83b0bc2b24)"><path fill="#000000" d="M 0.824219 0.0664062 L 19.078125 0.0664062 L 19.078125 18.320312 L 0.824219 18.320312 Z M 0.824219 0.0664062 " fill-opacity="1" fill-rule="nonzero"/></g></g></g></g></g></g><g clip-path="url(#55fa0824ed)"><g clip-path="url(#1b8bf2a6ee)"><g transform="matrix(1, 0, 0, 1, 35, 133)"><g clip-path="url(#5405628bd7)"><g clip-path="url(#7c867036a5)"><g clip-path="url(#e582df77d0)"><path fill="#000000" d="M 0.375 0.183594 L 9.53125 0.183594 L 9.53125 9.339844 L 0.375 9.339844 Z M 0.375 0.183594 " fill-opacity="1" fill-rule="nonzero"/></g></g></g></g></g></g><g clip-path="url(#201268517d)"><g clip-path="url(#9a027e7060)"><g transform="matrix(1, 0, 0, 1, -0.000000000000028422, 97)"><g clip-path="url(#0d504d7ed4)"><g clip-path="url(#8bef7f32d5)"><g clip-path="url(#5245d8e63b)"><path fill="#000000" d="M 0.945312 0.136719 L 10.101562 0.136719 L 10.101562 9.292969 L 0.945312 9.292969 Z M 0.945312 0.136719 " fill-opacity="1" fill-rule="nonzero"/></g></g></g></g></g></g><g clip-path="url(#a20099cf7d)"><g clip-path="url(#45eb1437ad)"><g transform="matrix(1, 0, 0, 1, 69, 97)"><g clip-path="url(#e2a6d3d855)"><g clip-path="url(#3dcd66c327)"><g clip-path="url(#95b7ad9435)"><path fill="#000000" d="M 0.0742188 0.136719 L 9.230469 0.136719 L 9.230469 9.292969 L 0.0742188 9.292969 Z M 0.0742188 0.136719 " fill-opacity="1" fill-rule="nonzero"/></g></g></g></g></g></g><g clip-path="url(#29238a4b89)"><path stroke-linecap="butt" transform="matrix(0.423157, -0.424871, 0.424871, 0.423157, 10.30954, 129.859993)" fill="none" stroke-linejoin="miter" d="M -0.000833385 2.49936 L 76.523182 2.502028 " stroke="#000000" stroke-width="5" stroke-opacity="1" stroke-miterlimit="4"/></g><g clip-path="url(#0416571fbe)"><g clip-path="url(#3843dc701e)"><g transform="matrix(1, 0, 0, 1, 3, 129)"><g clip-path="url(#04d4237441)"><g clip-path="url(#0e24c10bae)"><g clip-path="url(#0fed2d2fbf)"><path fill="#000000" d="M 0.5625 0.585938 L 9.71875 0.585938 L 9.71875 9.742188 L 0.5625 9.742188 Z M 0.5625 0.585938 " fill-opacity="1" fill-rule="nonzero"/></g></g></g></g></g></g><g transform="matrix(1, 0, 0, 1, 100, 120)"><g clip-path="url(#189c31e848)"><g clip-path="url(#6d6b05e8a8)"><g fill="#646464" fill-opacity="1"><g transform="translate(0.442705, 17.544151)"><g><path d="M 3.375 -4.5625 L 7.875 -4.5625 L 5.640625 -10.265625 Z M 11.0625 0 L 9.6875 0 L 8.34375 -3.375 L 2.90625 -3.375 L 1.5625 0 L 0.1875 0 L 5.640625 -13.25 Z M 11.0625 0 "/></g></g></g></g><g fill="#646464" fill-opacity="1"><g transform="translate(15.31745, 17.544151)"><g><path d="M 8.734375 -11.21875 L 2.640625 -11.21875 L 2.640625 -6.796875 L 8.546875 -6.796875 L 8.546875 -5.59375 L 2.640625 -5.59375 L 2.640625 0 L 1.375 0 L 1.375 -12.40625 L 8.734375 -12.40625 Z M 8.734375 -11.21875 "/></g></g></g><g fill="#646464" fill-opacity="1"><g transform="translate(28.041368, 17.544151)"><g><path d="M 8.734375 -11.21875 L 2.640625 -11.21875 L 2.640625 -6.796875 L 8.546875 -6.796875 L 8.546875 -5.59375 L 2.640625 -5.59375 L 2.640625 0 L 1.375 0 L 1.375 -12.40625 L 8.734375 -12.40625 Z M 8.734375 -11.21875 "/></g></g></g><g fill="#646464" fill-opacity="1"><g transform="translate(40.765285, 17.544151)"><g><path d="M 12.296875 -6.234375 C 12.296875 -7.628906 11.796875 -8.828125 10.796875 -9.828125 C 9.796875 -10.828125 8.59375 -11.328125 7.1875 -11.328125 C 5.789062 -11.328125 4.59375 -10.828125 3.59375 -9.828125 C 2.59375 -8.828125 2.09375 -7.628906 2.09375 -6.234375 C 2.09375 -4.828125 2.59375 -3.625 3.59375 -2.625 C 4.59375 -1.625 5.789062 -1.125 7.1875 -1.125 C 8.59375 -1.125 9.796875 -1.625 10.796875 -2.625 C 11.796875 -3.625 12.296875 -4.828125 12.296875 -6.234375 Z M 13.5625 -6.234375 C 13.5625 -5.359375 13.398438 -4.53125 13.078125 -3.75 C 12.734375 -2.976562 12.273438 -2.304688 11.703125 -1.734375 C 11.117188 -1.148438 10.441406 -0.691406 9.671875 -0.359375 C 8.890625 -0.0234375 8.0625 0.140625 7.1875 0.140625 C 6.3125 0.140625 5.488281 -0.0234375 4.71875 -0.359375 C 3.945312 -0.691406 3.273438 -1.148438 2.703125 -1.734375 C 2.117188 -2.304688 1.660156 -2.976562 1.328125 -3.75 C 0.992188 -4.53125 0.828125 -5.359375 0.828125 -6.234375 C 0.828125 -7.109375 0.992188 -7.9375 1.328125 -8.71875 C 1.660156 -9.5 2.117188 -10.171875 2.703125 -10.734375 C 3.273438 -11.304688 3.945312 -11.765625 4.71875 -12.109375 C 5.488281 -12.429688 6.3125 -12.59375 7.1875 -12.59375 C 8.0625 -12.59375 8.890625 -12.429688 9.671875 -12.109375 C 10.441406 -11.765625 11.117188 -11.304688 11.703125 -10.734375 C 12.273438 -10.171875 12.734375 -9.5 13.078125 -8.71875 C 13.398438 -7.9375 13.5625 -7.109375 13.5625 -6.234375 Z M 13.5625 -6.234375 "/></g></g></g><g fill="#646464" fill-opacity="1"><g transform="translate(58.775135, 17.544151)"><g><path d="M 2.640625 -6.125 L 5.53125 -6.125 C 6.238281 -6.125 6.828125 -6.367188 7.296875 -6.859375 C 7.765625 -7.359375 8 -7.972656 8 -8.703125 C 8 -9.421875 7.773438 -10.015625 7.328125 -10.484375 C 6.878906 -10.941406 6.28125 -11.171875 5.53125 -11.171875 L 2.640625 -11.171875 Z M 9.28125 -8.65625 C 9.28125 -7.570312 8.894531 -6.675781 8.125 -5.96875 C 7.445312 -5.332031 6.628906 -4.984375 5.671875 -4.921875 L 9.484375 0 L 7.765625 0 L 4.140625 -4.90625 L 2.640625 -4.90625 L 2.640625 0 L 1.375 0 L 1.375 -12.40625 L 5.34375 -12.40625 C 6.445312 -12.40625 7.375 -12.054688 8.125 -11.359375 C 8.894531 -10.628906 9.28125 -9.726562 9.28125 -8.65625 Z M 9.28125 -8.65625 "/></g></g></g><g fill="#646464" fill-opacity="1"><g transform="translate(72.319282, 17.544151)"><g><path d="M 11 -6.203125 C 11 -5.296875 10.832031 -4.46875 10.5 -3.71875 C 10.164062 -2.957031 9.710938 -2.300781 9.140625 -1.75 C 8.566406 -1.207031 7.890625 -0.78125 7.109375 -0.46875 C 6.328125 -0.15625 5.492188 0 4.609375 0 L 1.375 0 L 1.375 -12.40625 L 4.609375 -12.40625 C 5.492188 -12.40625 6.328125 -12.25 7.109375 -11.9375 C 7.890625 -11.625 8.566406 -11.195312 9.140625 -10.65625 C 9.710938 -10.101562 10.164062 -9.453125 10.5 -8.703125 C 10.832031 -7.929688 11 -7.097656 11 -6.203125 Z M 9.75 -6.203125 C 9.75 -7.609375 9.253906 -8.785156 8.265625 -9.734375 C 7.285156 -10.660156 6.082031 -11.125 4.65625 -11.125 L 2.640625 -11.125 L 2.640625 -1.28125 L 4.65625 -1.28125 C 6.082031 -1.28125 7.285156 -1.738281 8.265625 -2.65625 C 9.253906 -3.601562 9.75 -4.785156 9.75 -6.203125 Z M 9.75 -6.203125 "/></g></g></g><g fill="#646464" fill-opacity="1"><g transform="translate(87.759076, 17.544151)"><g><path d="M 3.375 -4.5625 L 7.875 -4.5625 L 5.640625 -10.265625 Z M 11.0625 0 L 9.6875 0 L 8.34375 -3.375 L 2.90625 -3.375 L 1.5625 0 L 0.1875 0 L 5.640625 -13.25 Z M 11.0625 0 "/></g></g></g><g fill="#646464" fill-opacity="1"><g transform="translate(102.633822, 17.544151)"><g><path d="M 9.46875 -3.46875 C 9.46875 -2.957031 9.351562 -2.46875 9.125 -2 C 8.882812 -1.539062 8.570312 -1.164062 8.1875 -0.875 C 7.4375 -0.289062 6.425781 0 5.15625 0 L 1.375 0 L 1.375 -12.40625 L 4.71875 -12.40625 C 6.53125 -12.40625 7.710938 -11.84375 8.265625 -10.71875 C 8.453125 -10.320312 8.546875 -9.914062 8.546875 -9.5 C 8.546875 -9.082031 8.515625 -8.757812 8.453125 -8.53125 C 8.378906 -8.289062 8.285156 -8.0625 8.171875 -7.84375 C 7.890625 -7.363281 7.53125 -7.03125 7.09375 -6.84375 C 7.820312 -6.644531 8.398438 -6.253906 8.828125 -5.671875 C 9.253906 -5.078125 9.46875 -4.34375 9.46875 -3.46875 Z M 7.28125 -9.296875 C 7.28125 -10.546875 6.425781 -11.171875 4.71875 -11.171875 L 2.640625 -11.171875 L 2.640625 -7.3125 L 5.09375 -7.3125 C 5.75 -7.3125 6.273438 -7.472656 6.671875 -7.796875 C 7.078125 -8.128906 7.28125 -8.628906 7.28125 -9.296875 Z M 8.1875 -3.703125 C 8.1875 -4.066406 8.117188 -4.390625 7.984375 -4.671875 C 7.835938 -4.953125 7.65625 -5.191406 7.4375 -5.390625 C 6.945312 -5.816406 6.375 -6.03125 5.71875 -6.03125 L 2.640625 -6.03125 L 2.640625 -1.21875 L 5.53125 -1.21875 C 6.300781 -1.21875 6.9375 -1.441406 7.4375 -1.890625 C 7.9375 -2.359375 8.1875 -2.960938 8.1875 -3.703125 Z M 8.1875 -3.703125 "/></g></g></g><g fill="#646464" fill-opacity="1"><g transform="translate(116.086836, 17.544151)"><g><path d="M 2.640625 -1.28125 L 7.078125 -1.28125 L 7.078125 0 L 1.375 0 L 1.375 -12.40625 L 2.640625 -12.40625 Z M 2.640625 -1.28125 "/></g></g></g><g fill="#646464" fill-opacity="1"><g transform="translate(127.152059, 17.544151)"><g><path d="M 8.734375 0 L 1.375 0 L 1.375 -12.40625 L 8.734375 -12.40625 L 8.734375 -11.21875 L 2.640625 -11.21875 L 2.640625 -6.796875 L 8.546875 -6.796875 L 8.546875 -5.59375 L 2.640625 -5.59375 L 2.640625 -1.1875 L 8.734375 -1.1875 Z M 8.734375 0 "/></g></g></g><g fill="#646464" fill-opacity="1"><g transform="translate(140.87848, 17.544151)"><g/></g></g><g fill="#646464" fill-opacity="1"><g transform="translate(149.428327, 17.544151)"><g><path d="M 2.640625 0 L 1.375 0 L 1.375 -12.40625 L 2.640625 -12.40625 Z M 2.640625 0 "/></g></g></g><g fill="#646464" fill-opacity="1"><g transform="translate(157.066822, 17.544151)"><g><path d="M 2.640625 -9.140625 L 2.640625 0 L 1.375 0 L 1.375 -13.1875 L 8.328125 -3.28125 L 8.328125 -12.40625 L 9.609375 -12.40625 L 9.609375 0.765625 Z M 2.640625 -9.140625 "/></g></g></g><g fill="#646464" fill-opacity="1"><g transform="translate(171.668133, 17.544151)"><g><path d="M 0.359375 -11.25 L 0.359375 -12.4375 L 7.65625 -12.4375 L 7.65625 -11.25 L 4.65625 -11.25 L 4.65625 -0.03125 L 3.375 -0.03125 L 3.375 -11.25 Z M 0.359375 -11.25 "/></g></g></g><g fill="#646464" fill-opacity="1"><g transform="translate(183.316641, 17.544151)"><g><path d="M 8.734375 0 L 1.375 0 L 1.375 -12.40625 L 8.734375 -12.40625 L 8.734375 -11.21875 L 2.640625 -11.21875 L 2.640625 -6.796875 L 8.546875 -6.796875 L 8.546875 -5.59375 L 2.640625 -5.59375 L 2.640625 -1.1875 L 8.734375 -1.1875 Z M 8.734375 0 "/></g></g></g><g fill="#646464" fill-opacity="1"><g transform="translate(197.043062, 17.544151)"><g><path d="M 2.640625 -1.28125 L 7.078125 -1.28125 L 7.078125 0 L 1.375 0 L 1.375 -12.40625 L 2.640625 -12.40625 Z M 2.640625 -1.28125 "/></g></g></g><g fill="#646464" fill-opacity="1"><g transform="translate(208.108286, 17.544151)"><g><path d="M 2.640625 -1.28125 L 7.078125 -1.28125 L 7.078125 0 L 1.375 0 L 1.375 -12.40625 L 2.640625 -12.40625 Z M 2.640625 -1.28125 "/></g></g></g><g fill="#646464" fill-opacity="1"><g transform="translate(219.173509, 17.544151)"><g><path d="M 2.640625 0 L 1.375 0 L 1.375 -12.40625 L 2.640625 -12.40625 Z M 2.640625 0 "/></g></g></g><g fill="#646464" fill-opacity="1"><g transform="translate(226.811986, 17.544151)"><g><path d="M 13.609375 -5.796875 L 13.46875 -5.03125 C 13.207031 -3.519531 12.472656 -2.28125 11.265625 -1.3125 C 10.066406 -0.34375 8.710938 0.140625 7.203125 0.140625 C 6.328125 0.140625 5.5 -0.0234375 4.71875 -0.359375 C 3.945312 -0.691406 3.273438 -1.148438 2.703125 -1.734375 C 2.117188 -2.304688 1.660156 -2.976562 1.328125 -3.75 C 0.992188 -4.53125 0.828125 -5.363281 0.828125 -6.25 C 0.828125 -7.125 0.992188 -7.953125 1.328125 -8.734375 C 1.660156 -9.515625 2.117188 -10.195312 2.703125 -10.78125 C 3.273438 -11.351562 3.945312 -11.804688 4.71875 -12.140625 C 5.5 -12.472656 6.285156 -12.640625 7.078125 -12.640625 C 8.554688 -12.640625 9.863281 -12.21875 11 -11.375 C 12.132812 -10.539062 12.910156 -9.4375 13.328125 -8.0625 L 11.984375 -8.0625 C 11.585938 -9.070312 10.960938 -9.875 10.109375 -10.46875 C 9.222656 -11.0625 8.253906 -11.359375 7.203125 -11.359375 C 5.796875 -11.359375 4.59375 -10.859375 3.59375 -9.859375 C 2.59375 -8.867188 2.09375 -7.664062 2.09375 -6.25 C 2.09375 -4.851562 2.59375 -3.648438 3.59375 -2.640625 C 4.570312 -1.628906 5.773438 -1.125 7.203125 -1.125 C 8.316406 -1.125 9.335938 -1.445312 10.265625 -2.09375 C 11.179688 -2.75 11.820312 -3.613281 12.1875 -4.6875 L 7.140625 -4.6875 L 7.140625 -5.796875 Z M 13.609375 -5.796875 "/></g></g></g><g fill="#646464" fill-opacity="1"><g transform="translate(244.858298, 17.544151)"><g><path d="M 8.734375 0 L 1.375 0 L 1.375 -12.40625 L 8.734375 -12.40625 L 8.734375 -11.21875 L 2.640625 -11.21875 L 2.640625 -6.796875 L 8.546875 -6.796875 L 8.546875 -5.59375 L 2.640625 -5.59375 L 2.640625 -1.1875 L 8.734375 -1.1875 Z M 8.734375 0 "/></g></g></g><g fill="#646464" fill-opacity="1"><g transform="translate(258.584719, 17.544151)"><g><path d="M 2.640625 -9.140625 L 2.640625 0 L 1.375 0 L 1.375 -13.1875 L 8.328125 -3.28125 L 8.328125 -12.40625 L 9.609375 -12.40625 L 9.609375 0.765625 Z M 2.640625 -9.140625 "/></g></g></g><g fill="#646464" fill-opacity="1"><g transform="translate(273.186048, 17.544151)"><g><path d="M 12.75 -3.796875 C 12.28125 -2.597656 11.523438 -1.644531 10.484375 -0.9375 C 9.421875 -0.1875 8.257812 0.1875 7 0.1875 C 5.289062 0.1875 3.828125 -0.445312 2.609375 -1.71875 C 1.421875 -2.957031 0.828125 -4.445312 0.828125 -6.1875 C 0.828125 -7.039062 0.984375 -7.859375 1.296875 -8.640625 C 1.609375 -9.410156 2.046875 -10.085938 2.609375 -10.671875 C 3.828125 -11.929688 5.289062 -12.5625 7 -12.5625 C 8.257812 -12.5625 9.414062 -12.203125 10.46875 -11.484375 C 11.507812 -10.753906 12.265625 -9.800781 12.734375 -8.625 L 11.328125 -8.625 C 10.660156 -9.851562 9.660156 -10.664062 8.328125 -11.0625 C 7.890625 -11.1875 7.382812 -11.25 6.8125 -11.25 C 6.25 -11.25 5.664062 -11.113281 5.0625 -10.84375 C 4.46875 -10.570312 3.953125 -10.203125 3.515625 -9.734375 C 2.566406 -8.753906 2.09375 -7.570312 2.09375 -6.1875 C 2.09375 -4.8125 2.566406 -3.628906 3.515625 -2.640625 C 4.472656 -1.628906 5.632812 -1.125 7 -1.125 C 7.925781 -1.125 8.78125 -1.367188 9.5625 -1.859375 C 10.320312 -2.347656 10.914062 -2.992188 11.34375 -3.796875 Z M 12.75 -3.796875 "/></g></g></g><g fill="#646464" fill-opacity="1"><g transform="translate(290.102262, 17.544151)"><g><path d="M 8.734375 0 L 1.375 0 L 1.375 -12.40625 L 8.734375 -12.40625 L 8.734375 -11.21875 L 2.640625 -11.21875 L 2.640625 -6.796875 L 8.546875 -6.796875 L 8.546875 -5.59375 L 2.640625 -5.59375 L 2.640625 -1.1875 L 8.734375 -1.1875 Z M 8.734375 0 "/></g></g></g></g></g><g transform="matrix(1, 0, 0, 1, 93, 44)"><g clip-path="url(#52f4aa879e)"><g fill="#000000" fill-opacity="1"><g transform="translate(0.902412, 61.203277)"><g><path d="M 14.265625 0 L 7.125 0 L 7.125 -39.734375 L 19.8125 -39.734375 L 46.046875 -4.390625 L 46.21875 -4.390625 L 46.21875 -39.734375 L 53.359375 -39.734375 L 53.359375 0 L 40.671875 0 L 14.4375 -35.359375 L 14.265625 -35.359375 Z M 14.265625 0 "/></g></g></g><g fill="#000000" fill-opacity="1"><g transform="translate(61.376302, 61.203277)"><g><path d="M 11.046875 -12.15625 L 11.046875 -4.84375 C 17.898438 -4.84375 23.507812 -4.929688 27.875 -5.109375 C 32.238281 -5.285156 37.070312 -5.609375 42.375 -6.078125 L 42.140625 0 C 34.066406 0.46875 26.972656 0.703125 20.859375 0.703125 C 16.109375 0.703125 12.523438 0.296875 10.109375 -0.515625 C 7.691406 -1.335938 6.003906 -2.769531 5.046875 -4.8125 C 4.097656 -6.863281 3.625 -9.9375 3.625 -14.03125 C 3.625 -18.425781 4.1875 -21.734375 5.3125 -23.953125 C 6.445312 -26.179688 8.445312 -27.734375 11.3125 -28.609375 C 14.175781 -29.484375 18.453125 -29.921875 24.140625 -29.921875 C 29.785156 -29.921875 34.039062 -29.5 36.90625 -28.65625 C 39.769531 -27.820312 41.765625 -26.351562 42.890625 -24.25 C 44.023438 -22.144531 44.59375 -18.988281 44.59375 -14.78125 C 44.59375 -13.726562 44.53125 -12.851562 44.40625 -12.15625 Z M 24.140625 -24.078125 C 19.578125 -24.078125 15.210938 -23.820312 11.046875 -23.3125 L 11.046875 -17.359375 L 37.171875 -17.359375 L 37.171875 -23.3125 C 32.992188 -23.820312 28.648438 -24.078125 24.140625 -24.078125 Z M 24.140625 -24.078125 "/></g></g></g><g fill="#000000" fill-opacity="1"><g transform="translate(108.762123, 61.203277)"><g><path d="M 36 -29.21875 L 42.828125 -29.21875 L 42.828125 0 L 38.046875 0 L 36.171875 -3.859375 C 32.234375 -2.492188 28.257812 -1.390625 24.25 -0.546875 C 20.238281 0.285156 16.789062 0.703125 13.90625 0.703125 C 10.863281 0.703125 8.628906 -0.0234375 7.203125 -1.484375 C 5.785156 -2.953125 5.078125 -5.300781 5.078125 -8.53125 L 5.078125 -29.21875 L 11.921875 -29.21875 L 11.921875 -5.140625 C 15.429688 -5.140625 19.335938 -5.566406 23.640625 -6.421875 C 27.941406 -7.285156 32.0625 -8.4375 36 -9.875 Z M 36 -29.21875 "/></g></g></g><g fill="#000000" fill-opacity="1"><g transform="translate(156.965958, 61.203277)"><g><path d="M 41.140625 -29.921875 C 42.035156 -29.921875 42.816406 -29.878906 43.484375 -29.796875 L 43.484375 -23.84375 C 43.015625 -23.882812 42.289062 -23.90625 41.3125 -23.90625 C 38.082031 -23.90625 35.015625 -23.335938 32.109375 -22.203125 C 29.210938 -21.078125 25.304688 -19.148438 20.390625 -16.421875 L 20.390625 -5.609375 L 38.5625 -5.609375 L 38.5625 0 L 3.625 0 L 3.625 -5.609375 L 13.5625 -5.609375 L 13.5625 -23.609375 L 3.625 -23.609375 L 3.625 -29.21875 L 18.46875 -29.21875 L 20.34375 -22.796875 C 24.695312 -25.171875 28.53125 -26.953125 31.84375 -28.140625 C 35.15625 -29.328125 38.253906 -29.921875 41.140625 -29.921875 Z M 41.140625 -29.921875 "/></g></g></g><g fill="#000000" fill-opacity="1"><g transform="translate(201.430328, 61.203277)"><g><path d="M 29.859375 -29.921875 C 33.328125 -29.921875 36.015625 -29.617188 37.921875 -29.015625 C 39.835938 -28.410156 41.179688 -27.414062 41.953125 -26.03125 C 42.734375 -24.644531 43.125 -22.707031 43.125 -20.21875 L 43.125 0 L 38.390625 0 L 36.9375 -2.34375 L 16.53125 0.40625 C 15.175781 0.601562 13.753906 0.703125 12.265625 0.703125 C 9.109375 0.703125 6.78125 -0.0546875 5.28125 -1.578125 C 3.78125 -3.097656 3.03125 -5.457031 3.03125 -8.65625 C 3.03125 -11.375 3.867188 -13.425781 5.546875 -14.8125 C 7.222656 -16.195312 9.910156 -17.046875 13.609375 -17.359375 L 36.34375 -19.40625 L 36.34375 -24.421875 C 32.445312 -24.421875 27.8125 -24.273438 22.4375 -23.984375 C 17.0625 -23.691406 12.054688 -23.3125 7.421875 -22.84375 L 7.65625 -28.984375 C 12.875 -29.253906 17.320312 -29.476562 21 -29.65625 C 24.6875 -29.832031 27.640625 -29.921875 29.859375 -29.921875 Z M 9.8125 -11.796875 L 10.40625 -4.328125 L 36.34375 -7.359375 L 36.34375 -14.203125 Z M 9.8125 -11.796875 "/></g></g></g></g></g><g clip-path="url(#bbd0d4ff8d)"><g clip-path="url(#4ec0ec38db)"><g transform="matrix(1, 0, 0, 1, 97, -0.000000000000113687)"><g clip-path="url(#7e4bac5409)"><g clip-path="url(#0a0691d966)"><g clip-path="url(#7f39452195)"><g clip-path="url(#dcb37dbffb)"><g clip-path="url(#2dc44b2524)"><g clip-path="url(#ec406148fb)"><path fill="url(#f6163c4a64)" d="M 160.746094 0.816406 L 320.476562 160.546875 L 160.746094 320.277344 L 1.015625 160.546875 Z M 160.746094 0.816406 " fill-rule="nonzero"/></g></g></g></g></g></g></g></g></g></g></g></svg>